G75*
G70*
%OFA0B0*%
%FSLAX24Y24*%
%IPPOS*%
%LPD*%
%AMOC8*
5,1,8,0,0,1.08239X$1,22.5*
%
%ADD10C,0.0060*%
%ADD11C,0.0100*%
%ADD12C,0.0080*%
%ADD13C,0.0160*%
%ADD14R,0.0230X0.0160*%
%ADD15C,0.0050*%
D10*
X010361Y008943D02*
X010788Y008943D01*
X010574Y008943D02*
X010574Y009584D01*
X010361Y009370D01*
X010861Y010763D02*
X011288Y010763D01*
X012361Y010727D02*
X012468Y010834D01*
X012681Y010834D01*
X012788Y010727D01*
X012788Y010620D01*
X012361Y010193D01*
X012788Y010193D01*
X013574Y010550D02*
X013574Y010977D01*
X013361Y010763D02*
X013788Y010763D01*
X014968Y009584D02*
X015181Y009584D01*
X015288Y009477D01*
X015288Y009370D01*
X015181Y009263D01*
X015288Y009157D01*
X015288Y009050D01*
X015181Y008943D01*
X014968Y008943D01*
X014861Y009050D01*
X015074Y009263D02*
X015181Y009263D01*
X014861Y009477D02*
X014968Y009584D01*
X017361Y010513D02*
X017788Y010513D01*
X017681Y010193D02*
X017681Y010834D01*
X017361Y010513D01*
X020361Y009584D02*
X020361Y009263D01*
X020574Y009370D01*
X020681Y009370D01*
X020788Y009263D01*
X020788Y009050D01*
X020681Y008943D01*
X020468Y008943D01*
X020361Y009050D01*
X020361Y009584D02*
X020788Y009584D01*
X021861Y010300D02*
X021968Y010193D01*
X022181Y010193D01*
X022288Y010300D01*
X022288Y010407D01*
X022181Y010513D01*
X021861Y010513D01*
X021861Y010300D01*
X021861Y010513D02*
X022074Y010727D01*
X022288Y010834D01*
X024271Y011153D02*
X024271Y011473D01*
X024271Y011153D02*
X024491Y011153D01*
X025171Y011153D02*
X025391Y011153D01*
X025391Y011473D01*
X027271Y011653D02*
X027271Y011973D01*
X027271Y011653D02*
X027491Y011653D01*
X028171Y011653D02*
X028391Y011653D01*
X028391Y011973D01*
X030271Y011973D02*
X030271Y011653D01*
X030491Y011653D01*
X031171Y011653D02*
X031391Y011653D01*
X031391Y011973D01*
X033271Y011973D02*
X033271Y011653D01*
X033491Y011653D01*
X034171Y011653D02*
X034391Y011653D01*
X034391Y011973D01*
X036271Y012653D02*
X036271Y012973D01*
X036271Y012653D02*
X036491Y012653D01*
X037171Y012653D02*
X037391Y012653D01*
X037391Y012973D01*
X039271Y012973D02*
X039271Y012653D01*
X039491Y012653D01*
X040171Y012653D02*
X040391Y012653D01*
X040391Y012973D01*
X042271Y012973D02*
X042271Y012653D01*
X042491Y012653D01*
X043171Y012653D02*
X043391Y012653D01*
X043391Y012973D01*
X043612Y009584D02*
X043506Y009477D01*
X043612Y009584D02*
X043826Y009584D01*
X043933Y009477D01*
X043933Y009370D01*
X043506Y008943D01*
X043933Y008943D01*
X043288Y008943D02*
X042861Y008943D01*
X043074Y008943D02*
X043074Y009584D01*
X042861Y009370D01*
X040433Y008943D02*
X040006Y008943D01*
X040219Y008943D02*
X040219Y009584D01*
X040006Y009370D01*
X039574Y009584D02*
X039574Y008943D01*
X039361Y008943D02*
X039788Y008943D01*
X039361Y009370D02*
X039574Y009584D01*
X036933Y009477D02*
X036933Y009050D01*
X036826Y008943D01*
X036612Y008943D01*
X036506Y009050D01*
X036933Y009477D01*
X036826Y009584D01*
X036612Y009584D01*
X036506Y009477D01*
X036506Y009050D01*
X036288Y008943D02*
X035861Y008943D01*
X036074Y008943D02*
X036074Y009584D01*
X035861Y009370D01*
X032788Y009263D02*
X032468Y009263D01*
X032361Y009370D01*
X032361Y009477D01*
X032468Y009584D01*
X032681Y009584D01*
X032788Y009477D01*
X032788Y009050D01*
X032681Y008943D01*
X032468Y008943D01*
X032361Y009050D01*
X029288Y009050D02*
X029181Y008943D01*
X028968Y008943D01*
X028861Y009050D01*
X028861Y009157D01*
X028968Y009263D01*
X029181Y009263D01*
X029288Y009157D01*
X029288Y009050D01*
X029181Y009263D02*
X029288Y009370D01*
X029288Y009477D01*
X029181Y009584D01*
X028968Y009584D01*
X028861Y009477D01*
X028861Y009370D01*
X028968Y009263D01*
X025788Y009477D02*
X025361Y009050D01*
X025361Y008943D01*
X025361Y009584D02*
X025788Y009584D01*
X025788Y009477D01*
X029231Y014113D02*
X031431Y014113D01*
X031431Y028713D01*
X030581Y028713D01*
X030579Y028683D01*
X030574Y028653D01*
X030565Y028624D01*
X030552Y028597D01*
X030537Y028571D01*
X030518Y028547D01*
X030497Y028526D01*
X030473Y028507D01*
X030447Y028492D01*
X030420Y028479D01*
X030391Y028470D01*
X030361Y028465D01*
X030331Y028463D01*
X030301Y028465D01*
X030271Y028470D01*
X030242Y028479D01*
X030215Y028492D01*
X030189Y028507D01*
X030165Y028526D01*
X030144Y028547D01*
X030125Y028571D01*
X030110Y028597D01*
X030097Y028624D01*
X030088Y028653D01*
X030083Y028683D01*
X030081Y028713D01*
X029231Y028713D01*
X029231Y014113D01*
X021891Y019653D02*
X021671Y019653D01*
X021891Y019653D02*
X021891Y019973D01*
X020991Y019653D02*
X020771Y019653D01*
X020771Y019973D01*
X016391Y019973D02*
X016391Y019653D01*
X016171Y019653D01*
X015491Y019653D02*
X015271Y019653D01*
X015271Y019973D01*
X010391Y017473D02*
X010391Y017153D01*
X010171Y017153D01*
X009491Y017153D02*
X009271Y017153D01*
X009271Y017473D01*
X012271Y016473D02*
X012271Y016153D01*
X012491Y016153D01*
X013171Y016153D02*
X013391Y016153D01*
X013391Y016473D01*
X018271Y016473D02*
X018271Y016153D01*
X018491Y016153D01*
X019171Y016153D02*
X019391Y016153D01*
X019391Y016473D01*
X032861Y022263D02*
X033288Y022263D01*
X033506Y022263D02*
X033719Y022370D01*
X033826Y022370D01*
X033933Y022263D01*
X033933Y022050D01*
X033826Y021943D01*
X033612Y021943D01*
X033506Y022050D01*
X033506Y022263D02*
X033506Y022584D01*
X033933Y022584D01*
X034150Y022584D02*
X034150Y022157D01*
X034364Y021943D01*
X034577Y022157D01*
X034577Y022584D01*
X035861Y022477D02*
X035861Y022050D01*
X035968Y021943D01*
X036181Y021943D01*
X036288Y022050D01*
X036288Y022263D01*
X036074Y022263D01*
X035861Y022477D02*
X035968Y022584D01*
X036181Y022584D01*
X036288Y022477D01*
X036506Y022584D02*
X036933Y021943D01*
X036933Y022584D01*
X037150Y022584D02*
X037470Y022584D01*
X037577Y022477D01*
X037577Y022050D01*
X037470Y021943D01*
X037150Y021943D01*
X037150Y022584D01*
X036506Y022584D02*
X036506Y021943D01*
X037361Y021477D02*
X037468Y021584D01*
X037681Y021584D01*
X037788Y021477D01*
X037788Y021370D01*
X037361Y020943D01*
X037788Y020943D01*
X038006Y021050D02*
X038006Y021477D01*
X038112Y021584D01*
X038326Y021584D01*
X038433Y021477D01*
X038006Y021050D01*
X038112Y020943D01*
X038326Y020943D01*
X038433Y021050D01*
X038433Y021477D01*
X038650Y021370D02*
X038757Y021370D01*
X038864Y021263D01*
X038970Y021370D01*
X039077Y021263D01*
X039077Y020943D01*
X038864Y020943D02*
X038864Y021263D01*
X038650Y021370D02*
X038650Y020943D01*
X039295Y020943D02*
X039295Y021370D01*
X039401Y021370D01*
X039508Y021263D01*
X039615Y021370D01*
X039722Y021263D01*
X039722Y020943D01*
X039508Y020943D02*
X039508Y021263D01*
X040584Y021050D02*
X040690Y020943D01*
X040904Y020943D01*
X041011Y021050D01*
X041228Y021157D02*
X041549Y021157D01*
X041655Y021263D01*
X041655Y021477D01*
X041549Y021584D01*
X041228Y021584D01*
X041228Y020943D01*
X041442Y021157D02*
X041655Y020943D01*
X041873Y020943D02*
X042300Y021370D01*
X042300Y021477D01*
X042193Y021584D01*
X041980Y021584D01*
X041873Y021477D01*
X041873Y020943D02*
X042300Y020943D01*
X042517Y021050D02*
X042517Y021477D01*
X042624Y021584D01*
X042838Y021584D01*
X042944Y021477D01*
X042517Y021050D01*
X042624Y020943D01*
X042838Y020943D01*
X042944Y021050D01*
X042944Y021477D01*
X043162Y021477D02*
X043269Y021584D01*
X043482Y021584D01*
X043589Y021477D01*
X043589Y021370D01*
X043482Y021263D01*
X043589Y021157D01*
X043589Y021050D01*
X043482Y020943D01*
X043269Y020943D01*
X043162Y021050D01*
X043375Y021263D02*
X043482Y021263D01*
X043806Y021477D02*
X043913Y021584D01*
X044127Y021584D01*
X044233Y021477D01*
X044233Y021370D01*
X043806Y020943D01*
X044233Y020943D01*
X041011Y021477D02*
X040904Y021584D01*
X040690Y021584D01*
X040584Y021477D01*
X040584Y021050D01*
X033074Y022050D02*
X033074Y022477D01*
X034621Y026483D02*
X036041Y026483D01*
X038481Y027063D02*
X038631Y027063D01*
X038631Y027763D01*
X038631Y027813D01*
X040781Y027813D01*
X040798Y027811D01*
X040815Y027807D01*
X040831Y027800D01*
X040845Y027790D01*
X040858Y027777D01*
X040868Y027763D01*
X040875Y027747D01*
X040879Y027730D01*
X040881Y027713D01*
X040881Y027113D01*
X040879Y027096D01*
X040875Y027079D01*
X040868Y027063D01*
X040858Y027049D01*
X040845Y027036D01*
X040831Y027026D01*
X040815Y027019D01*
X040798Y027015D01*
X040781Y027013D01*
X038631Y027013D01*
X038631Y027063D01*
X038481Y027063D02*
X038481Y027763D01*
X038631Y027763D01*
X039281Y027413D02*
X039481Y027413D01*
X039481Y027213D01*
X039631Y027213D02*
X039631Y027613D01*
X039781Y027613D01*
X039781Y027213D01*
X039631Y027213D01*
X039481Y027413D02*
X039481Y027613D01*
X039931Y027613D02*
X039931Y027413D01*
X039931Y027213D01*
X039931Y027413D02*
X040131Y027413D01*
X036041Y028343D02*
X034621Y028343D01*
X024933Y027443D02*
X024506Y027443D01*
X024719Y027443D02*
X024719Y028084D01*
X024506Y027870D01*
X024288Y027977D02*
X024181Y028084D01*
X023968Y028084D01*
X023861Y027977D01*
X023861Y027550D01*
X023968Y027443D01*
X024181Y027443D01*
X024288Y027550D01*
X015327Y027477D02*
X015220Y027584D01*
X015007Y027584D01*
X014900Y027477D01*
X014900Y027370D01*
X015007Y027263D01*
X015220Y027263D01*
X015327Y027157D01*
X015327Y027050D01*
X015220Y026943D01*
X015007Y026943D01*
X014900Y027050D01*
X014683Y027157D02*
X014683Y027584D01*
X014256Y027584D02*
X014256Y027157D01*
X014469Y026943D01*
X014683Y027157D01*
X014038Y027584D02*
X013611Y027584D01*
X013824Y027584D02*
X013824Y026943D01*
X011153Y029443D02*
X010939Y029229D01*
X011046Y029443D02*
X011153Y029443D01*
X011153Y029550D01*
X011046Y029550D01*
X011046Y029443D01*
X010722Y029657D02*
X010722Y030084D01*
X010295Y030084D02*
X010295Y029657D01*
X010508Y029443D01*
X010722Y029657D01*
X011369Y029763D02*
X011796Y029763D01*
X012013Y029763D02*
X012440Y029763D01*
X012440Y029870D02*
X012440Y029443D01*
X012013Y029443D02*
X012013Y029870D01*
X012227Y030084D01*
X012440Y029870D01*
X011689Y030084D02*
X011689Y029443D01*
X011369Y029763D02*
X011689Y030084D01*
X010077Y029977D02*
X010077Y029870D01*
X009650Y029443D01*
X010077Y029443D01*
X010077Y029977D02*
X009970Y030084D01*
X009757Y030084D01*
X009650Y029977D01*
X009219Y030084D02*
X009219Y029443D01*
X009006Y029443D02*
X009433Y029443D01*
X009006Y029870D02*
X009219Y030084D01*
X008788Y029763D02*
X008361Y029763D01*
X008574Y029977D02*
X008574Y029550D01*
D11*
X032581Y028163D02*
X032581Y027663D01*
X033581Y027663D01*
X033581Y028163D01*
X033081Y028163D01*
X033081Y028413D01*
X033081Y028163D02*
X032581Y028163D01*
X032581Y027663D02*
X032581Y025663D01*
X033081Y025663D01*
X033081Y025413D01*
X033081Y025663D02*
X033581Y025663D01*
X033581Y027663D01*
X033331Y021413D02*
X033331Y019413D01*
X036331Y019413D01*
X036331Y021413D01*
X033331Y021413D01*
D12*
X039256Y025143D02*
X039256Y026324D01*
X042406Y026324D01*
X042406Y025143D01*
X042596Y025061D01*
X042782Y024970D01*
X042964Y024870D01*
X043140Y024762D01*
X043311Y024645D01*
X043476Y024520D01*
X043635Y024386D01*
X043787Y024246D01*
X043932Y024098D01*
X044070Y023943D01*
X044199Y023781D01*
X044321Y023614D01*
X044435Y023440D01*
X044539Y023262D01*
X044635Y023078D01*
X044722Y022890D01*
X044800Y022698D01*
X044868Y022502D01*
X044927Y022303D01*
X044975Y022102D01*
X045014Y021898D01*
X045043Y021693D01*
X045062Y021487D01*
X045070Y021280D01*
X045069Y021073D01*
X045057Y020866D01*
X045036Y020660D01*
X045004Y020455D01*
X044962Y020252D01*
X044911Y020051D01*
X044850Y019854D01*
X044779Y019659D01*
X044698Y019468D01*
X044609Y019281D01*
X044510Y019099D01*
X044403Y018922D01*
X044287Y018750D01*
X044163Y018584D01*
X044031Y018424D01*
X043891Y018271D01*
X043744Y018125D01*
X043590Y017987D01*
X043430Y017856D01*
X043263Y017733D01*
X043090Y017618D01*
X042912Y017512D01*
X042729Y017415D01*
X042542Y017327D01*
X042350Y017248D01*
X042155Y017178D01*
X041957Y017118D01*
X041756Y017068D01*
X041553Y017028D01*
X041348Y016998D01*
X041142Y016977D01*
X040935Y016967D01*
X040727Y016967D01*
X040520Y016977D01*
X040314Y016998D01*
X040109Y017028D01*
X039906Y017068D01*
X039705Y017118D01*
X039507Y017178D01*
X039312Y017248D01*
X039120Y017327D01*
X038933Y017415D01*
X038750Y017512D01*
X038572Y017618D01*
X038399Y017733D01*
X038232Y017856D01*
X038072Y017987D01*
X037918Y018125D01*
X037771Y018271D01*
X037631Y018424D01*
X037499Y018584D01*
X037375Y018750D01*
X037259Y018922D01*
X037152Y019099D01*
X037053Y019281D01*
X036964Y019468D01*
X036883Y019659D01*
X036812Y019854D01*
X036751Y020051D01*
X036700Y020252D01*
X036658Y020455D01*
X036626Y020660D01*
X036605Y020866D01*
X036593Y021073D01*
X036592Y021280D01*
X036600Y021487D01*
X036619Y021693D01*
X036648Y021898D01*
X036687Y022102D01*
X036735Y022303D01*
X036794Y022502D01*
X036862Y022698D01*
X036940Y022890D01*
X037027Y023078D01*
X037123Y023262D01*
X037227Y023440D01*
X037341Y023614D01*
X037463Y023781D01*
X037592Y023943D01*
X037730Y024098D01*
X037875Y024246D01*
X038027Y024386D01*
X038186Y024520D01*
X038351Y024645D01*
X038522Y024762D01*
X038698Y024870D01*
X038880Y024970D01*
X039066Y025061D01*
X039256Y025143D01*
X035664Y026703D02*
X035666Y026718D01*
X035672Y026731D01*
X035681Y026743D01*
X035692Y026752D01*
X035706Y026758D01*
X035721Y026760D01*
X035736Y026758D01*
X035749Y026752D01*
X035761Y026743D01*
X035770Y026732D01*
X035776Y026718D01*
X035778Y026703D01*
X035776Y026688D01*
X035770Y026675D01*
X035761Y026663D01*
X035750Y026654D01*
X035736Y026648D01*
X035721Y026646D01*
X035706Y026648D01*
X035693Y026654D01*
X035681Y026663D01*
X035672Y026674D01*
X035666Y026688D01*
X035664Y026703D01*
X022031Y028008D02*
X022031Y028813D01*
X021681Y029613D02*
X019981Y029613D01*
X019631Y028813D02*
X019631Y028020D01*
X020131Y028413D02*
X020133Y028465D01*
X020139Y028517D01*
X020149Y028569D01*
X020162Y028619D01*
X020179Y028669D01*
X020200Y028717D01*
X020225Y028763D01*
X020253Y028807D01*
X020284Y028849D01*
X020318Y028889D01*
X020355Y028926D01*
X020395Y028960D01*
X020437Y028991D01*
X020481Y029019D01*
X020527Y029044D01*
X020575Y029065D01*
X020625Y029082D01*
X020675Y029095D01*
X020727Y029105D01*
X020779Y029111D01*
X020831Y029113D01*
X020883Y029111D01*
X020935Y029105D01*
X020987Y029095D01*
X021037Y029082D01*
X021087Y029065D01*
X021135Y029044D01*
X021181Y029019D01*
X021225Y028991D01*
X021267Y028960D01*
X021307Y028926D01*
X021344Y028889D01*
X021378Y028849D01*
X021409Y028807D01*
X021437Y028763D01*
X021462Y028717D01*
X021483Y028669D01*
X021500Y028619D01*
X021513Y028569D01*
X021523Y028517D01*
X021529Y028465D01*
X021531Y028413D01*
X021529Y028361D01*
X021523Y028309D01*
X021513Y028257D01*
X021500Y028207D01*
X021483Y028157D01*
X021462Y028109D01*
X021437Y028063D01*
X021409Y028019D01*
X021378Y027977D01*
X021344Y027937D01*
X021307Y027900D01*
X021267Y027866D01*
X021225Y027835D01*
X021181Y027807D01*
X021135Y027782D01*
X021087Y027761D01*
X021037Y027744D01*
X020987Y027731D01*
X020935Y027721D01*
X020883Y027715D01*
X020831Y027713D01*
X020779Y027715D01*
X020727Y027721D01*
X020675Y027731D01*
X020625Y027744D01*
X020575Y027761D01*
X020527Y027782D01*
X020481Y027807D01*
X020437Y027835D01*
X020395Y027866D01*
X020355Y027900D01*
X020318Y027937D01*
X020284Y027977D01*
X020253Y028019D01*
X020225Y028063D01*
X020200Y028109D01*
X020179Y028157D01*
X020162Y028207D01*
X020149Y028257D01*
X020139Y028309D01*
X020133Y028361D01*
X020131Y028413D01*
X019981Y027213D02*
X021681Y027213D01*
X015236Y027842D02*
X013425Y027842D01*
X013425Y028019D01*
X013425Y028807D02*
X013425Y028984D01*
X015236Y028984D01*
X015236Y028807D01*
X014725Y028807D02*
X014725Y028019D01*
X015236Y028019D02*
X015236Y027842D01*
X012079Y028059D02*
X012079Y026641D01*
X011016Y026641D01*
X010071Y026641D02*
X007748Y026641D01*
X007748Y030185D01*
X012079Y030185D01*
X012079Y028767D01*
X009687Y026202D02*
X009687Y021624D01*
X007975Y021624D01*
X007975Y026202D01*
X009687Y026202D01*
D13*
X038131Y027213D02*
X038281Y027213D01*
X038331Y027613D02*
X038131Y027613D01*
D14*
X038346Y027613D03*
X038346Y027213D03*
D15*
X008733Y008815D02*
X008733Y006011D01*
X011929Y006011D01*
X011929Y008815D01*
X008733Y008815D01*
X010733Y011011D02*
X010733Y013815D01*
X013929Y013815D01*
X013929Y011011D01*
X010733Y011011D01*
X013233Y008815D02*
X013233Y006011D01*
X016429Y006011D01*
X016429Y008815D01*
X013233Y008815D01*
X015733Y011011D02*
X015733Y013815D01*
X018929Y013815D01*
X018929Y011011D01*
X015733Y011011D01*
X018733Y008815D02*
X018733Y006011D01*
X021929Y006011D01*
X021929Y008815D01*
X018733Y008815D01*
X020233Y011011D02*
X020233Y013815D01*
X023429Y013815D01*
X023429Y011011D01*
X020233Y011011D01*
X023733Y008815D02*
X023733Y006011D01*
X026929Y006011D01*
X026929Y008815D01*
X023733Y008815D01*
X027233Y008815D02*
X027233Y006011D01*
X030429Y006011D01*
X030429Y008815D01*
X027233Y008815D01*
X030733Y008815D02*
X030733Y006011D01*
X033929Y006011D01*
X033929Y008815D01*
X030733Y008815D01*
X034233Y008815D02*
X034233Y006011D01*
X037429Y006011D01*
X037429Y008815D01*
X034233Y008815D01*
X037733Y008815D02*
X037733Y006011D01*
X040929Y006011D01*
X040929Y008815D01*
X037733Y008815D01*
X041233Y008815D02*
X041233Y006011D01*
X044429Y006011D01*
X044429Y008815D01*
X041233Y008815D01*
M02*
