G75*
G70*
%OFA0B0*%
%FSLAX24Y24*%
%IPPOS*%
%LPD*%
%AMOC8*
5,1,8,0,0,1.08239X$1,22.5*
%
%ADD10C,0.0640*%
%ADD11R,0.0720X0.0720*%
%ADD12OC8,0.0720*%
%ADD13R,0.0950X0.0320*%
%ADD14C,0.0640*%
%ADD15R,0.0474X0.0631*%
%ADD16C,0.0848*%
%ADD17R,0.0792X0.0792*%
%ADD18C,0.0820*%
%ADD19R,0.0710X0.0789*%
%ADD20C,0.0400*%
%ADD21R,0.0580X0.0659*%
%ADD22R,0.0556X0.0556*%
D10*
X028551Y014913D02*
X029111Y014913D01*
X029111Y015913D02*
X028551Y015913D01*
X028551Y016913D02*
X029111Y016913D01*
X029111Y017913D02*
X028551Y017913D01*
X028551Y018913D02*
X029111Y018913D01*
X029111Y019913D02*
X028551Y019913D01*
X028551Y020913D02*
X029111Y020913D01*
X029111Y021913D02*
X028551Y021913D01*
X028551Y022913D02*
X029111Y022913D01*
X029111Y023913D02*
X028551Y023913D01*
X028551Y024913D02*
X029111Y024913D01*
X029111Y025913D02*
X028551Y025913D01*
X028551Y026913D02*
X029111Y026913D01*
X029111Y027913D02*
X028551Y027913D01*
X031551Y027913D02*
X032111Y027913D01*
X032111Y026913D02*
X031551Y026913D01*
X031551Y025913D02*
X032111Y025913D01*
X032111Y024913D02*
X031551Y024913D01*
X031551Y023913D02*
X032111Y023913D01*
X032111Y022913D02*
X031551Y022913D01*
X031551Y021913D02*
X032111Y021913D01*
X032111Y020913D02*
X031551Y020913D01*
X031551Y019913D02*
X032111Y019913D01*
X032111Y018913D02*
X031551Y018913D01*
X031551Y017913D02*
X032111Y017913D01*
X032111Y016913D02*
X031551Y016913D01*
X031551Y015913D02*
X032111Y015913D01*
X032111Y014913D02*
X031551Y014913D01*
D11*
X033831Y019913D03*
D12*
X034831Y019913D03*
X035831Y019913D03*
X035831Y020913D03*
X034831Y020913D03*
X033831Y020913D03*
D13*
X034301Y026663D03*
X034301Y027163D03*
X034301Y027663D03*
X034301Y028163D03*
X036361Y028163D03*
X036361Y027663D03*
X036361Y027163D03*
X036361Y026663D03*
D14*
X037831Y026913D03*
X037831Y027913D03*
D15*
X021705Y020346D03*
X020957Y020346D03*
X021331Y019480D03*
X019205Y016846D03*
X018457Y016846D03*
X018831Y015980D03*
X015831Y019480D03*
X016205Y020346D03*
X015457Y020346D03*
X013205Y016846D03*
X012457Y016846D03*
X012831Y015980D03*
X010205Y017846D03*
X009457Y017846D03*
X009831Y016980D03*
X024457Y011846D03*
X025205Y011846D03*
X024831Y010980D03*
X027457Y012346D03*
X028205Y012346D03*
X027831Y011480D03*
X030457Y012346D03*
X031205Y012346D03*
X030831Y011480D03*
X033457Y012346D03*
X034205Y012346D03*
X033831Y011480D03*
X036831Y012480D03*
X037205Y013346D03*
X036457Y013346D03*
X039457Y013346D03*
X040205Y013346D03*
X039831Y012480D03*
X042457Y013346D03*
X043205Y013346D03*
X042831Y012480D03*
D16*
X040831Y017663D03*
X040831Y025537D03*
X011725Y028413D03*
X009441Y028413D03*
X010544Y026523D03*
D17*
X009634Y007413D03*
X011036Y007413D03*
X014134Y007413D03*
X015536Y007413D03*
X019634Y007413D03*
X021036Y007413D03*
X024634Y007413D03*
X026036Y007413D03*
X028134Y007413D03*
X029536Y007413D03*
X031634Y007413D03*
X033036Y007413D03*
X035134Y007413D03*
X036536Y007413D03*
X038634Y007413D03*
X040036Y007413D03*
X042134Y007413D03*
X043536Y007413D03*
X022536Y012413D03*
X021134Y012413D03*
X018036Y012413D03*
X016634Y012413D03*
X013036Y012413D03*
X011634Y012413D03*
D18*
X008831Y022843D03*
X008831Y023913D03*
X008831Y024983D03*
X019551Y027523D03*
X019551Y029303D03*
X022111Y029303D03*
X022111Y027523D03*
D19*
X023530Y029413D03*
X024632Y029413D03*
X027280Y029413D03*
X028382Y029413D03*
X026882Y020913D03*
X025780Y020913D03*
D20*
X033081Y024913D03*
X033081Y028913D03*
D21*
X015177Y028413D03*
X013485Y028413D03*
D22*
X013331Y029413D03*
X013331Y025913D03*
X011831Y025913D03*
X015331Y024413D03*
X016831Y023413D03*
X017581Y022663D03*
X019331Y021862D03*
X021081Y021163D03*
X021831Y021163D03*
X024831Y018913D03*
X027831Y020663D03*
X030331Y022913D03*
X034081Y026163D03*
X035331Y025913D03*
X036331Y028913D03*
X039831Y020413D03*
X037831Y017413D03*
X036024Y015913D03*
X036132Y014555D03*
X035581Y013413D03*
X038581Y013413D03*
X041581Y013413D03*
X032581Y012413D03*
X029581Y012413D03*
X028831Y012413D03*
X026581Y012413D03*
X026280Y013464D03*
X023831Y012163D03*
X024831Y015913D03*
X018331Y017663D03*
X015581Y021163D03*
X012331Y017663D03*
X009331Y018663D03*
X018081Y025663D03*
X019081Y025663D03*
M02*
