G75*
G70*
%OFA0B0*%
%FSLAX24Y24*%
%IPPOS*%
%LPD*%
%AMOC8*
5,1,8,0,0,1.08239X$1,22.5*
%
%ADD10C,0.0000*%
%ADD11C,0.0051*%
%ADD12C,0.0110*%
%ADD13C,0.0560*%
%ADD14R,0.0640X0.0640*%
%ADD15OC8,0.0640*%
%ADD16R,0.0870X0.0240*%
%ADD17C,0.0560*%
%ADD18R,0.0394X0.0551*%
%ADD19C,0.0768*%
%ADD20R,0.0712X0.0712*%
%ADD21C,0.0740*%
%ADD22R,0.0630X0.0709*%
%ADD23R,0.0500X0.0579*%
%ADD24R,0.0476X0.0476*%
%ADD25C,0.0240*%
%ADD26C,0.0160*%
%ADD27C,0.0320*%
%ADD28C,0.0120*%
D10*
X007831Y005413D02*
X007831Y030783D01*
X045323Y030783D01*
X045323Y005413D01*
X007831Y005413D01*
D11*
X006875Y004326D02*
X013162Y004326D01*
X013162Y-000961D01*
X013162Y-000174D02*
X014186Y-000276D01*
X014186Y-000300D02*
X013162Y-000174D01*
X014186Y-000072D01*
X014186Y-000048D02*
X014186Y-000300D01*
X014186Y-000225D02*
X013162Y-000174D01*
X014186Y-000123D01*
X014186Y-000048D02*
X013162Y-000174D01*
X050662Y-000174D01*
X049638Y-000276D01*
X049638Y-000300D02*
X050662Y-000174D01*
X049638Y-000072D01*
X049638Y-000048D02*
X049638Y-000300D01*
X049638Y-000225D02*
X050662Y-000174D01*
X049638Y-000123D01*
X049638Y-000048D02*
X050662Y-000174D01*
X050662Y-000961D02*
X050662Y004326D01*
X007788Y005350D02*
X007662Y004326D01*
X007764Y005350D01*
X007788Y005350D02*
X007536Y005350D01*
X007662Y004326D01*
X007560Y005350D01*
X007611Y005350D02*
X007662Y004326D01*
X007713Y005350D01*
X007662Y004326D02*
X007662Y029826D01*
X007764Y028802D01*
X007788Y028802D02*
X007662Y029826D01*
X007560Y028802D01*
X007536Y028802D02*
X007788Y028802D01*
X007713Y028802D02*
X007662Y029826D01*
X007611Y028802D01*
X007536Y028802D02*
X007662Y029826D01*
X006875Y029826D02*
X013162Y029826D01*
D12*
X007213Y022075D02*
X006579Y022075D01*
X006367Y021863D01*
X006367Y021440D01*
X006579Y021229D01*
X007213Y021229D02*
X005944Y021229D01*
X006367Y020806D02*
X006367Y020171D01*
X006579Y019960D01*
X007002Y019960D01*
X007213Y020171D01*
X007213Y020806D01*
X007213Y019537D02*
X006579Y019537D01*
X006367Y019325D01*
X006367Y018691D01*
X007213Y018691D01*
X007213Y018268D02*
X007213Y017845D01*
X007213Y018057D02*
X006367Y018057D01*
X006367Y017845D01*
X005944Y018057D02*
X005733Y018057D01*
X005944Y017422D02*
X005944Y016576D01*
X006579Y016576D01*
X006367Y016999D01*
X006367Y017211D01*
X006579Y017422D01*
X007002Y017422D01*
X007213Y017211D01*
X007213Y016788D01*
X007002Y016576D01*
X007002Y016153D02*
X006579Y016153D01*
X006367Y015942D01*
X006367Y015730D01*
X006579Y015307D01*
X005944Y015307D01*
X005944Y016153D01*
X007002Y016153D02*
X007213Y015942D01*
X007213Y015519D01*
X007002Y015307D01*
X007002Y014885D02*
X007213Y014885D01*
X007213Y014673D01*
X007002Y014673D01*
X007002Y014885D01*
X007213Y014250D02*
X007213Y013404D01*
X006367Y014250D01*
X006156Y014250D01*
X005944Y014039D01*
X005944Y013616D01*
X006156Y013404D01*
X028240Y001332D02*
X028452Y001544D01*
X028875Y001544D01*
X029086Y001332D01*
X029086Y001121D01*
X028875Y000909D01*
X029086Y000698D01*
X029086Y000486D01*
X028875Y000275D01*
X028452Y000275D01*
X028240Y000486D01*
X028663Y000909D02*
X028875Y000909D01*
X029509Y000486D02*
X029721Y000486D01*
X029721Y000275D01*
X029509Y000275D01*
X029509Y000486D01*
X030143Y000486D02*
X030143Y000275D01*
X030143Y000486D02*
X030989Y001332D01*
X030989Y001544D01*
X030143Y001544D01*
X031412Y001544D02*
X031412Y000909D01*
X031835Y001121D01*
X032047Y001121D01*
X032258Y000909D01*
X032258Y000486D01*
X032047Y000275D01*
X031624Y000275D01*
X031412Y000486D01*
X031412Y001544D02*
X032258Y001544D01*
X032681Y001121D02*
X032893Y001121D01*
X032893Y000275D01*
X033104Y000275D02*
X032681Y000275D01*
X033527Y000275D02*
X033527Y001121D01*
X034161Y001121D01*
X034373Y000909D01*
X034373Y000275D01*
X034796Y000486D02*
X035007Y000275D01*
X035642Y000275D01*
X036064Y000275D02*
X036064Y001544D01*
X036276Y001121D02*
X036699Y001121D01*
X036911Y000909D01*
X036911Y000275D01*
X036276Y001121D02*
X036064Y000909D01*
X035642Y001121D02*
X035007Y001121D01*
X034796Y000909D01*
X034796Y000486D01*
X032893Y001544D02*
X032893Y001755D01*
D13*
X032111Y014913D02*
X031551Y014913D01*
X031551Y015913D02*
X032111Y015913D01*
X032111Y016913D02*
X031551Y016913D01*
X031551Y017913D02*
X032111Y017913D01*
X032111Y018913D02*
X031551Y018913D01*
X031551Y019913D02*
X032111Y019913D01*
X032111Y020913D02*
X031551Y020913D01*
X031551Y021913D02*
X032111Y021913D01*
X032111Y022913D02*
X031551Y022913D01*
X031551Y023913D02*
X032111Y023913D01*
X032111Y024913D02*
X031551Y024913D01*
X031551Y025913D02*
X032111Y025913D01*
X032111Y026913D02*
X031551Y026913D01*
X031551Y027913D02*
X032111Y027913D01*
X029111Y027913D02*
X028551Y027913D01*
X028551Y026913D02*
X029111Y026913D01*
X029111Y025913D02*
X028551Y025913D01*
X028551Y024913D02*
X029111Y024913D01*
X029111Y023913D02*
X028551Y023913D01*
X028551Y022913D02*
X029111Y022913D01*
X029111Y021913D02*
X028551Y021913D01*
X028551Y020913D02*
X029111Y020913D01*
X029111Y019913D02*
X028551Y019913D01*
X028551Y018913D02*
X029111Y018913D01*
X029111Y017913D02*
X028551Y017913D01*
X028551Y016913D02*
X029111Y016913D01*
X029111Y015913D02*
X028551Y015913D01*
X028551Y014913D02*
X029111Y014913D01*
D14*
X033831Y019913D03*
D15*
X034831Y019913D03*
X035831Y019913D03*
X035831Y020913D03*
X034831Y020913D03*
X033831Y020913D03*
D16*
X034301Y026663D03*
X034301Y027163D03*
X034301Y027663D03*
X034301Y028163D03*
X036361Y028163D03*
X036361Y027663D03*
X036361Y027163D03*
X036361Y026663D03*
D17*
X037831Y026913D03*
X037831Y027913D03*
D18*
X021705Y020346D03*
X020957Y020346D03*
X021331Y019480D03*
X019205Y016846D03*
X018457Y016846D03*
X018831Y015980D03*
X015831Y019480D03*
X016205Y020346D03*
X015457Y020346D03*
X013205Y016846D03*
X012457Y016846D03*
X012831Y015980D03*
X010205Y017846D03*
X009457Y017846D03*
X009831Y016980D03*
X024457Y011846D03*
X025205Y011846D03*
X024831Y010980D03*
X027457Y012346D03*
X028205Y012346D03*
X027831Y011480D03*
X030457Y012346D03*
X031205Y012346D03*
X030831Y011480D03*
X033457Y012346D03*
X034205Y012346D03*
X033831Y011480D03*
X036831Y012480D03*
X037205Y013346D03*
X036457Y013346D03*
X039457Y013346D03*
X040205Y013346D03*
X039831Y012480D03*
X042457Y013346D03*
X043205Y013346D03*
X042831Y012480D03*
D19*
X040831Y017663D03*
X040831Y025537D03*
X011725Y028413D03*
X009441Y028413D03*
X010544Y026523D03*
D20*
X011634Y012413D03*
X013036Y012413D03*
X016634Y012413D03*
X018036Y012413D03*
X021134Y012413D03*
X022536Y012413D03*
X021036Y007413D03*
X019634Y007413D03*
X015536Y007413D03*
X014134Y007413D03*
X011036Y007413D03*
X009634Y007413D03*
X024634Y007413D03*
X026036Y007413D03*
X028134Y007413D03*
X029536Y007413D03*
X031634Y007413D03*
X033036Y007413D03*
X035134Y007413D03*
X036536Y007413D03*
X038634Y007413D03*
X040036Y007413D03*
X042134Y007413D03*
X043536Y007413D03*
D21*
X033081Y024913D03*
X033081Y028913D03*
X022111Y029303D03*
X022111Y027523D03*
X019551Y027523D03*
X019551Y029303D03*
X008831Y024983D03*
X008831Y023913D03*
X008831Y022843D03*
D22*
X023530Y029413D03*
X024632Y029413D03*
X027280Y029413D03*
X028382Y029413D03*
X026882Y020913D03*
X025780Y020913D03*
D23*
X015177Y028413D03*
X013485Y028413D03*
D24*
X013331Y029413D03*
X013331Y025913D03*
X011831Y025913D03*
X015331Y024413D03*
X016831Y023413D03*
X017581Y022663D03*
X019331Y021862D03*
X021081Y021163D03*
X021831Y021163D03*
X024831Y018913D03*
X027831Y020663D03*
X030331Y022913D03*
X034081Y026163D03*
X035331Y025913D03*
X036331Y028913D03*
X039831Y020413D03*
X037831Y017413D03*
X036024Y015913D03*
X036132Y014555D03*
X035581Y013413D03*
X038581Y013413D03*
X041581Y013413D03*
X032581Y012413D03*
X029581Y012413D03*
X028831Y012413D03*
X026581Y012413D03*
X026280Y013464D03*
X023831Y012163D03*
X024831Y015913D03*
X018331Y017663D03*
X015581Y021163D03*
X012331Y017663D03*
X009331Y018663D03*
X018081Y025663D03*
X019081Y025663D03*
D25*
X019759Y025721D02*
X019759Y025988D01*
X019692Y026150D01*
X019568Y026274D01*
X019406Y026341D01*
X018756Y026341D01*
X018594Y026274D01*
X018581Y026261D01*
X018568Y026274D01*
X018406Y026341D01*
X017756Y026341D01*
X017594Y026274D01*
X017470Y026150D01*
X017403Y025988D01*
X017403Y025338D01*
X017470Y025176D01*
X017594Y025052D01*
X017756Y024985D01*
X018023Y024985D01*
X021168Y021841D01*
X020756Y021841D01*
X020594Y021774D01*
X020470Y021650D01*
X020403Y021488D01*
X020403Y021165D01*
X020397Y021150D01*
X020397Y020881D01*
X020387Y020871D01*
X020320Y020709D01*
X020320Y019983D01*
X020387Y019821D01*
X020511Y019697D01*
X020673Y019630D01*
X020694Y019630D01*
X020694Y019117D01*
X020761Y018955D01*
X020811Y018905D01*
X020811Y018810D01*
X020890Y018618D01*
X021036Y018472D01*
X021228Y018393D01*
X021271Y018393D01*
X021271Y016645D01*
X019159Y014533D01*
X019074Y014328D01*
X019074Y008161D01*
X019029Y008142D01*
X018905Y008018D01*
X018838Y007857D01*
X018838Y006969D01*
X018905Y006808D01*
X019029Y006684D01*
X019190Y006617D01*
X020078Y006617D01*
X020240Y006684D01*
X020363Y006808D01*
X020430Y006969D01*
X020430Y007857D01*
X020363Y008018D01*
X020240Y008142D01*
X020194Y008161D01*
X020194Y013984D01*
X022148Y015938D01*
X022306Y016096D01*
X022391Y016302D01*
X022391Y019024D01*
X022306Y019230D01*
X022148Y019388D01*
X021968Y019462D01*
X021968Y019630D01*
X021989Y019630D01*
X022151Y019697D01*
X022275Y019821D01*
X022342Y019983D01*
X022342Y020347D01*
X022351Y020369D01*
X022351Y020585D01*
X022387Y020621D01*
X022536Y020472D01*
X022728Y020393D01*
X025057Y020393D01*
X025092Y020309D01*
X025216Y020186D01*
X025377Y020119D01*
X025831Y020119D01*
X025831Y014091D01*
X025793Y014075D01*
X025669Y013951D01*
X025628Y013852D01*
X025351Y014128D01*
X025351Y015335D01*
X025442Y015426D01*
X025509Y015588D01*
X025509Y016238D01*
X025442Y016400D01*
X025318Y016524D01*
X025156Y016591D01*
X024506Y016591D01*
X024351Y016527D01*
X024351Y018092D01*
X024638Y018235D01*
X025156Y018235D01*
X025318Y018302D01*
X025442Y018426D01*
X025509Y018588D01*
X025509Y019238D01*
X025442Y019400D01*
X025318Y019524D01*
X025156Y019591D01*
X024506Y019591D01*
X024344Y019524D01*
X024220Y019400D01*
X024153Y019238D01*
X024153Y019155D01*
X023615Y018886D01*
X023536Y018854D01*
X023523Y018840D01*
X023506Y018832D01*
X023450Y018768D01*
X023390Y018708D01*
X023383Y018690D01*
X023370Y018676D01*
X023343Y018595D01*
X023311Y018516D01*
X023311Y018497D01*
X023305Y018479D01*
X023311Y018395D01*
X023311Y013117D01*
X023390Y012926D01*
X023484Y012832D01*
X023344Y012774D01*
X023220Y012650D01*
X023153Y012488D01*
X023153Y011838D01*
X023220Y011676D01*
X023344Y011552D01*
X023506Y011485D01*
X023717Y011485D01*
X023831Y011371D01*
X023874Y011353D01*
X023887Y011321D01*
X024011Y011197D01*
X024173Y011130D01*
X024194Y011130D01*
X024194Y010973D01*
X022914Y010973D01*
X022266Y011837D01*
X022536Y011837D01*
X022921Y011837D01*
X022977Y011852D01*
X023027Y011881D01*
X023068Y011922D01*
X023097Y011972D01*
X023112Y012028D01*
X023112Y012413D01*
X023112Y012798D01*
X023097Y012854D01*
X023068Y012904D01*
X023027Y012945D01*
X022977Y012974D01*
X022921Y012989D01*
X022536Y012989D01*
X022536Y012413D01*
X023112Y012413D01*
X022536Y012413D01*
X022536Y012413D01*
X022536Y012413D01*
X022536Y011837D01*
X022536Y012413D01*
X022536Y012413D01*
X022536Y012989D01*
X022151Y012989D01*
X022095Y012974D01*
X022044Y012945D01*
X022003Y012904D01*
X021974Y012854D01*
X021959Y012798D01*
X021959Y012413D01*
X022536Y012413D01*
X021959Y012413D01*
X021959Y012246D01*
X021930Y012285D01*
X021930Y012857D01*
X021863Y013018D01*
X021740Y013142D01*
X021578Y013209D01*
X020690Y013209D01*
X020529Y013142D01*
X020405Y013018D01*
X020338Y012857D01*
X020338Y011969D01*
X020405Y011808D01*
X020529Y011684D01*
X020690Y011617D01*
X021031Y011617D01*
X022144Y010133D01*
X022159Y010096D01*
X022210Y010045D01*
X022253Y009988D01*
X022288Y009967D01*
X022317Y009938D01*
X022383Y009911D01*
X022445Y009874D01*
X022485Y009869D01*
X022523Y009853D01*
X022594Y009853D01*
X022665Y009843D01*
X022705Y009853D01*
X024942Y009853D01*
X025148Y009938D01*
X025306Y010096D01*
X025391Y010302D01*
X025391Y010445D01*
X025401Y010455D01*
X025468Y010617D01*
X025468Y011130D01*
X025489Y011130D01*
X025651Y011197D01*
X025775Y011321D01*
X025842Y011483D01*
X025842Y011913D01*
X025983Y011913D01*
X026094Y011802D01*
X026256Y011735D01*
X026906Y011735D01*
X026954Y011755D01*
X027011Y011697D01*
X027173Y011630D01*
X027194Y011630D01*
X027194Y011462D01*
X027014Y011388D01*
X024514Y008888D01*
X024356Y008730D01*
X024271Y008524D01*
X024271Y008209D01*
X024190Y008209D01*
X024029Y008142D01*
X023905Y008018D01*
X023838Y007857D01*
X023838Y006969D01*
X023905Y006808D01*
X024029Y006684D01*
X024190Y006617D01*
X025078Y006617D01*
X025240Y006684D01*
X025363Y006808D01*
X025430Y006969D01*
X025430Y007857D01*
X025391Y007952D01*
X025391Y008181D01*
X027563Y010353D01*
X027942Y010353D01*
X028148Y010438D01*
X028306Y010596D01*
X028391Y010802D01*
X028391Y010945D01*
X028401Y010955D01*
X028468Y011117D01*
X028468Y011630D01*
X028489Y011630D01*
X028651Y011697D01*
X028689Y011735D01*
X029156Y011735D01*
X029206Y011756D01*
X029256Y011735D01*
X029906Y011735D01*
X029954Y011755D01*
X030011Y011697D01*
X030173Y011630D01*
X030194Y011630D01*
X030194Y011117D01*
X030208Y011082D01*
X027659Y008533D01*
X027574Y008328D01*
X027574Y008161D01*
X027529Y008142D01*
X027405Y008018D01*
X027338Y007857D01*
X027338Y006969D01*
X027405Y006808D01*
X027529Y006684D01*
X027690Y006617D01*
X028578Y006617D01*
X028740Y006684D01*
X028863Y006808D01*
X028930Y006969D01*
X028930Y007857D01*
X028863Y008018D01*
X028796Y008086D01*
X031306Y010596D01*
X031391Y010802D01*
X031391Y010945D01*
X031401Y010955D01*
X031468Y011117D01*
X031468Y011630D01*
X031489Y011630D01*
X031651Y011697D01*
X031775Y011821D01*
X031813Y011913D01*
X031983Y011913D01*
X032094Y011802D01*
X032256Y011735D01*
X032906Y011735D01*
X032954Y011755D01*
X033011Y011697D01*
X033173Y011630D01*
X033194Y011630D01*
X033194Y011117D01*
X033261Y010955D01*
X033271Y010945D01*
X033271Y010645D01*
X031514Y008888D01*
X031356Y008730D01*
X031271Y008524D01*
X031271Y008209D01*
X031190Y008209D01*
X031029Y008142D01*
X030905Y008018D01*
X030838Y007857D01*
X030838Y006969D01*
X030905Y006808D01*
X031029Y006684D01*
X031190Y006617D01*
X032078Y006617D01*
X032240Y006684D01*
X032363Y006808D01*
X032430Y006969D01*
X032430Y007857D01*
X032391Y007952D01*
X032391Y008181D01*
X034306Y010096D01*
X034391Y010302D01*
X034391Y010945D01*
X034401Y010955D01*
X034468Y011117D01*
X034468Y011630D01*
X034489Y011630D01*
X034651Y011697D01*
X034775Y011821D01*
X034813Y011913D01*
X036271Y011913D01*
X036271Y010145D01*
X034659Y008533D01*
X034574Y008328D01*
X034574Y008161D01*
X034529Y008142D01*
X034405Y008018D01*
X034338Y007857D01*
X034338Y006969D01*
X034405Y006808D01*
X034529Y006684D01*
X034690Y006617D01*
X035578Y006617D01*
X035740Y006684D01*
X035863Y006808D01*
X035930Y006969D01*
X035930Y007857D01*
X035863Y008018D01*
X035796Y008086D01*
X037148Y009438D01*
X037306Y009596D01*
X037391Y009802D01*
X037391Y011913D01*
X039271Y011913D01*
X039271Y009645D01*
X038514Y008888D01*
X038356Y008730D01*
X038271Y008524D01*
X038271Y008209D01*
X038190Y008209D01*
X038029Y008142D01*
X037905Y008018D01*
X037838Y007857D01*
X037838Y006969D01*
X037905Y006808D01*
X038029Y006684D01*
X038190Y006617D01*
X039078Y006617D01*
X039240Y006684D01*
X039363Y006808D01*
X039430Y006969D01*
X039430Y007857D01*
X039391Y007952D01*
X039391Y008181D01*
X040306Y009096D01*
X040391Y009302D01*
X040391Y011913D01*
X042039Y011913D01*
X041659Y011533D01*
X041574Y011328D01*
X041574Y008161D01*
X041529Y008142D01*
X041405Y008018D01*
X041338Y007857D01*
X041338Y006969D01*
X041405Y006808D01*
X041529Y006684D01*
X041690Y006617D01*
X042578Y006617D01*
X042740Y006684D01*
X042863Y006808D01*
X042930Y006969D01*
X042930Y007857D01*
X042863Y008018D01*
X042740Y008142D01*
X042694Y008161D01*
X042694Y010984D01*
X043306Y011596D01*
X043391Y011802D01*
X043391Y011913D01*
X044883Y011913D01*
X044883Y005853D01*
X008271Y005853D01*
X008271Y022257D01*
X008372Y022156D01*
X008670Y022033D01*
X008992Y022033D01*
X009290Y022156D01*
X009518Y022384D01*
X009641Y022682D01*
X009641Y023004D01*
X009518Y023302D01*
X009441Y023378D01*
X009456Y023393D01*
X011434Y023393D01*
X011626Y023472D01*
X011772Y023618D01*
X013389Y025235D01*
X013656Y025235D01*
X013818Y025302D01*
X013942Y025426D01*
X014009Y025588D01*
X014009Y026238D01*
X013942Y026400D01*
X013818Y026524D01*
X013656Y026591D01*
X013006Y026591D01*
X012844Y026524D01*
X012720Y026400D01*
X012653Y026238D01*
X012653Y025971D01*
X012509Y025826D01*
X012509Y026238D01*
X012442Y026400D01*
X012318Y026524D01*
X012156Y026591D01*
X011506Y026591D01*
X011367Y026534D01*
X011367Y026687D01*
X011242Y026990D01*
X011010Y027222D01*
X010707Y027347D01*
X010380Y027347D01*
X010077Y027222D01*
X009845Y026990D01*
X009720Y026687D01*
X009720Y026359D01*
X009845Y026057D01*
X010077Y025825D01*
X010380Y025699D01*
X010707Y025699D01*
X011005Y025823D01*
X010616Y025433D01*
X009521Y025433D01*
X009518Y025442D01*
X009290Y025670D01*
X008992Y025793D01*
X008670Y025793D01*
X008372Y025670D01*
X008271Y025569D01*
X008271Y029360D01*
X012653Y029360D01*
X012653Y029088D01*
X012720Y028926D01*
X012813Y028834D01*
X012795Y028790D01*
X012795Y028036D01*
X012861Y027874D01*
X012985Y027751D01*
X013147Y027684D01*
X013822Y027684D01*
X013984Y027751D01*
X014108Y027874D01*
X014175Y028036D01*
X014175Y028790D01*
X014108Y028952D01*
X014085Y028975D01*
X014085Y029379D01*
X014009Y029562D01*
X014009Y029738D01*
X013942Y029900D01*
X013818Y030024D01*
X013656Y030091D01*
X013556Y030091D01*
X013426Y030221D01*
X013255Y030292D01*
X008271Y030292D01*
X008271Y030343D01*
X025831Y030343D01*
X025831Y029933D01*
X025355Y029933D01*
X025320Y030017D01*
X025196Y030140D01*
X025035Y030207D01*
X024230Y030207D01*
X024081Y030146D01*
X023932Y030207D01*
X023127Y030207D01*
X022966Y030140D01*
X022842Y030017D01*
X022807Y029933D01*
X022626Y029933D01*
X022570Y029990D01*
X022272Y030113D01*
X021950Y030113D01*
X021652Y029990D01*
X021525Y029863D01*
X020136Y029863D01*
X020010Y029990D01*
X019712Y030113D01*
X019390Y030113D01*
X019092Y029990D01*
X018864Y029762D01*
X018741Y029464D01*
X018741Y029142D01*
X018864Y028844D01*
X019092Y028616D01*
X019390Y028493D01*
X019712Y028493D01*
X020010Y028616D01*
X020136Y028743D01*
X021525Y028743D01*
X021652Y028616D01*
X021950Y028493D01*
X022272Y028493D01*
X022570Y028616D01*
X022798Y028844D01*
X022813Y028880D01*
X022842Y028809D01*
X022966Y028686D01*
X023127Y028619D01*
X023301Y028619D01*
X022731Y028048D01*
X022570Y028210D01*
X022272Y028333D01*
X021950Y028333D01*
X021652Y028210D01*
X021485Y028043D01*
X020176Y028043D01*
X020010Y028210D01*
X019712Y028333D01*
X019390Y028333D01*
X019092Y028210D01*
X018864Y027982D01*
X018741Y027684D01*
X018741Y027362D01*
X018864Y027064D01*
X019092Y026836D01*
X019390Y026713D01*
X019712Y026713D01*
X020010Y026836D01*
X020176Y027003D01*
X021485Y027003D01*
X021652Y026836D01*
X021950Y026713D01*
X022272Y026713D01*
X022570Y026836D01*
X022736Y027003D01*
X023044Y027003D01*
X023236Y027082D01*
X024348Y028194D01*
X024736Y028194D01*
X024927Y028273D01*
X025073Y028420D01*
X025152Y028611D01*
X025152Y028667D01*
X025196Y028686D01*
X025320Y028809D01*
X025355Y028893D01*
X025831Y028893D01*
X025831Y022183D01*
X023296Y022183D01*
X019759Y025721D01*
X019854Y025625D02*
X025831Y025625D01*
X025831Y025387D02*
X020093Y025387D01*
X020331Y025148D02*
X025831Y025148D01*
X025831Y024910D02*
X020570Y024910D01*
X020808Y024671D02*
X025831Y024671D01*
X025831Y024433D02*
X021047Y024433D01*
X021285Y024194D02*
X025831Y024194D01*
X025831Y023956D02*
X021524Y023956D01*
X021762Y023717D02*
X025831Y023717D01*
X025831Y023479D02*
X022001Y023479D01*
X022239Y023240D02*
X025831Y023240D01*
X025831Y023002D02*
X022478Y023002D01*
X022716Y022763D02*
X025831Y022763D01*
X025831Y022525D02*
X022955Y022525D01*
X023193Y022286D02*
X025831Y022286D01*
X027331Y022286D02*
X028183Y022286D01*
X028207Y022276D02*
X028170Y022239D01*
X028123Y022175D01*
X028088Y022105D01*
X028063Y022030D01*
X028051Y021952D01*
X028051Y021913D01*
X028831Y021913D01*
X029611Y021913D01*
X029611Y021952D01*
X029599Y022030D01*
X029574Y022105D01*
X029539Y022175D01*
X029492Y022239D01*
X029455Y022276D01*
X029519Y022303D01*
X029721Y022505D01*
X029831Y022770D01*
X029831Y023056D01*
X029721Y023321D01*
X029629Y023413D01*
X029721Y023505D01*
X029829Y023766D01*
X029890Y023618D01*
X030036Y023472D01*
X030536Y022972D01*
X030728Y022893D01*
X030831Y022893D01*
X030831Y022770D01*
X030941Y022505D01*
X031033Y022413D01*
X030941Y022321D01*
X030831Y022056D01*
X030831Y021770D01*
X030941Y021505D01*
X031033Y021413D01*
X030941Y021321D01*
X030831Y021056D01*
X030831Y020770D01*
X030941Y020505D01*
X031143Y020303D01*
X031207Y020276D01*
X031170Y020239D01*
X031123Y020175D01*
X031088Y020105D01*
X031063Y020030D01*
X031051Y019952D01*
X031051Y019913D01*
X031831Y019913D01*
X032611Y019913D01*
X032611Y019952D01*
X032599Y020030D01*
X032574Y020105D01*
X032539Y020175D01*
X032492Y020239D01*
X032455Y020276D01*
X032519Y020303D01*
X032721Y020505D01*
X032831Y020770D01*
X032831Y021056D01*
X032721Y021321D01*
X032629Y021413D01*
X032721Y021505D01*
X032831Y021770D01*
X032831Y022056D01*
X032721Y022321D01*
X032629Y022413D01*
X032721Y022505D01*
X032831Y022770D01*
X032831Y022893D01*
X035616Y022893D01*
X036811Y021698D01*
X036811Y021128D01*
X036591Y020908D01*
X036591Y021228D01*
X036146Y021673D01*
X035516Y021673D01*
X035331Y021488D01*
X035146Y021673D01*
X034516Y021673D01*
X034175Y021332D01*
X034055Y021453D01*
X033831Y021453D01*
X033831Y020913D01*
X033831Y020913D01*
X033831Y021453D01*
X033607Y021453D01*
X033291Y021137D01*
X033291Y020913D01*
X033831Y020913D01*
X033831Y020913D01*
X033291Y020913D01*
X033291Y020689D01*
X033341Y020639D01*
X033262Y020606D01*
X033138Y020482D01*
X033071Y020321D01*
X033071Y019505D01*
X033101Y019433D01*
X032609Y019433D01*
X032519Y019523D01*
X032455Y019550D01*
X032492Y019587D01*
X032539Y019651D01*
X032574Y019721D01*
X032599Y019796D01*
X032611Y019874D01*
X032611Y019913D01*
X031831Y019913D01*
X031831Y019913D01*
X031831Y019913D01*
X031051Y019913D01*
X031051Y019874D01*
X031063Y019796D01*
X031088Y019721D01*
X031123Y019651D01*
X031170Y019587D01*
X031207Y019550D01*
X031143Y019523D01*
X030941Y019321D01*
X030831Y019056D01*
X030831Y018770D01*
X030941Y018505D01*
X031033Y018413D01*
X030941Y018321D01*
X030831Y018056D01*
X030831Y017770D01*
X030941Y017505D01*
X031033Y017413D01*
X030941Y017321D01*
X030831Y017056D01*
X030831Y016770D01*
X030941Y016505D01*
X031033Y016413D01*
X030941Y016321D01*
X030831Y016056D01*
X030831Y015770D01*
X030941Y015505D01*
X031033Y015413D01*
X030941Y015321D01*
X030831Y015056D01*
X030831Y014770D01*
X030941Y014505D01*
X031143Y014303D01*
X031408Y014193D01*
X032254Y014193D01*
X032519Y014303D01*
X032721Y014505D01*
X032831Y014770D01*
X032831Y015056D01*
X032721Y015321D01*
X032629Y015413D01*
X032721Y015505D01*
X032831Y015770D01*
X032831Y016056D01*
X032721Y016321D01*
X032629Y016413D01*
X032721Y016505D01*
X032831Y016770D01*
X032831Y017056D01*
X032721Y017321D01*
X032629Y017413D01*
X032721Y017505D01*
X032831Y017770D01*
X032831Y018056D01*
X032721Y018321D01*
X032649Y018393D01*
X034434Y018393D01*
X034626Y018472D01*
X034772Y018618D01*
X035272Y019118D01*
X035351Y019310D01*
X035351Y019318D01*
X035516Y019153D01*
X036146Y019153D01*
X036386Y019393D01*
X036434Y019393D01*
X036626Y019472D01*
X037626Y020472D01*
X037772Y020618D01*
X037851Y020810D01*
X037851Y022016D01*
X037772Y022208D01*
X036272Y023708D01*
X036126Y023854D01*
X035934Y023933D01*
X032831Y023933D01*
X032831Y024056D01*
X032789Y024157D01*
X032920Y024103D01*
X033242Y024103D01*
X033540Y024226D01*
X033706Y024393D01*
X039914Y024393D01*
X039973Y024383D01*
X040016Y024393D01*
X040060Y024393D01*
X040116Y024416D01*
X040175Y024430D01*
X040211Y024455D01*
X040252Y024472D01*
X040294Y024515D01*
X040607Y024738D01*
X040667Y024713D01*
X040995Y024713D01*
X041298Y024839D01*
X041529Y025070D01*
X041655Y025373D01*
X041655Y025701D01*
X041650Y025713D01*
X042414Y025713D01*
X042531Y025830D01*
X042531Y028996D01*
X042414Y029113D01*
X037248Y029113D01*
X037131Y028996D01*
X037131Y028570D01*
X037045Y028656D01*
X037009Y028671D01*
X037009Y029238D01*
X036942Y029400D01*
X036818Y029524D01*
X036656Y029591D01*
X036006Y029591D01*
X035844Y029524D01*
X035720Y029400D01*
X035653Y029238D01*
X035653Y028632D01*
X035553Y028532D01*
X035486Y028371D01*
X035486Y027955D01*
X035504Y027913D01*
X035486Y027871D01*
X035486Y027455D01*
X035504Y027413D01*
X035486Y027371D01*
X035486Y026955D01*
X035553Y026794D01*
X035677Y026670D01*
X035706Y026658D01*
X035706Y026514D01*
X035721Y026458D01*
X035750Y026408D01*
X035791Y026367D01*
X035841Y026338D01*
X035897Y026323D01*
X036361Y026323D01*
X036825Y026323D01*
X036881Y026338D01*
X036931Y026367D01*
X036972Y026408D01*
X037001Y026458D01*
X037016Y026514D01*
X037016Y026643D01*
X037131Y026643D01*
X037131Y025830D01*
X037248Y025713D01*
X040012Y025713D01*
X040007Y025701D01*
X040007Y025588D01*
X039790Y025433D01*
X033706Y025433D01*
X033540Y025600D01*
X033242Y025723D01*
X032920Y025723D01*
X032846Y025692D01*
X033403Y026250D01*
X033403Y025838D01*
X033470Y025676D01*
X033594Y025552D01*
X033756Y025485D01*
X034406Y025485D01*
X034568Y025552D01*
X034692Y025676D01*
X034759Y025838D01*
X034759Y026103D01*
X034823Y026103D01*
X034985Y026170D01*
X035109Y026294D01*
X035176Y026455D01*
X035176Y026871D01*
X035158Y026913D01*
X035176Y026955D01*
X035176Y027371D01*
X035158Y027413D01*
X035176Y027455D01*
X035176Y027871D01*
X035158Y027913D01*
X035176Y027955D01*
X035176Y028371D01*
X035109Y028532D01*
X034985Y028656D01*
X034823Y028723D01*
X033879Y028723D01*
X033891Y028752D01*
X033891Y029074D01*
X033768Y029372D01*
X033540Y029600D01*
X033242Y029723D01*
X032920Y029723D01*
X032622Y029600D01*
X032394Y029372D01*
X032271Y029074D01*
X032271Y028752D01*
X032334Y028600D01*
X032254Y028633D01*
X031408Y028633D01*
X031143Y028523D01*
X030941Y028321D01*
X030831Y028056D01*
X030831Y027770D01*
X030941Y027505D01*
X031033Y027413D01*
X030941Y027321D01*
X030833Y027060D01*
X030772Y027208D01*
X029772Y028208D01*
X029766Y028214D01*
X029721Y028321D01*
X029519Y028523D01*
X029254Y028633D01*
X028846Y028633D01*
X028641Y028839D01*
X028726Y028839D01*
X028782Y028854D01*
X028832Y028883D01*
X028873Y028924D01*
X028902Y028974D01*
X028917Y029030D01*
X028917Y029376D01*
X028420Y029376D01*
X028420Y029450D01*
X028917Y029450D01*
X028917Y029796D01*
X028902Y029852D01*
X028873Y029902D01*
X028832Y029943D01*
X028782Y029972D01*
X028726Y029987D01*
X028420Y029987D01*
X028420Y029450D01*
X028345Y029450D01*
X028345Y029987D01*
X028038Y029987D01*
X027986Y029973D01*
X027968Y030017D01*
X027844Y030140D01*
X027682Y030207D01*
X027331Y030207D01*
X027331Y030343D01*
X044883Y030343D01*
X044883Y017543D01*
X044806Y017730D01*
X044648Y017888D01*
X041648Y020888D01*
X041442Y020973D01*
X040369Y020973D01*
X040318Y021024D01*
X040156Y021091D01*
X039506Y021091D01*
X039344Y021024D01*
X039220Y020900D01*
X039153Y020738D01*
X039153Y020088D01*
X039220Y019926D01*
X039344Y019802D01*
X039506Y019735D01*
X040156Y019735D01*
X040318Y019802D01*
X040369Y019853D01*
X041099Y019853D01*
X043771Y017181D01*
X043771Y013875D01*
X043651Y013995D01*
X043489Y014062D01*
X043225Y014062D01*
X039433Y017854D01*
X039241Y017933D01*
X038409Y017933D01*
X038318Y018024D01*
X038156Y018091D01*
X037506Y018091D01*
X037344Y018024D01*
X037220Y017900D01*
X037153Y017738D01*
X037153Y017088D01*
X037220Y016926D01*
X037344Y016802D01*
X037506Y016735D01*
X038156Y016735D01*
X038318Y016802D01*
X038409Y016893D01*
X038923Y016893D01*
X041725Y014091D01*
X041256Y014091D01*
X041094Y014024D01*
X040970Y013900D01*
X040903Y013738D01*
X040903Y013088D01*
X040970Y012926D01*
X040983Y012913D01*
X040813Y012913D01*
X040842Y012983D01*
X040842Y013709D01*
X040775Y013871D01*
X040651Y013995D01*
X040601Y014015D01*
X040601Y014266D01*
X040522Y014458D01*
X038626Y016354D01*
X038434Y016433D01*
X036602Y016433D01*
X036511Y016524D01*
X036349Y016591D01*
X035699Y016591D01*
X035537Y016524D01*
X035413Y016400D01*
X035346Y016238D01*
X035346Y015588D01*
X035413Y015426D01*
X035537Y015302D01*
X035699Y015235D01*
X036349Y015235D01*
X036511Y015302D01*
X036602Y015393D01*
X038116Y015393D01*
X039447Y014062D01*
X039173Y014062D01*
X039072Y014020D01*
X039068Y014024D01*
X038906Y014091D01*
X038256Y014091D01*
X038094Y014024D01*
X037970Y013900D01*
X037903Y013738D01*
X037903Y013088D01*
X037970Y012926D01*
X037983Y012913D01*
X037813Y012913D01*
X037842Y012983D01*
X037842Y013288D01*
X037851Y013310D01*
X037851Y014016D01*
X037772Y014208D01*
X037626Y014354D01*
X036984Y014996D01*
X036793Y015075D01*
X036710Y015075D01*
X036619Y015166D01*
X036457Y015233D01*
X035807Y015233D01*
X035645Y015166D01*
X035521Y015042D01*
X035454Y014880D01*
X035454Y014229D01*
X035512Y014091D01*
X035256Y014091D01*
X035094Y014024D01*
X034970Y013900D01*
X034903Y013738D01*
X034903Y013088D01*
X034970Y012926D01*
X034983Y012913D01*
X034851Y012913D01*
X034851Y013016D01*
X034772Y013208D01*
X034626Y013354D01*
X034126Y013854D01*
X033934Y013933D01*
X027331Y013933D01*
X027331Y019678D01*
X027390Y019618D01*
X027536Y019472D01*
X027728Y019393D01*
X028013Y019393D01*
X027941Y019321D01*
X027831Y019056D01*
X027831Y018770D01*
X027941Y018505D01*
X028033Y018413D01*
X027941Y018321D01*
X027831Y018056D01*
X027831Y017770D01*
X027941Y017505D01*
X028033Y017413D01*
X027941Y017321D01*
X027831Y017056D01*
X027831Y016770D01*
X027941Y016505D01*
X028033Y016413D01*
X027941Y016321D01*
X027831Y016056D01*
X027831Y015770D01*
X027941Y015505D01*
X028033Y015413D01*
X027941Y015321D01*
X027831Y015056D01*
X027831Y014770D01*
X027941Y014505D01*
X028143Y014303D01*
X028408Y014193D01*
X029254Y014193D01*
X029519Y014303D01*
X029721Y014505D01*
X029831Y014770D01*
X029831Y015056D01*
X029721Y015321D01*
X029629Y015413D01*
X029721Y015505D01*
X029831Y015770D01*
X029831Y016056D01*
X029721Y016321D01*
X029629Y016413D01*
X029721Y016505D01*
X029831Y016770D01*
X029831Y017056D01*
X029721Y017321D01*
X029629Y017413D01*
X029721Y017505D01*
X029831Y017770D01*
X029831Y018056D01*
X029721Y018321D01*
X029629Y018413D01*
X029721Y018505D01*
X029831Y018770D01*
X029831Y019056D01*
X029721Y019321D01*
X029629Y019413D01*
X029721Y019505D01*
X029831Y019770D01*
X029831Y020056D01*
X029721Y020321D01*
X029629Y020413D01*
X029721Y020505D01*
X029831Y020770D01*
X029831Y021056D01*
X029721Y021321D01*
X029519Y021523D01*
X029455Y021550D01*
X029492Y021587D01*
X029539Y021651D01*
X029574Y021721D01*
X029599Y021796D01*
X029611Y021874D01*
X029611Y021913D01*
X028831Y021913D01*
X028831Y021913D01*
X028831Y021913D01*
X028051Y021913D01*
X028051Y021874D01*
X028063Y021796D01*
X028088Y021721D01*
X028123Y021651D01*
X028170Y021587D01*
X028207Y021550D01*
X028143Y021523D01*
X028093Y021473D01*
X027720Y021473D01*
X027607Y021427D01*
X027570Y021517D01*
X027446Y021640D01*
X027331Y021688D01*
X027331Y028619D01*
X027390Y028619D01*
X027867Y028142D01*
X027831Y028056D01*
X027831Y027770D01*
X027941Y027505D01*
X028033Y027413D01*
X027941Y027321D01*
X027831Y027056D01*
X027331Y027056D01*
X027331Y026818D02*
X027831Y026818D01*
X027831Y026770D02*
X027831Y027056D01*
X027930Y027295D02*
X027331Y027295D01*
X027331Y027533D02*
X027929Y027533D01*
X027831Y027772D02*
X027331Y027772D01*
X027331Y028010D02*
X027831Y028010D01*
X027760Y028249D02*
X027331Y028249D01*
X027331Y028487D02*
X027522Y028487D01*
X028754Y028726D02*
X032282Y028726D01*
X032271Y028964D02*
X028897Y028964D01*
X028917Y029203D02*
X032324Y029203D01*
X032463Y029441D02*
X028420Y029441D01*
X028420Y029680D02*
X028345Y029680D01*
X028345Y029918D02*
X028420Y029918D01*
X028858Y029918D02*
X044883Y029918D01*
X044883Y029680D02*
X033347Y029680D01*
X033698Y029441D02*
X035761Y029441D01*
X035653Y029203D02*
X033838Y029203D01*
X033891Y028964D02*
X035653Y028964D01*
X035653Y028726D02*
X033880Y028726D01*
X035128Y028487D02*
X035534Y028487D01*
X035486Y028249D02*
X035176Y028249D01*
X035176Y028010D02*
X035486Y028010D01*
X035486Y027772D02*
X035176Y027772D01*
X035176Y027533D02*
X035486Y027533D01*
X035486Y027295D02*
X035176Y027295D01*
X035176Y027056D02*
X035486Y027056D01*
X035543Y026818D02*
X035176Y026818D01*
X035176Y026579D02*
X035706Y026579D01*
X035837Y026341D02*
X035128Y026341D01*
X034759Y026102D02*
X037131Y026102D01*
X037131Y025864D02*
X034759Y025864D01*
X034641Y025625D02*
X040007Y025625D01*
X040513Y024671D02*
X044883Y024671D01*
X044883Y024433D02*
X040179Y024433D01*
X041369Y024910D02*
X044883Y024910D01*
X044883Y025148D02*
X041562Y025148D01*
X041655Y025387D02*
X044883Y025387D01*
X044883Y025625D02*
X041655Y025625D01*
X042531Y025864D02*
X044883Y025864D01*
X044883Y026102D02*
X042531Y026102D01*
X042531Y026341D02*
X044883Y026341D01*
X044883Y026579D02*
X042531Y026579D01*
X042531Y026818D02*
X044883Y026818D01*
X044883Y027056D02*
X042531Y027056D01*
X042531Y027295D02*
X044883Y027295D01*
X044883Y027533D02*
X042531Y027533D01*
X042531Y027772D02*
X044883Y027772D01*
X044883Y028010D02*
X042531Y028010D01*
X042531Y028249D02*
X044883Y028249D01*
X044883Y028487D02*
X042531Y028487D01*
X042531Y028726D02*
X044883Y028726D01*
X044883Y028964D02*
X042531Y028964D01*
X044883Y029203D02*
X037009Y029203D01*
X037009Y028964D02*
X037131Y028964D01*
X037131Y028726D02*
X037009Y028726D01*
X036901Y029441D02*
X044883Y029441D01*
X044883Y030157D02*
X027805Y030157D01*
X028917Y029680D02*
X032815Y029680D01*
X031107Y028487D02*
X029555Y028487D01*
X029751Y028249D02*
X030911Y028249D01*
X030831Y028010D02*
X029969Y028010D01*
X030208Y027772D02*
X030831Y027772D01*
X030929Y027533D02*
X030446Y027533D01*
X030685Y027295D02*
X030930Y027295D01*
X033017Y025864D02*
X033403Y025864D01*
X033403Y026102D02*
X033255Y026102D01*
X033479Y025625D02*
X033521Y025625D01*
X033462Y024194D02*
X044883Y024194D01*
X044883Y023956D02*
X032831Y023956D01*
X032828Y022763D02*
X035746Y022763D01*
X035984Y022525D02*
X032729Y022525D01*
X032736Y022286D02*
X036223Y022286D01*
X036461Y022048D02*
X032831Y022048D01*
X032831Y021809D02*
X036700Y021809D01*
X036811Y021571D02*
X036248Y021571D01*
X036487Y021332D02*
X036811Y021332D01*
X036776Y021094D02*
X036591Y021094D01*
X037531Y020378D02*
X039153Y020378D01*
X039153Y020140D02*
X037293Y020140D01*
X037054Y019901D02*
X039245Y019901D01*
X039831Y020413D02*
X041331Y020413D01*
X044331Y017413D01*
X044331Y008208D01*
X044068Y007904D02*
X044027Y007945D01*
X043977Y007974D01*
X043921Y007989D01*
X043536Y007989D01*
X043536Y007413D01*
X044112Y007413D01*
X044112Y007798D01*
X044097Y007854D01*
X044068Y007904D01*
X043970Y007976D02*
X044883Y007976D01*
X044883Y007738D02*
X044112Y007738D01*
X044112Y007499D02*
X044883Y007499D01*
X044883Y007261D02*
X044112Y007261D01*
X044112Y007413D02*
X043536Y007413D01*
X043536Y007413D01*
X043536Y006837D01*
X043921Y006837D01*
X043977Y006852D01*
X044027Y006881D01*
X044068Y006922D01*
X044097Y006972D01*
X044112Y007028D01*
X044112Y007413D01*
X044110Y007022D02*
X044883Y007022D01*
X044883Y006784D02*
X042839Y006784D01*
X043003Y006922D02*
X043044Y006881D01*
X043095Y006852D01*
X043151Y006837D01*
X043536Y006837D01*
X043536Y007413D01*
X043536Y007413D01*
X043536Y007413D01*
X043536Y007989D01*
X043151Y007989D01*
X043095Y007974D01*
X043044Y007945D01*
X043003Y007904D01*
X042974Y007854D01*
X042959Y007798D01*
X042959Y007413D01*
X042959Y007028D01*
X042974Y006972D01*
X043003Y006922D01*
X042961Y007022D02*
X042930Y007022D01*
X042930Y007261D02*
X042959Y007261D01*
X042959Y007413D02*
X043536Y007413D01*
X043536Y007413D01*
X042959Y007413D01*
X042959Y007499D02*
X042930Y007499D01*
X042930Y007738D02*
X042959Y007738D01*
X042881Y007976D02*
X043101Y007976D01*
X043536Y007976D02*
X043536Y007976D01*
X043536Y007738D02*
X043536Y007738D01*
X043536Y007499D02*
X043536Y007499D01*
X043536Y007261D02*
X043536Y007261D01*
X043536Y007022D02*
X043536Y007022D01*
X044883Y006545D02*
X008271Y006545D01*
X008271Y006784D02*
X008929Y006784D01*
X008905Y006808D02*
X009029Y006684D01*
X009190Y006617D01*
X010078Y006617D01*
X010240Y006684D01*
X010363Y006808D01*
X010430Y006969D01*
X010430Y007857D01*
X010391Y007952D01*
X010391Y016445D01*
X010401Y016455D01*
X010468Y016617D01*
X010468Y017130D01*
X010489Y017130D01*
X010651Y017197D01*
X010775Y017321D01*
X010842Y017483D01*
X010842Y018209D01*
X010775Y018371D01*
X010725Y018421D01*
X010725Y019072D01*
X015389Y023735D01*
X015656Y023735D01*
X015818Y023802D01*
X015942Y023926D01*
X016009Y024088D01*
X016009Y024738D01*
X015942Y024900D01*
X015818Y025024D01*
X015656Y025091D01*
X015006Y025091D01*
X014844Y025024D01*
X014720Y024900D01*
X014653Y024738D01*
X014653Y024471D01*
X010116Y019933D01*
X010102Y019933D01*
X009910Y019854D01*
X009764Y019708D01*
X009685Y019516D01*
X009685Y019329D01*
X009656Y019341D01*
X009006Y019341D01*
X008844Y019274D01*
X008720Y019150D01*
X008653Y018988D01*
X008653Y018338D01*
X008720Y018176D01*
X008820Y018076D01*
X008820Y017483D01*
X008887Y017321D01*
X009011Y017197D01*
X009173Y017130D01*
X009194Y017130D01*
X009194Y016617D01*
X009261Y016455D01*
X009271Y016445D01*
X009271Y008209D01*
X009190Y008209D01*
X009029Y008142D01*
X008905Y008018D01*
X008838Y007857D01*
X008838Y006969D01*
X008905Y006808D01*
X008838Y007022D02*
X008271Y007022D01*
X008271Y007261D02*
X008838Y007261D01*
X008838Y007499D02*
X008271Y007499D01*
X008271Y007738D02*
X008838Y007738D01*
X008887Y007976D02*
X008271Y007976D01*
X008271Y008215D02*
X009271Y008215D01*
X009271Y008453D02*
X008271Y008453D01*
X008271Y008692D02*
X009271Y008692D01*
X009271Y008930D02*
X008271Y008930D01*
X008271Y009169D02*
X009271Y009169D01*
X009271Y009407D02*
X008271Y009407D01*
X008271Y009646D02*
X009271Y009646D01*
X009271Y009884D02*
X008271Y009884D01*
X008271Y010123D02*
X009271Y010123D01*
X009271Y010361D02*
X008271Y010361D01*
X008271Y010600D02*
X009271Y010600D01*
X009271Y010838D02*
X008271Y010838D01*
X008271Y011077D02*
X009271Y011077D01*
X009271Y011315D02*
X008271Y011315D01*
X008271Y011554D02*
X009271Y011554D01*
X009271Y011792D02*
X008271Y011792D01*
X008271Y012031D02*
X009271Y012031D01*
X009271Y012269D02*
X008271Y012269D01*
X008271Y012508D02*
X009271Y012508D01*
X009271Y012746D02*
X008271Y012746D01*
X008271Y012985D02*
X009271Y012985D01*
X009271Y013223D02*
X008271Y013223D01*
X008271Y013462D02*
X009271Y013462D01*
X009271Y013700D02*
X008271Y013700D01*
X008271Y013939D02*
X009271Y013939D01*
X009271Y014177D02*
X008271Y014177D01*
X008271Y014416D02*
X009271Y014416D01*
X009271Y014654D02*
X008271Y014654D01*
X008271Y014893D02*
X009271Y014893D01*
X009271Y015131D02*
X008271Y015131D01*
X008271Y015370D02*
X009271Y015370D01*
X009271Y015608D02*
X008271Y015608D01*
X008271Y015847D02*
X009271Y015847D01*
X009271Y016085D02*
X008271Y016085D01*
X008271Y016324D02*
X009271Y016324D01*
X009217Y016562D02*
X008271Y016562D01*
X008271Y016801D02*
X009194Y016801D01*
X009194Y017039D02*
X008271Y017039D01*
X008271Y017278D02*
X008931Y017278D01*
X008820Y017516D02*
X008271Y017516D01*
X008271Y017755D02*
X008820Y017755D01*
X008820Y017993D02*
X008271Y017993D01*
X008271Y018232D02*
X008697Y018232D01*
X008653Y018470D02*
X008271Y018470D01*
X008271Y018709D02*
X008653Y018709D01*
X008653Y018947D02*
X008271Y018947D01*
X008271Y019186D02*
X008756Y019186D01*
X008271Y019424D02*
X009685Y019424D01*
X009745Y019663D02*
X008271Y019663D01*
X008271Y019901D02*
X010024Y019901D01*
X010322Y020140D02*
X008271Y020140D01*
X008271Y020378D02*
X010561Y020378D01*
X010799Y020617D02*
X008271Y020617D01*
X008271Y020855D02*
X011038Y020855D01*
X011276Y021094D02*
X008271Y021094D01*
X008271Y021332D02*
X011515Y021332D01*
X011753Y021571D02*
X008271Y021571D01*
X008271Y021809D02*
X011992Y021809D01*
X012230Y022048D02*
X009027Y022048D01*
X008635Y022048D02*
X008271Y022048D01*
X009420Y022286D02*
X012469Y022286D01*
X012707Y022525D02*
X009576Y022525D01*
X009641Y022763D02*
X012946Y022763D01*
X013184Y023002D02*
X009641Y023002D01*
X009543Y023240D02*
X013423Y023240D01*
X013661Y023479D02*
X011632Y023479D01*
X011870Y023717D02*
X013900Y023717D01*
X014138Y023956D02*
X012109Y023956D01*
X012347Y024194D02*
X014377Y024194D01*
X014615Y024433D02*
X012586Y024433D01*
X012824Y024671D02*
X014653Y024671D01*
X014730Y024910D02*
X013063Y024910D01*
X013301Y025148D02*
X017498Y025148D01*
X017403Y025387D02*
X013902Y025387D01*
X014009Y025625D02*
X017403Y025625D01*
X017403Y025864D02*
X014009Y025864D01*
X014009Y026102D02*
X017450Y026102D01*
X017755Y026341D02*
X013966Y026341D01*
X013685Y026579D02*
X025831Y026579D01*
X025831Y026341D02*
X019407Y026341D01*
X019712Y026102D02*
X025831Y026102D01*
X025831Y025864D02*
X019759Y025864D01*
X018755Y026341D02*
X018407Y026341D01*
X018872Y027056D02*
X011176Y027056D01*
X011313Y026818D02*
X019137Y026818D01*
X018769Y027295D02*
X010834Y027295D01*
X010253Y027295D02*
X008271Y027295D01*
X008271Y027533D02*
X018741Y027533D01*
X018777Y027772D02*
X014005Y027772D01*
X014164Y028010D02*
X014739Y028010D01*
X014751Y027989D02*
X014792Y027948D01*
X014843Y027919D01*
X014898Y027904D01*
X015172Y027904D01*
X015172Y028408D01*
X014707Y028408D01*
X014707Y028095D01*
X014722Y028039D01*
X014751Y027989D01*
X014707Y028249D02*
X014175Y028249D01*
X014175Y028487D02*
X014707Y028487D01*
X014707Y028418D02*
X015172Y028418D01*
X015172Y028408D01*
X015182Y028408D01*
X015182Y027904D01*
X015456Y027904D01*
X015512Y027919D01*
X015563Y027948D01*
X015603Y027989D01*
X015632Y028039D01*
X015647Y028095D01*
X015647Y028408D01*
X015182Y028408D01*
X015182Y028418D01*
X015172Y028418D01*
X015172Y028922D01*
X014898Y028922D01*
X014843Y028907D01*
X014792Y028878D01*
X014751Y028837D01*
X014722Y028787D01*
X014707Y028731D01*
X014707Y028418D01*
X014707Y028726D02*
X014175Y028726D01*
X014095Y028964D02*
X018815Y028964D01*
X018741Y029203D02*
X014085Y029203D01*
X014059Y029441D02*
X018741Y029441D01*
X018830Y029680D02*
X014009Y029680D01*
X013924Y029918D02*
X019020Y029918D01*
X019551Y029303D02*
X022111Y029303D01*
X022679Y028726D02*
X022926Y028726D01*
X023170Y028487D02*
X015647Y028487D01*
X015647Y028418D02*
X015647Y028731D01*
X015632Y028787D01*
X015603Y028837D01*
X015563Y028878D01*
X015512Y028907D01*
X015456Y028922D01*
X015182Y028922D01*
X015182Y028418D01*
X015647Y028418D01*
X015647Y028249D02*
X019186Y028249D01*
X018892Y028010D02*
X015616Y028010D01*
X015182Y028010D02*
X015172Y028010D01*
X015172Y028249D02*
X015182Y028249D01*
X015172Y028487D02*
X015182Y028487D01*
X015172Y028726D02*
X015182Y028726D01*
X015647Y028726D02*
X018983Y028726D01*
X019916Y028249D02*
X021746Y028249D01*
X021543Y028726D02*
X020119Y028726D01*
X020081Y029918D02*
X021580Y029918D01*
X023005Y030157D02*
X013490Y030157D01*
X012653Y029203D02*
X009688Y029203D01*
X009605Y029237D02*
X009277Y029237D01*
X008975Y029111D01*
X008743Y028880D01*
X008617Y028577D01*
X008617Y028249D01*
X008743Y027946D01*
X008975Y027715D01*
X009277Y027589D01*
X009605Y027589D01*
X009908Y027715D01*
X010140Y027946D01*
X010265Y028249D01*
X010265Y028577D01*
X010140Y028880D01*
X009908Y029111D01*
X009605Y029237D01*
X009194Y029203D02*
X008271Y029203D01*
X008271Y028964D02*
X008827Y028964D01*
X008679Y028726D02*
X008271Y028726D01*
X008271Y028487D02*
X008617Y028487D01*
X008618Y028249D02*
X008271Y028249D01*
X008271Y028010D02*
X008716Y028010D01*
X008918Y027772D02*
X008271Y027772D01*
X008271Y027056D02*
X009911Y027056D01*
X009774Y026818D02*
X008271Y026818D01*
X008271Y026579D02*
X009720Y026579D01*
X009728Y026341D02*
X008271Y026341D01*
X008271Y026102D02*
X009826Y026102D01*
X010038Y025864D02*
X008271Y025864D01*
X008271Y025625D02*
X008327Y025625D01*
X009334Y025625D02*
X010808Y025625D01*
X011367Y026579D02*
X011477Y026579D01*
X012185Y026579D02*
X012977Y026579D01*
X012696Y026341D02*
X012466Y026341D01*
X012509Y026102D02*
X012653Y026102D01*
X012546Y025864D02*
X012509Y025864D01*
X012964Y027772D02*
X009965Y027772D01*
X010166Y028010D02*
X011274Y028010D01*
X011264Y028020D02*
X011331Y027952D01*
X011408Y027897D01*
X011493Y027853D01*
X011583Y027824D01*
X011677Y027809D01*
X011717Y027809D01*
X011717Y028405D01*
X011733Y028405D01*
X011733Y028421D01*
X012329Y028421D01*
X012329Y028461D01*
X012314Y028554D01*
X012284Y028645D01*
X012241Y028729D01*
X012185Y028806D01*
X012118Y028874D01*
X012041Y028929D01*
X011956Y028973D01*
X011866Y029002D01*
X011772Y029017D01*
X011733Y029017D01*
X011733Y028421D01*
X011717Y028421D01*
X011717Y029017D01*
X011677Y029017D01*
X011583Y029002D01*
X011493Y028973D01*
X011408Y028929D01*
X011331Y028874D01*
X011264Y028806D01*
X011208Y028729D01*
X011165Y028645D01*
X011136Y028554D01*
X011121Y028461D01*
X011121Y028421D01*
X011717Y028421D01*
X011717Y028405D01*
X011121Y028405D01*
X011121Y028365D01*
X011136Y028272D01*
X011165Y028181D01*
X011208Y028097D01*
X011264Y028020D01*
X011143Y028249D02*
X010265Y028249D01*
X010265Y028487D02*
X011125Y028487D01*
X011206Y028726D02*
X010203Y028726D01*
X010055Y028964D02*
X011476Y028964D01*
X011717Y028964D02*
X011733Y028964D01*
X011717Y028726D02*
X011733Y028726D01*
X011717Y028487D02*
X011733Y028487D01*
X011733Y028405D02*
X012329Y028405D01*
X012329Y028365D01*
X012314Y028272D01*
X012284Y028181D01*
X012241Y028097D01*
X012185Y028020D01*
X012118Y027952D01*
X012041Y027897D01*
X011956Y027853D01*
X011866Y027824D01*
X011772Y027809D01*
X011733Y027809D01*
X011733Y028405D01*
X011717Y028249D02*
X011733Y028249D01*
X011717Y028010D02*
X011733Y028010D01*
X012176Y028010D02*
X012805Y028010D01*
X012795Y028249D02*
X012306Y028249D01*
X012324Y028487D02*
X012795Y028487D01*
X012795Y028726D02*
X012243Y028726D01*
X011973Y028964D02*
X012704Y028964D01*
X015932Y024910D02*
X018099Y024910D01*
X018338Y024671D02*
X016009Y024671D01*
X016009Y024433D02*
X018576Y024433D01*
X018815Y024194D02*
X016009Y024194D01*
X015954Y023956D02*
X016276Y023956D01*
X016220Y023900D02*
X016153Y023738D01*
X016153Y023471D01*
X013036Y020354D01*
X012890Y020208D01*
X012811Y020016D01*
X012811Y018277D01*
X012656Y018341D01*
X012006Y018341D01*
X011844Y018274D01*
X011720Y018150D01*
X011653Y017988D01*
X011653Y017338D01*
X011720Y017176D01*
X011820Y017076D01*
X011820Y016483D01*
X011887Y016321D01*
X012011Y016197D01*
X012173Y016130D01*
X012194Y016130D01*
X012194Y015617D01*
X012261Y015455D01*
X012271Y015445D01*
X012271Y014145D01*
X011514Y013388D01*
X011356Y013230D01*
X011348Y013209D01*
X011190Y013209D01*
X011029Y013142D01*
X010905Y013018D01*
X010838Y012857D01*
X010838Y011969D01*
X010905Y011808D01*
X011029Y011684D01*
X011190Y011617D01*
X012078Y011617D01*
X012240Y011684D01*
X012363Y011808D01*
X012430Y011969D01*
X012430Y012720D01*
X012459Y012750D01*
X012459Y012413D01*
X013036Y012413D01*
X013612Y012413D01*
X013612Y012798D01*
X013597Y012854D01*
X013568Y012904D01*
X013527Y012945D01*
X013477Y012974D01*
X013421Y012989D01*
X013036Y012989D01*
X013036Y012413D01*
X013036Y012413D01*
X013612Y012413D01*
X013612Y012028D01*
X013597Y011972D01*
X013568Y011922D01*
X013527Y011881D01*
X013477Y011852D01*
X013421Y011837D01*
X013036Y011837D01*
X013036Y012413D01*
X013036Y012413D01*
X013036Y012413D01*
X013036Y012989D01*
X012699Y012989D01*
X013306Y013596D01*
X013391Y013802D01*
X013391Y015445D01*
X013401Y015455D01*
X013468Y015617D01*
X013468Y016130D01*
X013489Y016130D01*
X013651Y016197D01*
X013775Y016321D01*
X013842Y016483D01*
X013842Y016721D01*
X013851Y016743D01*
X013851Y019698D01*
X014820Y020667D01*
X014820Y019983D01*
X014887Y019821D01*
X015011Y019697D01*
X015173Y019630D01*
X015194Y019630D01*
X015194Y019117D01*
X015261Y018955D01*
X015311Y018905D01*
X015311Y018628D01*
X014610Y017928D01*
X014514Y017888D01*
X014356Y017730D01*
X014271Y017524D01*
X014271Y008645D01*
X013835Y008209D01*
X013690Y008209D01*
X013529Y008142D01*
X013405Y008018D01*
X013338Y007857D01*
X013338Y006969D01*
X013405Y006808D01*
X013529Y006684D01*
X013690Y006617D01*
X014578Y006617D01*
X014740Y006684D01*
X014863Y006808D01*
X014930Y006969D01*
X014930Y007720D01*
X014959Y007750D01*
X014959Y007413D01*
X015536Y007413D01*
X016112Y007413D01*
X016112Y007798D01*
X016097Y007854D01*
X016068Y007904D01*
X016027Y007945D01*
X015977Y007974D01*
X015921Y007989D01*
X015536Y007989D01*
X015536Y007413D01*
X015536Y007413D01*
X016112Y007413D01*
X016112Y007028D01*
X016097Y006972D01*
X016068Y006922D01*
X016027Y006881D01*
X015977Y006852D01*
X015921Y006837D01*
X015536Y006837D01*
X015536Y007413D01*
X015536Y007413D01*
X015536Y007413D01*
X015536Y006837D01*
X015151Y006837D01*
X015095Y006852D01*
X015044Y006881D01*
X015003Y006922D01*
X014974Y006972D01*
X014959Y007028D01*
X014959Y007413D01*
X015536Y007413D01*
X015536Y007989D01*
X015199Y007989D01*
X015306Y008096D01*
X015391Y008302D01*
X015391Y017238D01*
X016126Y017972D01*
X016272Y018118D01*
X016351Y018310D01*
X016351Y018905D01*
X016401Y018955D01*
X016468Y019117D01*
X016468Y019630D01*
X016489Y019630D01*
X016651Y019697D01*
X016775Y019821D01*
X016842Y019983D01*
X016842Y020221D01*
X016851Y020243D01*
X016851Y021698D01*
X017173Y022019D01*
X017256Y021985D01*
X017906Y021985D01*
X018068Y022052D01*
X018192Y022176D01*
X018259Y022338D01*
X018259Y022988D01*
X018192Y023150D01*
X018068Y023274D01*
X017906Y023341D01*
X017509Y023341D01*
X017509Y023738D01*
X017442Y023900D01*
X017318Y024024D01*
X017156Y024091D01*
X016506Y024091D01*
X016344Y024024D01*
X016220Y023900D01*
X016153Y023717D02*
X015370Y023717D01*
X015132Y023479D02*
X016153Y023479D01*
X015923Y023240D02*
X014893Y023240D01*
X014655Y023002D02*
X015684Y023002D01*
X015446Y022763D02*
X014416Y022763D01*
X014178Y022525D02*
X015207Y022525D01*
X014969Y022286D02*
X013939Y022286D01*
X013701Y022048D02*
X014730Y022048D01*
X014492Y021809D02*
X013462Y021809D01*
X013224Y021571D02*
X014253Y021571D01*
X014015Y021332D02*
X012985Y021332D01*
X012747Y021094D02*
X013776Y021094D01*
X013538Y020855D02*
X012508Y020855D01*
X012270Y020617D02*
X013299Y020617D01*
X013061Y020378D02*
X012031Y020378D01*
X011793Y020140D02*
X012862Y020140D01*
X012811Y019901D02*
X011554Y019901D01*
X011316Y019663D02*
X012811Y019663D01*
X012811Y019424D02*
X011077Y019424D01*
X010839Y019186D02*
X012811Y019186D01*
X012811Y018947D02*
X010725Y018947D01*
X010725Y018709D02*
X012811Y018709D01*
X012811Y018470D02*
X010725Y018470D01*
X010833Y018232D02*
X011802Y018232D01*
X011655Y017993D02*
X010842Y017993D01*
X010842Y017755D02*
X011653Y017755D01*
X011653Y017516D02*
X010842Y017516D01*
X010731Y017278D02*
X011678Y017278D01*
X011820Y017039D02*
X010468Y017039D01*
X010468Y016801D02*
X011820Y016801D01*
X011820Y016562D02*
X010445Y016562D01*
X010391Y016324D02*
X011886Y016324D01*
X012194Y016085D02*
X010391Y016085D01*
X010391Y015847D02*
X012194Y015847D01*
X012198Y015608D02*
X010391Y015608D01*
X010391Y015370D02*
X012271Y015370D01*
X012271Y015131D02*
X010391Y015131D01*
X010391Y014893D02*
X012271Y014893D01*
X012271Y014654D02*
X010391Y014654D01*
X010391Y014416D02*
X012271Y014416D01*
X012271Y014177D02*
X010391Y014177D01*
X010391Y013939D02*
X012065Y013939D01*
X011826Y013700D02*
X010391Y013700D01*
X010391Y013462D02*
X011588Y013462D01*
X011353Y013223D02*
X010391Y013223D01*
X010391Y012985D02*
X010891Y012985D01*
X010838Y012746D02*
X010391Y012746D01*
X010391Y012508D02*
X010838Y012508D01*
X010838Y012269D02*
X010391Y012269D01*
X010391Y012031D02*
X010838Y012031D01*
X010920Y011792D02*
X010391Y011792D01*
X010391Y011554D02*
X014271Y011554D01*
X014271Y011792D02*
X012348Y011792D01*
X012503Y011922D02*
X012544Y011881D01*
X012595Y011852D01*
X012651Y011837D01*
X013036Y011837D01*
X013036Y012413D01*
X012459Y012413D01*
X012459Y012028D01*
X012474Y011972D01*
X012503Y011922D01*
X012459Y012031D02*
X012430Y012031D01*
X012430Y012269D02*
X012459Y012269D01*
X012459Y012508D02*
X012430Y012508D01*
X012456Y012746D02*
X012459Y012746D01*
X013036Y012746D02*
X013036Y012746D01*
X013036Y012508D02*
X013036Y012508D01*
X013036Y012413D02*
X013036Y012413D01*
X013036Y012269D02*
X013036Y012269D01*
X013036Y012031D02*
X013036Y012031D01*
X013612Y012031D02*
X014271Y012031D01*
X014271Y012269D02*
X013612Y012269D01*
X013612Y012508D02*
X014271Y012508D01*
X014271Y012746D02*
X013612Y012746D01*
X013438Y012985D02*
X014271Y012985D01*
X014271Y013223D02*
X012933Y013223D01*
X013036Y012985D02*
X013036Y012985D01*
X013171Y013462D02*
X014271Y013462D01*
X014271Y013700D02*
X013349Y013700D01*
X013391Y013939D02*
X014271Y013939D01*
X014271Y014177D02*
X013391Y014177D01*
X013391Y014416D02*
X014271Y014416D01*
X014271Y014654D02*
X013391Y014654D01*
X013391Y014893D02*
X014271Y014893D01*
X014271Y015131D02*
X013391Y015131D01*
X013391Y015370D02*
X014271Y015370D01*
X014271Y015608D02*
X013464Y015608D01*
X013468Y015847D02*
X014271Y015847D01*
X014271Y016085D02*
X013468Y016085D01*
X013776Y016324D02*
X014271Y016324D01*
X014271Y016562D02*
X013842Y016562D01*
X013851Y016801D02*
X014271Y016801D01*
X014271Y017039D02*
X013851Y017039D01*
X013851Y017278D02*
X014271Y017278D01*
X014271Y017516D02*
X013851Y017516D01*
X013851Y017755D02*
X014381Y017755D01*
X014676Y017993D02*
X013851Y017993D01*
X013851Y018232D02*
X014914Y018232D01*
X015153Y018470D02*
X013851Y018470D01*
X013851Y018709D02*
X015311Y018709D01*
X015269Y018947D02*
X013851Y018947D01*
X013851Y019186D02*
X015194Y019186D01*
X015194Y019424D02*
X013851Y019424D01*
X013851Y019663D02*
X015095Y019663D01*
X014854Y019901D02*
X014054Y019901D01*
X014293Y020140D02*
X014820Y020140D01*
X014820Y020378D02*
X014531Y020378D01*
X014770Y020617D02*
X014820Y020617D01*
X015457Y020346D02*
X015457Y021039D01*
X015581Y021163D01*
X016851Y021094D02*
X018811Y021094D01*
X018811Y021284D02*
X018811Y018277D01*
X018656Y018341D01*
X018006Y018341D01*
X017844Y018274D01*
X017720Y018150D01*
X017653Y017988D01*
X017653Y017338D01*
X017720Y017176D01*
X017820Y017076D01*
X017820Y016483D01*
X017887Y016321D01*
X018011Y016197D01*
X018173Y016130D01*
X018194Y016130D01*
X018194Y015617D01*
X018208Y015582D01*
X016514Y013888D01*
X016356Y013730D01*
X016271Y013524D01*
X016271Y013209D01*
X016190Y013209D01*
X016029Y013142D01*
X015905Y013018D01*
X015838Y012857D01*
X015838Y011969D01*
X015905Y011808D01*
X016029Y011684D01*
X016190Y011617D01*
X017078Y011617D01*
X017240Y011684D01*
X017363Y011808D01*
X017430Y011969D01*
X017430Y012857D01*
X017391Y012952D01*
X017391Y013181D01*
X019306Y015096D01*
X019391Y015302D01*
X019391Y015445D01*
X019401Y015455D01*
X019468Y015617D01*
X019468Y016130D01*
X019489Y016130D01*
X019651Y016197D01*
X019775Y016321D01*
X019842Y016483D01*
X019842Y016721D01*
X019851Y016743D01*
X019851Y021284D01*
X019942Y021375D01*
X020009Y021536D01*
X020009Y022187D01*
X019942Y022349D01*
X019818Y022473D01*
X019656Y022540D01*
X019006Y022540D01*
X018844Y022473D01*
X018720Y022349D01*
X018653Y022187D01*
X018653Y021536D01*
X018720Y021375D01*
X018811Y021284D01*
X018763Y021332D02*
X016851Y021332D01*
X016851Y021571D02*
X018653Y021571D01*
X018653Y021809D02*
X016962Y021809D01*
X018057Y022048D02*
X018653Y022048D01*
X018694Y022286D02*
X018237Y022286D01*
X018259Y022525D02*
X018969Y022525D01*
X018259Y022763D02*
X020246Y022763D01*
X020484Y022525D02*
X019693Y022525D01*
X019968Y022286D02*
X020723Y022286D01*
X020961Y022048D02*
X020009Y022048D01*
X020009Y021809D02*
X020679Y021809D01*
X020437Y021571D02*
X020009Y021571D01*
X019899Y021332D02*
X020403Y021332D01*
X020397Y021094D02*
X019851Y021094D01*
X019851Y020855D02*
X020381Y020855D01*
X020320Y020617D02*
X019851Y020617D01*
X019851Y020378D02*
X020320Y020378D01*
X020320Y020140D02*
X019851Y020140D01*
X019851Y019901D02*
X020354Y019901D01*
X020595Y019663D02*
X019851Y019663D01*
X019851Y019424D02*
X020694Y019424D01*
X020694Y019186D02*
X019851Y019186D01*
X019851Y018947D02*
X020769Y018947D01*
X020853Y018709D02*
X019851Y018709D01*
X019851Y018470D02*
X021042Y018470D01*
X021271Y018232D02*
X019851Y018232D01*
X019851Y017993D02*
X021271Y017993D01*
X021271Y017755D02*
X019851Y017755D01*
X019851Y017516D02*
X021271Y017516D01*
X021271Y017278D02*
X019851Y017278D01*
X019851Y017039D02*
X021271Y017039D01*
X021271Y016801D02*
X019851Y016801D01*
X019842Y016562D02*
X021188Y016562D01*
X020950Y016324D02*
X019776Y016324D01*
X019468Y016085D02*
X020711Y016085D01*
X020473Y015847D02*
X019468Y015847D01*
X019464Y015608D02*
X020234Y015608D01*
X019996Y015370D02*
X019391Y015370D01*
X019320Y015131D02*
X019757Y015131D01*
X019519Y014893D02*
X019102Y014893D01*
X019280Y014654D02*
X018864Y014654D01*
X018625Y014416D02*
X019111Y014416D01*
X019074Y014177D02*
X018387Y014177D01*
X018148Y013939D02*
X019074Y013939D01*
X019074Y013700D02*
X017910Y013700D01*
X017671Y013462D02*
X019074Y013462D01*
X019074Y013223D02*
X017433Y013223D01*
X017391Y012985D02*
X017633Y012985D01*
X017651Y012989D02*
X017595Y012974D01*
X017544Y012945D01*
X017503Y012904D01*
X017474Y012854D01*
X017459Y012798D01*
X017459Y012413D01*
X018036Y012413D01*
X018612Y012413D01*
X018612Y012798D01*
X018597Y012854D01*
X018568Y012904D01*
X018527Y012945D01*
X018477Y012974D01*
X018421Y012989D01*
X018036Y012989D01*
X018036Y012413D01*
X018036Y012413D01*
X018612Y012413D01*
X018612Y012028D01*
X018597Y011972D01*
X018568Y011922D01*
X018527Y011881D01*
X018477Y011852D01*
X018421Y011837D01*
X018036Y011837D01*
X018036Y012413D01*
X018036Y012413D01*
X018036Y012413D01*
X018036Y011837D01*
X017651Y011837D01*
X017595Y011852D01*
X017544Y011881D01*
X017503Y011922D01*
X017474Y011972D01*
X017459Y012028D01*
X017459Y012413D01*
X018036Y012413D01*
X018036Y012989D01*
X017651Y012989D01*
X017459Y012746D02*
X017430Y012746D01*
X017430Y012508D02*
X017459Y012508D01*
X017459Y012269D02*
X017430Y012269D01*
X017430Y012031D02*
X017459Y012031D01*
X017348Y011792D02*
X019074Y011792D01*
X019074Y011554D02*
X015391Y011554D01*
X015391Y011792D02*
X015920Y011792D01*
X015838Y012031D02*
X015391Y012031D01*
X015391Y012269D02*
X015838Y012269D01*
X015838Y012508D02*
X015391Y012508D01*
X015391Y012746D02*
X015838Y012746D01*
X015891Y012985D02*
X015391Y012985D01*
X015391Y013223D02*
X016271Y013223D01*
X016271Y013462D02*
X015391Y013462D01*
X015391Y013700D02*
X016344Y013700D01*
X016565Y013939D02*
X015391Y013939D01*
X015391Y014177D02*
X016803Y014177D01*
X017042Y014416D02*
X015391Y014416D01*
X015391Y014654D02*
X017280Y014654D01*
X017519Y014893D02*
X015391Y014893D01*
X015391Y015131D02*
X017757Y015131D01*
X017996Y015370D02*
X015391Y015370D01*
X015391Y015608D02*
X018198Y015608D01*
X018194Y015847D02*
X015391Y015847D01*
X015391Y016085D02*
X018194Y016085D01*
X017886Y016324D02*
X015391Y016324D01*
X015391Y016562D02*
X017820Y016562D01*
X017820Y016801D02*
X015391Y016801D01*
X015391Y017039D02*
X017820Y017039D01*
X017678Y017278D02*
X015431Y017278D01*
X015669Y017516D02*
X017653Y017516D01*
X017653Y017755D02*
X015908Y017755D01*
X016146Y017993D02*
X017655Y017993D01*
X017802Y018232D02*
X016319Y018232D01*
X016351Y018470D02*
X018811Y018470D01*
X018811Y018709D02*
X016351Y018709D01*
X016393Y018947D02*
X018811Y018947D01*
X018811Y019186D02*
X016468Y019186D01*
X016468Y019424D02*
X018811Y019424D01*
X018811Y019663D02*
X016567Y019663D01*
X016808Y019901D02*
X018811Y019901D01*
X018811Y020140D02*
X016842Y020140D01*
X016851Y020378D02*
X018811Y020378D01*
X018811Y020617D02*
X016851Y020617D01*
X016851Y020855D02*
X018811Y020855D01*
X019331Y021862D02*
X019331Y021913D01*
X020007Y023002D02*
X018253Y023002D01*
X018102Y023240D02*
X019769Y023240D01*
X019530Y023479D02*
X017509Y023479D01*
X017509Y023717D02*
X019292Y023717D01*
X019053Y023956D02*
X017386Y023956D01*
X020957Y021039D02*
X021081Y021163D01*
X020957Y021039D02*
X020957Y020346D01*
X022067Y019663D02*
X025831Y019663D01*
X025831Y019901D02*
X022308Y019901D01*
X022342Y020140D02*
X025327Y020140D01*
X025063Y020378D02*
X022351Y020378D01*
X022382Y020617D02*
X022392Y020617D01*
X022061Y019424D02*
X024244Y019424D01*
X024153Y019186D02*
X022324Y019186D01*
X022391Y018947D02*
X023736Y018947D01*
X023391Y018709D02*
X022391Y018709D01*
X022391Y018470D02*
X023306Y018470D01*
X023311Y018232D02*
X022391Y018232D01*
X022391Y017993D02*
X023311Y017993D01*
X023311Y017755D02*
X022391Y017755D01*
X022391Y017516D02*
X023311Y017516D01*
X023311Y017278D02*
X022391Y017278D01*
X022391Y017039D02*
X023311Y017039D01*
X023311Y016801D02*
X022391Y016801D01*
X022391Y016562D02*
X023311Y016562D01*
X023311Y016324D02*
X022391Y016324D01*
X022295Y016085D02*
X023311Y016085D01*
X023311Y015847D02*
X022056Y015847D01*
X021818Y015608D02*
X023311Y015608D01*
X023311Y015370D02*
X021579Y015370D01*
X021341Y015131D02*
X023311Y015131D01*
X023311Y014893D02*
X021102Y014893D01*
X020864Y014654D02*
X023311Y014654D01*
X023311Y014416D02*
X020625Y014416D01*
X020387Y014177D02*
X023311Y014177D01*
X023311Y013939D02*
X020194Y013939D01*
X020194Y013700D02*
X023311Y013700D01*
X023311Y013462D02*
X020194Y013462D01*
X020194Y013223D02*
X023311Y013223D01*
X023366Y012985D02*
X022938Y012985D01*
X023112Y012746D02*
X023316Y012746D01*
X023161Y012508D02*
X023112Y012508D01*
X023112Y012269D02*
X023153Y012269D01*
X023153Y012031D02*
X023112Y012031D01*
X023172Y011792D02*
X022300Y011792D01*
X022479Y011554D02*
X023343Y011554D01*
X023893Y011315D02*
X022658Y011315D01*
X022836Y011077D02*
X024194Y011077D01*
X024831Y010413D02*
X022634Y010413D01*
X021134Y012413D01*
X020338Y012508D02*
X020194Y012508D01*
X020194Y012746D02*
X020338Y012746D01*
X020391Y012985D02*
X020194Y012985D01*
X020194Y012269D02*
X020338Y012269D01*
X020338Y012031D02*
X020194Y012031D01*
X020194Y011792D02*
X020420Y011792D01*
X020194Y011554D02*
X021079Y011554D01*
X021258Y011315D02*
X020194Y011315D01*
X020194Y011077D02*
X021436Y011077D01*
X021615Y010838D02*
X020194Y010838D01*
X020194Y010600D02*
X021794Y010600D01*
X021973Y010361D02*
X020194Y010361D01*
X020194Y010123D02*
X022148Y010123D01*
X022428Y009884D02*
X020194Y009884D01*
X020194Y009646D02*
X025272Y009646D01*
X025510Y009884D02*
X025017Y009884D01*
X025317Y010123D02*
X025749Y010123D01*
X025987Y010361D02*
X025391Y010361D01*
X025461Y010600D02*
X026226Y010600D01*
X026464Y010838D02*
X025468Y010838D01*
X025468Y011077D02*
X026703Y011077D01*
X026941Y011315D02*
X025769Y011315D01*
X025842Y011554D02*
X027194Y011554D01*
X027331Y010913D02*
X024831Y008413D01*
X024831Y007610D01*
X024634Y007413D01*
X025430Y007499D02*
X025459Y007499D01*
X025459Y007413D02*
X026036Y007413D01*
X026612Y007413D01*
X026612Y007798D01*
X026597Y007854D01*
X026568Y007904D01*
X026527Y007945D01*
X026477Y007974D01*
X026421Y007989D01*
X026036Y007989D01*
X026036Y007413D01*
X026036Y007413D01*
X026612Y007413D01*
X026612Y007028D01*
X026597Y006972D01*
X026568Y006922D01*
X026527Y006881D01*
X026477Y006852D01*
X026421Y006837D01*
X026036Y006837D01*
X026036Y007413D01*
X026036Y007413D01*
X026036Y007413D01*
X026036Y006837D01*
X025651Y006837D01*
X025595Y006852D01*
X025544Y006881D01*
X025503Y006922D01*
X025474Y006972D01*
X025459Y007028D01*
X025459Y007413D01*
X025459Y007798D01*
X025474Y007854D01*
X025503Y007904D01*
X025544Y007945D01*
X025595Y007974D01*
X025651Y007989D01*
X026036Y007989D01*
X026036Y007413D01*
X025459Y007413D01*
X025459Y007261D02*
X025430Y007261D01*
X025430Y007022D02*
X025461Y007022D01*
X025339Y006784D02*
X027429Y006784D01*
X027338Y007022D02*
X026610Y007022D01*
X026612Y007261D02*
X027338Y007261D01*
X027338Y007499D02*
X026612Y007499D01*
X026612Y007738D02*
X027338Y007738D01*
X027387Y007976D02*
X026470Y007976D01*
X026036Y007976D02*
X026036Y007976D01*
X026036Y007738D02*
X026036Y007738D01*
X026036Y007499D02*
X026036Y007499D01*
X026036Y007413D02*
X026036Y007413D01*
X026036Y007261D02*
X026036Y007261D01*
X026036Y007022D02*
X026036Y007022D01*
X025459Y007738D02*
X025430Y007738D01*
X025391Y007976D02*
X025601Y007976D01*
X025424Y008215D02*
X027574Y008215D01*
X027626Y008453D02*
X025663Y008453D01*
X025901Y008692D02*
X027818Y008692D01*
X028056Y008930D02*
X026140Y008930D01*
X026378Y009169D02*
X028295Y009169D01*
X028533Y009407D02*
X026617Y009407D01*
X026855Y009646D02*
X028772Y009646D01*
X029010Y009884D02*
X027094Y009884D01*
X027332Y010123D02*
X029249Y010123D01*
X029487Y010361D02*
X027962Y010361D01*
X028307Y010600D02*
X029726Y010600D01*
X029964Y010838D02*
X028391Y010838D01*
X028451Y011077D02*
X030203Y011077D01*
X030194Y011315D02*
X028468Y011315D01*
X028468Y011554D02*
X030194Y011554D01*
X030457Y012346D02*
X029648Y012346D01*
X029581Y012413D01*
X030831Y010913D02*
X028134Y008216D01*
X028134Y007413D01*
X028930Y007499D02*
X028959Y007499D01*
X028959Y007413D02*
X029536Y007413D01*
X030112Y007413D01*
X030112Y007798D01*
X030097Y007854D01*
X030068Y007904D01*
X030027Y007945D01*
X029977Y007974D01*
X029921Y007989D01*
X029536Y007989D01*
X029536Y007413D01*
X029536Y007413D01*
X030112Y007413D01*
X030112Y007028D01*
X030097Y006972D01*
X030068Y006922D01*
X030027Y006881D01*
X029977Y006852D01*
X029921Y006837D01*
X029536Y006837D01*
X029536Y007413D01*
X029536Y007413D01*
X029536Y007413D01*
X029536Y006837D01*
X029151Y006837D01*
X029095Y006852D01*
X029044Y006881D01*
X029003Y006922D01*
X028974Y006972D01*
X028959Y007028D01*
X028959Y007413D01*
X028959Y007798D01*
X028974Y007854D01*
X029003Y007904D01*
X029044Y007945D01*
X029095Y007974D01*
X029151Y007989D01*
X029536Y007989D01*
X029536Y007413D01*
X028959Y007413D01*
X028959Y007261D02*
X028930Y007261D01*
X028930Y007022D02*
X028961Y007022D01*
X028839Y006784D02*
X030929Y006784D01*
X030838Y007022D02*
X030110Y007022D01*
X030112Y007261D02*
X030838Y007261D01*
X030838Y007499D02*
X030112Y007499D01*
X030112Y007738D02*
X030838Y007738D01*
X030887Y007976D02*
X029970Y007976D01*
X029536Y007976D02*
X029536Y007976D01*
X029536Y007738D02*
X029536Y007738D01*
X029536Y007499D02*
X029536Y007499D01*
X029536Y007413D02*
X029536Y007413D01*
X029536Y007261D02*
X029536Y007261D01*
X029536Y007022D02*
X029536Y007022D01*
X028959Y007738D02*
X028930Y007738D01*
X028881Y007976D02*
X029101Y007976D01*
X028924Y008215D02*
X031271Y008215D01*
X031271Y008453D02*
X029163Y008453D01*
X029401Y008692D02*
X031340Y008692D01*
X031556Y008930D02*
X029640Y008930D01*
X029878Y009169D02*
X031795Y009169D01*
X032033Y009407D02*
X030117Y009407D01*
X030355Y009646D02*
X032272Y009646D01*
X032510Y009884D02*
X030594Y009884D01*
X030832Y010123D02*
X032749Y010123D01*
X032987Y010361D02*
X031071Y010361D01*
X031307Y010600D02*
X033226Y010600D01*
X033271Y010838D02*
X031391Y010838D01*
X031451Y011077D02*
X033211Y011077D01*
X033194Y011315D02*
X031468Y011315D01*
X031468Y011554D02*
X033194Y011554D01*
X033457Y012346D02*
X032648Y012346D01*
X032581Y012413D01*
X032119Y011792D02*
X031746Y011792D01*
X033831Y010913D02*
X033831Y010413D01*
X031831Y008413D01*
X031831Y007610D01*
X031634Y007413D01*
X032430Y007499D02*
X032459Y007499D01*
X032459Y007413D02*
X033036Y007413D01*
X033612Y007413D01*
X033612Y007798D01*
X033597Y007854D01*
X033568Y007904D01*
X033527Y007945D01*
X033477Y007974D01*
X033421Y007989D01*
X033036Y007989D01*
X033036Y007413D01*
X033036Y007413D01*
X033612Y007413D01*
X033612Y007028D01*
X033597Y006972D01*
X033568Y006922D01*
X033527Y006881D01*
X033477Y006852D01*
X033421Y006837D01*
X033036Y006837D01*
X033036Y007413D01*
X033036Y007413D01*
X033036Y007413D01*
X033036Y006837D01*
X032651Y006837D01*
X032595Y006852D01*
X032544Y006881D01*
X032503Y006922D01*
X032474Y006972D01*
X032459Y007028D01*
X032459Y007413D01*
X032459Y007798D01*
X032474Y007854D01*
X032503Y007904D01*
X032544Y007945D01*
X032595Y007974D01*
X032651Y007989D01*
X033036Y007989D01*
X033036Y007413D01*
X032459Y007413D01*
X032459Y007261D02*
X032430Y007261D01*
X032430Y007022D02*
X032461Y007022D01*
X032339Y006784D02*
X034429Y006784D01*
X034338Y007022D02*
X033610Y007022D01*
X033612Y007261D02*
X034338Y007261D01*
X034338Y007499D02*
X033612Y007499D01*
X033612Y007738D02*
X034338Y007738D01*
X034387Y007976D02*
X033470Y007976D01*
X033036Y007976D02*
X033036Y007976D01*
X033036Y007738D02*
X033036Y007738D01*
X033036Y007499D02*
X033036Y007499D01*
X033036Y007413D02*
X033036Y007413D01*
X033036Y007261D02*
X033036Y007261D01*
X033036Y007022D02*
X033036Y007022D01*
X032459Y007738D02*
X032430Y007738D01*
X032391Y007976D02*
X032601Y007976D01*
X032424Y008215D02*
X034574Y008215D01*
X034626Y008453D02*
X032663Y008453D01*
X032901Y008692D02*
X034818Y008692D01*
X035056Y008930D02*
X033140Y008930D01*
X033378Y009169D02*
X035295Y009169D01*
X035533Y009407D02*
X033617Y009407D01*
X033855Y009646D02*
X035772Y009646D01*
X036010Y009884D02*
X034094Y009884D01*
X034317Y010123D02*
X036249Y010123D01*
X036271Y010361D02*
X034391Y010361D01*
X034391Y010600D02*
X036271Y010600D01*
X036271Y010838D02*
X034391Y010838D01*
X034451Y011077D02*
X036271Y011077D01*
X036271Y011315D02*
X034468Y011315D01*
X034468Y011554D02*
X036271Y011554D01*
X036271Y011792D02*
X034746Y011792D01*
X034851Y012985D02*
X034946Y012985D01*
X034903Y013223D02*
X034756Y013223D01*
X034903Y013462D02*
X034518Y013462D01*
X034279Y013700D02*
X034903Y013700D01*
X035009Y013939D02*
X027331Y013939D01*
X027331Y014177D02*
X035476Y014177D01*
X035454Y014416D02*
X032632Y014416D01*
X032783Y014654D02*
X035454Y014654D01*
X035460Y014893D02*
X032831Y014893D01*
X032800Y015131D02*
X035611Y015131D01*
X035470Y015370D02*
X032673Y015370D01*
X032764Y015608D02*
X035346Y015608D01*
X035346Y015847D02*
X032831Y015847D01*
X032819Y016085D02*
X035346Y016085D01*
X035381Y016324D02*
X032719Y016324D01*
X032745Y016562D02*
X035629Y016562D01*
X036419Y016562D02*
X039254Y016562D01*
X039492Y016324D02*
X038656Y016324D01*
X038894Y016085D02*
X039731Y016085D01*
X039969Y015847D02*
X039133Y015847D01*
X039371Y015608D02*
X040208Y015608D01*
X040446Y015370D02*
X039610Y015370D01*
X039848Y015131D02*
X040685Y015131D01*
X040923Y014893D02*
X040087Y014893D01*
X040325Y014654D02*
X041162Y014654D01*
X041400Y014416D02*
X040539Y014416D01*
X040601Y014177D02*
X041639Y014177D01*
X041009Y013939D02*
X040707Y013939D01*
X040842Y013700D02*
X040903Y013700D01*
X040903Y013462D02*
X040842Y013462D01*
X040842Y013223D02*
X040903Y013223D01*
X040946Y012985D02*
X040842Y012985D01*
X041581Y013413D02*
X041648Y013346D01*
X042457Y013346D01*
X043707Y013939D02*
X043771Y013939D01*
X043771Y014177D02*
X043109Y014177D01*
X042871Y014416D02*
X043771Y014416D01*
X043771Y014654D02*
X042632Y014654D01*
X042394Y014893D02*
X043771Y014893D01*
X043771Y015131D02*
X042155Y015131D01*
X041917Y015370D02*
X043771Y015370D01*
X043771Y015608D02*
X041678Y015608D01*
X041440Y015847D02*
X043771Y015847D01*
X043771Y016085D02*
X041201Y016085D01*
X040963Y016324D02*
X043771Y016324D01*
X043771Y016562D02*
X040724Y016562D01*
X040667Y016839D02*
X040364Y016965D01*
X040133Y017196D01*
X040007Y017499D01*
X040007Y017827D01*
X040133Y018130D01*
X040364Y018361D01*
X040667Y018487D01*
X040995Y018487D01*
X041298Y018361D01*
X041529Y018130D01*
X041655Y017827D01*
X041655Y017499D01*
X041529Y017196D01*
X041298Y016965D01*
X040995Y016839D01*
X040667Y016839D01*
X040486Y016801D02*
X043771Y016801D01*
X043771Y017039D02*
X041372Y017039D01*
X041563Y017278D02*
X043674Y017278D01*
X043436Y017516D02*
X041655Y017516D01*
X041655Y017755D02*
X043197Y017755D01*
X042959Y017993D02*
X041586Y017993D01*
X041428Y018232D02*
X042720Y018232D01*
X042482Y018470D02*
X041035Y018470D01*
X040626Y018470D02*
X034620Y018470D01*
X034862Y018709D02*
X042243Y018709D01*
X042005Y018947D02*
X035100Y018947D01*
X035300Y019186D02*
X035484Y019186D01*
X036178Y019186D02*
X041766Y019186D01*
X041528Y019424D02*
X036509Y019424D01*
X036816Y019663D02*
X041289Y019663D01*
X042158Y020378D02*
X044883Y020378D01*
X044883Y020140D02*
X042396Y020140D01*
X042635Y019901D02*
X044883Y019901D01*
X044883Y019663D02*
X042873Y019663D01*
X043112Y019424D02*
X044883Y019424D01*
X044883Y019186D02*
X043350Y019186D01*
X043589Y018947D02*
X044883Y018947D01*
X044883Y018709D02*
X043827Y018709D01*
X044066Y018470D02*
X044883Y018470D01*
X044883Y018232D02*
X044304Y018232D01*
X044543Y017993D02*
X044883Y017993D01*
X044883Y017755D02*
X044781Y017755D01*
X044883Y020617D02*
X041919Y020617D01*
X041681Y020855D02*
X044883Y020855D01*
X044883Y021094D02*
X037851Y021094D01*
X037851Y021332D02*
X044883Y021332D01*
X044883Y021571D02*
X037851Y021571D01*
X037851Y021809D02*
X044883Y021809D01*
X044883Y022048D02*
X037838Y022048D01*
X037693Y022286D02*
X044883Y022286D01*
X044883Y022525D02*
X037455Y022525D01*
X037216Y022763D02*
X044883Y022763D01*
X044883Y023002D02*
X036978Y023002D01*
X036739Y023240D02*
X044883Y023240D01*
X044883Y023479D02*
X036501Y023479D01*
X036262Y023717D02*
X044883Y023717D01*
X039202Y020855D02*
X037851Y020855D01*
X037770Y020617D02*
X039153Y020617D01*
X040234Y018232D02*
X032758Y018232D01*
X032831Y017993D02*
X037313Y017993D01*
X037160Y017755D02*
X032825Y017755D01*
X032726Y017516D02*
X037153Y017516D01*
X037153Y017278D02*
X032739Y017278D01*
X032831Y017039D02*
X037173Y017039D01*
X037348Y016801D02*
X032831Y016801D01*
X030989Y015370D02*
X029673Y015370D01*
X029764Y015608D02*
X030898Y015608D01*
X030831Y015847D02*
X029831Y015847D01*
X029819Y016085D02*
X030843Y016085D01*
X030943Y016324D02*
X029719Y016324D01*
X029745Y016562D02*
X030917Y016562D01*
X030831Y016801D02*
X029831Y016801D01*
X029831Y017039D02*
X030831Y017039D01*
X030923Y017278D02*
X029739Y017278D01*
X029726Y017516D02*
X030936Y017516D01*
X030837Y017755D02*
X029825Y017755D01*
X029831Y017993D02*
X030831Y017993D01*
X030904Y018232D02*
X029758Y018232D01*
X029686Y018470D02*
X030976Y018470D01*
X030856Y018709D02*
X029806Y018709D01*
X029831Y018947D02*
X030831Y018947D01*
X030885Y019186D02*
X029777Y019186D01*
X029640Y019424D02*
X031044Y019424D01*
X031117Y019663D02*
X029787Y019663D01*
X029831Y019901D02*
X031051Y019901D01*
X031105Y020140D02*
X029796Y020140D01*
X029664Y020378D02*
X031068Y020378D01*
X030894Y020617D02*
X029767Y020617D01*
X029831Y020855D02*
X030831Y020855D01*
X030846Y021094D02*
X029816Y021094D01*
X029710Y021332D02*
X030952Y021332D01*
X030914Y021571D02*
X029476Y021571D01*
X029601Y021809D02*
X030831Y021809D01*
X030831Y022048D02*
X029593Y022048D01*
X029479Y022286D02*
X030926Y022286D01*
X030933Y022525D02*
X029729Y022525D01*
X029828Y022763D02*
X030834Y022763D01*
X030507Y023002D02*
X029831Y023002D01*
X029755Y023240D02*
X030269Y023240D01*
X030030Y023479D02*
X029695Y023479D01*
X029809Y023717D02*
X029849Y023717D01*
X028033Y023413D02*
X027941Y023321D01*
X027831Y023056D01*
X027831Y022770D01*
X027941Y022505D01*
X028143Y022303D01*
X028207Y022276D01*
X028069Y022048D02*
X027331Y022048D01*
X027331Y021809D02*
X028061Y021809D01*
X028186Y021571D02*
X027516Y021571D01*
X027831Y020913D02*
X028831Y020913D01*
X027831Y020913D02*
X027831Y020663D01*
X027346Y019663D02*
X027331Y019663D01*
X027331Y019424D02*
X027653Y019424D01*
X027885Y019186D02*
X027331Y019186D01*
X027331Y018947D02*
X027831Y018947D01*
X027856Y018709D02*
X027331Y018709D01*
X027331Y018470D02*
X027976Y018470D01*
X027904Y018232D02*
X027331Y018232D01*
X027331Y017993D02*
X027831Y017993D01*
X027837Y017755D02*
X027331Y017755D01*
X027331Y017516D02*
X027936Y017516D01*
X027923Y017278D02*
X027331Y017278D01*
X027331Y017039D02*
X027831Y017039D01*
X027831Y016801D02*
X027331Y016801D01*
X027331Y016562D02*
X027917Y016562D01*
X027943Y016324D02*
X027331Y016324D01*
X027331Y016085D02*
X027843Y016085D01*
X027831Y015847D02*
X027331Y015847D01*
X027331Y015608D02*
X027898Y015608D01*
X027989Y015370D02*
X027331Y015370D01*
X027331Y015131D02*
X027862Y015131D01*
X027831Y014893D02*
X027331Y014893D01*
X027331Y014654D02*
X027879Y014654D01*
X028030Y014416D02*
X027331Y014416D01*
X026331Y013413D02*
X026280Y013464D01*
X025664Y013939D02*
X025541Y013939D01*
X025351Y014177D02*
X025831Y014177D01*
X025831Y014416D02*
X025351Y014416D01*
X025351Y014654D02*
X025831Y014654D01*
X025831Y014893D02*
X025351Y014893D01*
X025351Y015131D02*
X025831Y015131D01*
X025831Y015370D02*
X025385Y015370D01*
X025509Y015608D02*
X025831Y015608D01*
X025831Y015847D02*
X025509Y015847D01*
X025509Y016085D02*
X025831Y016085D01*
X025831Y016324D02*
X025473Y016324D01*
X025226Y016562D02*
X025831Y016562D01*
X025831Y016801D02*
X024351Y016801D01*
X024351Y017039D02*
X025831Y017039D01*
X025831Y017278D02*
X024351Y017278D01*
X024351Y017516D02*
X025831Y017516D01*
X025831Y017755D02*
X024351Y017755D01*
X024351Y017993D02*
X025831Y017993D01*
X025831Y018232D02*
X024631Y018232D01*
X025460Y018470D02*
X025831Y018470D01*
X025831Y018709D02*
X025509Y018709D01*
X025509Y018947D02*
X025831Y018947D01*
X025831Y019186D02*
X025509Y019186D01*
X025418Y019424D02*
X025831Y019424D01*
X024436Y016562D02*
X024351Y016562D01*
X021831Y016413D02*
X021831Y018913D01*
X018457Y017537D02*
X018457Y016846D01*
X018457Y017537D02*
X018331Y017663D01*
X018831Y015413D02*
X016831Y013413D01*
X016831Y012610D01*
X016634Y012413D01*
X018036Y012413D02*
X018036Y012413D01*
X018036Y012508D02*
X018036Y012508D01*
X018036Y012746D02*
X018036Y012746D01*
X018036Y012985D02*
X018036Y012985D01*
X018438Y012985D02*
X019074Y012985D01*
X019074Y012746D02*
X018612Y012746D01*
X018612Y012508D02*
X019074Y012508D01*
X019074Y012269D02*
X018612Y012269D01*
X018612Y012031D02*
X019074Y012031D01*
X019074Y011315D02*
X015391Y011315D01*
X015391Y011077D02*
X019074Y011077D01*
X019074Y010838D02*
X015391Y010838D01*
X015391Y010600D02*
X019074Y010600D01*
X019074Y010361D02*
X015391Y010361D01*
X015391Y010123D02*
X019074Y010123D01*
X019074Y009884D02*
X015391Y009884D01*
X015391Y009646D02*
X019074Y009646D01*
X019074Y009407D02*
X015391Y009407D01*
X015391Y009169D02*
X019074Y009169D01*
X019074Y008930D02*
X015391Y008930D01*
X015391Y008692D02*
X019074Y008692D01*
X019074Y008453D02*
X015391Y008453D01*
X015355Y008215D02*
X019074Y008215D01*
X018887Y007976D02*
X015970Y007976D01*
X016112Y007738D02*
X018838Y007738D01*
X018838Y007499D02*
X016112Y007499D01*
X016112Y007261D02*
X018838Y007261D01*
X018838Y007022D02*
X016110Y007022D01*
X015536Y007022D02*
X015536Y007022D01*
X015536Y007261D02*
X015536Y007261D01*
X015536Y007413D02*
X015536Y007413D01*
X015536Y007499D02*
X015536Y007499D01*
X015536Y007738D02*
X015536Y007738D01*
X015536Y007976D02*
X015536Y007976D01*
X014959Y007738D02*
X014947Y007738D01*
X014930Y007499D02*
X014959Y007499D01*
X014959Y007261D02*
X014930Y007261D01*
X014930Y007022D02*
X014961Y007022D01*
X014839Y006784D02*
X018929Y006784D01*
X019634Y007413D02*
X019634Y014216D01*
X021831Y016413D01*
X021877Y012985D02*
X022133Y012985D01*
X021959Y012746D02*
X021930Y012746D01*
X021930Y012508D02*
X021959Y012508D01*
X021942Y012269D02*
X021959Y012269D01*
X022536Y012269D02*
X022536Y012269D01*
X022536Y012413D02*
X022536Y012413D01*
X022536Y012508D02*
X022536Y012508D01*
X022536Y012746D02*
X022536Y012746D01*
X022536Y012985D02*
X022536Y012985D01*
X022536Y012031D02*
X022536Y012031D01*
X023831Y012163D02*
X024148Y011846D01*
X024457Y011846D01*
X025842Y011792D02*
X026119Y011792D01*
X026648Y012346D02*
X026581Y012413D01*
X026648Y012346D02*
X027457Y012346D01*
X027331Y010913D02*
X027831Y010913D01*
X025033Y009407D02*
X020194Y009407D01*
X020194Y009169D02*
X024795Y009169D01*
X024556Y008930D02*
X020194Y008930D01*
X020194Y008692D02*
X024340Y008692D01*
X024271Y008453D02*
X020194Y008453D01*
X020194Y008215D02*
X024271Y008215D01*
X023887Y007976D02*
X021470Y007976D01*
X021477Y007974D02*
X021421Y007989D01*
X021036Y007989D01*
X021036Y007413D01*
X021612Y007413D01*
X021612Y007798D01*
X021597Y007854D01*
X021568Y007904D01*
X021527Y007945D01*
X021477Y007974D01*
X021612Y007738D02*
X023838Y007738D01*
X023838Y007499D02*
X021612Y007499D01*
X021612Y007413D02*
X021036Y007413D01*
X021036Y007413D01*
X021036Y006837D01*
X021421Y006837D01*
X021477Y006852D01*
X021527Y006881D01*
X021568Y006922D01*
X021597Y006972D01*
X021612Y007028D01*
X021612Y007413D01*
X021612Y007261D02*
X023838Y007261D01*
X023838Y007022D02*
X021610Y007022D01*
X021036Y007022D02*
X021036Y007022D01*
X021036Y006837D02*
X020651Y006837D01*
X020595Y006852D01*
X020544Y006881D01*
X020503Y006922D01*
X020474Y006972D01*
X020459Y007028D01*
X020459Y007413D01*
X021036Y007413D01*
X021036Y007413D01*
X021036Y007413D01*
X021036Y006837D01*
X021036Y007261D02*
X021036Y007261D01*
X021036Y007413D02*
X020459Y007413D01*
X020459Y007798D01*
X020474Y007854D01*
X020503Y007904D01*
X020544Y007945D01*
X020595Y007974D01*
X020651Y007989D01*
X021036Y007989D01*
X021036Y007413D01*
X021036Y007413D01*
X021036Y007499D02*
X021036Y007499D01*
X021036Y007738D02*
X021036Y007738D01*
X021036Y007976D02*
X021036Y007976D01*
X020601Y007976D02*
X020381Y007976D01*
X020430Y007738D02*
X020459Y007738D01*
X020459Y007499D02*
X020430Y007499D01*
X020430Y007261D02*
X020459Y007261D01*
X020461Y007022D02*
X020430Y007022D01*
X020339Y006784D02*
X023929Y006784D01*
X018036Y012031D02*
X018036Y012031D01*
X018036Y012269D02*
X018036Y012269D01*
X014271Y011315D02*
X010391Y011315D01*
X010391Y011077D02*
X014271Y011077D01*
X014271Y010838D02*
X010391Y010838D01*
X010391Y010600D02*
X014271Y010600D01*
X014271Y010361D02*
X010391Y010361D01*
X010391Y010123D02*
X014271Y010123D01*
X014271Y009884D02*
X010391Y009884D01*
X010391Y009646D02*
X014271Y009646D01*
X014271Y009407D02*
X010391Y009407D01*
X010391Y009169D02*
X014271Y009169D01*
X014271Y008930D02*
X010391Y008930D01*
X010391Y008692D02*
X014271Y008692D01*
X014079Y008453D02*
X010391Y008453D01*
X010391Y008215D02*
X013841Y008215D01*
X013387Y007976D02*
X011470Y007976D01*
X011477Y007974D02*
X011421Y007989D01*
X011036Y007989D01*
X011036Y007413D01*
X011612Y007413D01*
X011612Y007798D01*
X011597Y007854D01*
X011568Y007904D01*
X011527Y007945D01*
X011477Y007974D01*
X011612Y007738D02*
X013338Y007738D01*
X013338Y007499D02*
X011612Y007499D01*
X011612Y007413D02*
X011036Y007413D01*
X011036Y007413D01*
X011036Y006837D01*
X011421Y006837D01*
X011477Y006852D01*
X011527Y006881D01*
X011568Y006922D01*
X011597Y006972D01*
X011612Y007028D01*
X011612Y007413D01*
X011612Y007261D02*
X013338Y007261D01*
X013338Y007022D02*
X011610Y007022D01*
X011036Y007022D02*
X011036Y007022D01*
X011036Y006837D02*
X010651Y006837D01*
X010595Y006852D01*
X010544Y006881D01*
X010503Y006922D01*
X010474Y006972D01*
X010459Y007028D01*
X010459Y007413D01*
X011036Y007413D01*
X011036Y007413D01*
X011036Y007413D01*
X011036Y006837D01*
X011036Y007261D02*
X011036Y007261D01*
X011036Y007413D02*
X010459Y007413D01*
X010459Y007798D01*
X010474Y007854D01*
X010503Y007904D01*
X010544Y007945D01*
X010595Y007974D01*
X010651Y007989D01*
X011036Y007989D01*
X011036Y007413D01*
X011036Y007413D01*
X011036Y007499D02*
X011036Y007499D01*
X011036Y007738D02*
X011036Y007738D01*
X011036Y007976D02*
X011036Y007976D01*
X010601Y007976D02*
X010391Y007976D01*
X010430Y007738D02*
X010459Y007738D01*
X010459Y007499D02*
X010430Y007499D01*
X010430Y007261D02*
X010459Y007261D01*
X010461Y007022D02*
X010430Y007022D01*
X010339Y006784D02*
X013429Y006784D01*
X014134Y007413D02*
X014134Y007716D01*
X014831Y008413D01*
X014831Y017413D01*
X012457Y017537D02*
X012457Y016846D01*
X012457Y017537D02*
X012331Y017663D01*
X009831Y016913D02*
X009831Y007610D01*
X009634Y007413D01*
X008271Y006306D02*
X044883Y006306D01*
X044883Y006068D02*
X008271Y006068D01*
X011634Y012413D02*
X011831Y012610D01*
X011831Y012913D01*
X012831Y013913D01*
X012831Y015413D01*
X009457Y017846D02*
X009457Y018287D01*
X009331Y018663D01*
X019964Y026818D02*
X021697Y026818D01*
X022524Y026818D02*
X025831Y026818D01*
X025831Y027056D02*
X023172Y027056D01*
X023448Y027295D02*
X025831Y027295D01*
X025831Y027533D02*
X023686Y027533D01*
X023925Y027772D02*
X025831Y027772D01*
X025831Y028010D02*
X024163Y028010D01*
X024867Y028249D02*
X025831Y028249D01*
X025831Y028487D02*
X025101Y028487D01*
X025236Y028726D02*
X025831Y028726D01*
X025831Y030157D02*
X025157Y030157D01*
X024107Y030157D02*
X024055Y030157D01*
X022931Y028249D02*
X022476Y028249D01*
X027331Y026579D02*
X027910Y026579D01*
X027941Y026505D02*
X028033Y026413D01*
X027941Y026321D01*
X027831Y026056D01*
X027831Y025770D01*
X027941Y025505D01*
X028033Y025413D01*
X027941Y025321D01*
X027831Y025056D01*
X027831Y024770D01*
X027941Y024505D01*
X028033Y024413D01*
X027941Y024321D01*
X027831Y024056D01*
X027831Y023770D01*
X027941Y023505D01*
X028033Y023413D01*
X027967Y023479D02*
X027331Y023479D01*
X027331Y023717D02*
X027853Y023717D01*
X027831Y023956D02*
X027331Y023956D01*
X027331Y024194D02*
X027888Y024194D01*
X028013Y024433D02*
X027331Y024433D01*
X027331Y024671D02*
X027872Y024671D01*
X027831Y024910D02*
X027331Y024910D01*
X027331Y025148D02*
X027869Y025148D01*
X028006Y025387D02*
X027331Y025387D01*
X027331Y025625D02*
X027891Y025625D01*
X027831Y025864D02*
X027331Y025864D01*
X027331Y026102D02*
X027850Y026102D01*
X027960Y026341D02*
X027331Y026341D01*
X027941Y026505D02*
X027831Y026770D01*
X027907Y023240D02*
X027331Y023240D01*
X027331Y023002D02*
X027831Y023002D01*
X027834Y022763D02*
X027331Y022763D01*
X027331Y022525D02*
X027933Y022525D01*
X032748Y021571D02*
X034414Y021571D01*
X033831Y021332D02*
X033831Y021332D01*
X033831Y021094D02*
X033831Y021094D01*
X033486Y021332D02*
X032710Y021332D01*
X032816Y021094D02*
X033291Y021094D01*
X033291Y020855D02*
X032831Y020855D01*
X032767Y020617D02*
X033287Y020617D01*
X033095Y020378D02*
X032594Y020378D01*
X032557Y020140D02*
X033071Y020140D01*
X033071Y019901D02*
X032611Y019901D01*
X032545Y019663D02*
X033071Y019663D01*
X035248Y021571D02*
X035414Y021571D01*
X038349Y017993D02*
X040076Y017993D01*
X040007Y017755D02*
X039532Y017755D01*
X039770Y017516D02*
X040007Y017516D01*
X040009Y017278D02*
X040099Y017278D01*
X040247Y017039D02*
X040290Y017039D01*
X039015Y016801D02*
X038314Y016801D01*
X038139Y015370D02*
X036578Y015370D01*
X036654Y015131D02*
X038378Y015131D01*
X038616Y014893D02*
X037087Y014893D01*
X037325Y014654D02*
X038855Y014654D01*
X039093Y014416D02*
X037564Y014416D01*
X037784Y014177D02*
X039332Y014177D01*
X038581Y013413D02*
X038648Y013346D01*
X039457Y013346D01*
X037946Y012985D02*
X037842Y012985D01*
X037842Y013223D02*
X037903Y013223D01*
X037903Y013462D02*
X037851Y013462D01*
X037851Y013700D02*
X037903Y013700D01*
X037851Y013939D02*
X038009Y013939D01*
X036457Y013346D02*
X035648Y013346D01*
X035581Y013413D01*
X036831Y011913D02*
X036831Y009913D01*
X035134Y008216D01*
X035134Y007413D01*
X035930Y007499D02*
X035959Y007499D01*
X035959Y007413D02*
X036536Y007413D01*
X037112Y007413D01*
X037112Y007798D01*
X037097Y007854D01*
X037068Y007904D01*
X037027Y007945D01*
X036977Y007974D01*
X036921Y007989D01*
X036536Y007989D01*
X036536Y007413D01*
X036536Y007413D01*
X037112Y007413D01*
X037112Y007028D01*
X037097Y006972D01*
X037068Y006922D01*
X037027Y006881D01*
X036977Y006852D01*
X036921Y006837D01*
X036536Y006837D01*
X036536Y007413D01*
X036536Y007413D01*
X036536Y007413D01*
X036536Y006837D01*
X036151Y006837D01*
X036095Y006852D01*
X036044Y006881D01*
X036003Y006922D01*
X035974Y006972D01*
X035959Y007028D01*
X035959Y007413D01*
X035959Y007798D01*
X035974Y007854D01*
X036003Y007904D01*
X036044Y007945D01*
X036095Y007974D01*
X036151Y007989D01*
X036536Y007989D01*
X036536Y007413D01*
X035959Y007413D01*
X035959Y007261D02*
X035930Y007261D01*
X035930Y007022D02*
X035961Y007022D01*
X035839Y006784D02*
X037929Y006784D01*
X037838Y007022D02*
X037110Y007022D01*
X037112Y007261D02*
X037838Y007261D01*
X037838Y007499D02*
X037112Y007499D01*
X037112Y007738D02*
X037838Y007738D01*
X037887Y007976D02*
X036970Y007976D01*
X036536Y007976D02*
X036536Y007976D01*
X036536Y007738D02*
X036536Y007738D01*
X036536Y007499D02*
X036536Y007499D01*
X036536Y007413D02*
X036536Y007413D01*
X036536Y007261D02*
X036536Y007261D01*
X036536Y007022D02*
X036536Y007022D01*
X035959Y007738D02*
X035930Y007738D01*
X035881Y007976D02*
X036101Y007976D01*
X035924Y008215D02*
X038271Y008215D01*
X038271Y008453D02*
X036163Y008453D01*
X036401Y008692D02*
X038340Y008692D01*
X038556Y008930D02*
X036640Y008930D01*
X036878Y009169D02*
X038795Y009169D01*
X039033Y009407D02*
X037117Y009407D01*
X037326Y009646D02*
X039271Y009646D01*
X039271Y009884D02*
X037391Y009884D01*
X037391Y010123D02*
X039271Y010123D01*
X039271Y010361D02*
X037391Y010361D01*
X037391Y010600D02*
X039271Y010600D01*
X039271Y010838D02*
X037391Y010838D01*
X037391Y011077D02*
X039271Y011077D01*
X039271Y011315D02*
X037391Y011315D01*
X037391Y011554D02*
X039271Y011554D01*
X039271Y011792D02*
X037391Y011792D01*
X039831Y011913D02*
X039831Y009413D01*
X038831Y008413D01*
X038831Y007610D01*
X038634Y007413D01*
X039430Y007499D02*
X039459Y007499D01*
X039459Y007413D02*
X040036Y007413D01*
X040612Y007413D01*
X040612Y007798D01*
X040597Y007854D01*
X040568Y007904D01*
X040527Y007945D01*
X040477Y007974D01*
X040421Y007989D01*
X040036Y007989D01*
X040036Y007413D01*
X040036Y007413D01*
X040612Y007413D01*
X040612Y007028D01*
X040597Y006972D01*
X040568Y006922D01*
X040527Y006881D01*
X040477Y006852D01*
X040421Y006837D01*
X040036Y006837D01*
X040036Y007413D01*
X040036Y007413D01*
X040036Y007413D01*
X040036Y006837D01*
X039651Y006837D01*
X039595Y006852D01*
X039544Y006881D01*
X039503Y006922D01*
X039474Y006972D01*
X039459Y007028D01*
X039459Y007413D01*
X039459Y007798D01*
X039474Y007854D01*
X039503Y007904D01*
X039544Y007945D01*
X039595Y007974D01*
X039651Y007989D01*
X040036Y007989D01*
X040036Y007413D01*
X039459Y007413D01*
X039459Y007261D02*
X039430Y007261D01*
X039430Y007022D02*
X039461Y007022D01*
X039339Y006784D02*
X041429Y006784D01*
X041338Y007022D02*
X040610Y007022D01*
X040612Y007261D02*
X041338Y007261D01*
X041338Y007499D02*
X040612Y007499D01*
X040612Y007738D02*
X041338Y007738D01*
X041387Y007976D02*
X040470Y007976D01*
X040036Y007976D02*
X040036Y007976D01*
X040036Y007738D02*
X040036Y007738D01*
X040036Y007499D02*
X040036Y007499D01*
X040036Y007413D02*
X040036Y007413D01*
X040036Y007261D02*
X040036Y007261D01*
X040036Y007022D02*
X040036Y007022D01*
X039459Y007738D02*
X039430Y007738D01*
X039391Y007976D02*
X039601Y007976D01*
X039424Y008215D02*
X041574Y008215D01*
X041574Y008453D02*
X039663Y008453D01*
X039901Y008692D02*
X041574Y008692D01*
X041574Y008930D02*
X040140Y008930D01*
X040336Y009169D02*
X041574Y009169D01*
X041574Y009407D02*
X040391Y009407D01*
X040391Y009646D02*
X041574Y009646D01*
X041574Y009884D02*
X040391Y009884D01*
X040391Y010123D02*
X041574Y010123D01*
X041574Y010361D02*
X040391Y010361D01*
X040391Y010600D02*
X041574Y010600D01*
X041574Y010838D02*
X040391Y010838D01*
X040391Y011077D02*
X041574Y011077D01*
X041574Y011315D02*
X040391Y011315D01*
X040391Y011554D02*
X041680Y011554D01*
X041918Y011792D02*
X040391Y011792D01*
X042134Y011216D02*
X042831Y011913D01*
X043263Y011554D02*
X044883Y011554D01*
X044883Y011792D02*
X043387Y011792D01*
X043025Y011315D02*
X044883Y011315D01*
X044883Y011077D02*
X042786Y011077D01*
X042694Y010838D02*
X044883Y010838D01*
X044883Y010600D02*
X042694Y010600D01*
X042694Y010361D02*
X044883Y010361D01*
X044883Y010123D02*
X042694Y010123D01*
X042694Y009884D02*
X044883Y009884D01*
X044883Y009646D02*
X042694Y009646D01*
X042694Y009407D02*
X044883Y009407D01*
X044883Y009169D02*
X042694Y009169D01*
X042694Y008930D02*
X044883Y008930D01*
X044883Y008692D02*
X042694Y008692D01*
X042694Y008453D02*
X044883Y008453D01*
X044883Y008215D02*
X042694Y008215D01*
X042134Y007413D02*
X042134Y011216D01*
X031030Y014416D02*
X029632Y014416D01*
X029783Y014654D02*
X030879Y014654D01*
X030831Y014893D02*
X029831Y014893D01*
X029800Y015131D02*
X030862Y015131D01*
X036361Y026323D02*
X036361Y026603D01*
X036361Y026323D01*
X036361Y026341D02*
X036361Y026341D01*
X036361Y026579D02*
X036361Y026579D01*
X036361Y026603D02*
X036361Y026603D01*
X036885Y026341D02*
X037131Y026341D01*
X037131Y026579D02*
X037016Y026579D01*
D26*
X036361Y026663D02*
X036331Y026663D01*
X036331Y025913D01*
X035331Y025913D01*
X034331Y026413D02*
X034331Y026633D01*
X034301Y026663D01*
X034331Y026413D02*
X034081Y026163D01*
X034301Y027163D02*
X033581Y027163D01*
X032331Y025913D01*
X031831Y025913D01*
X031831Y026913D02*
X032581Y026913D01*
X033331Y027663D01*
X034301Y027663D01*
X034331Y028163D02*
X034301Y028163D01*
X033081Y028163D01*
X032831Y027913D01*
X031831Y027913D01*
X030331Y026913D02*
X029331Y027913D01*
X028831Y027913D01*
X027331Y029413D01*
X027280Y029413D01*
X024632Y029413D01*
X024632Y028714D01*
X024132Y028714D01*
X022941Y027523D01*
X022831Y027523D01*
X022111Y027523D01*
X019551Y027523D01*
X019081Y025663D02*
X023081Y021663D01*
X027331Y021663D01*
X027581Y021913D01*
X026882Y020913D02*
X026882Y020862D01*
X027831Y019913D01*
X028831Y019913D01*
X031831Y018913D02*
X034331Y018913D01*
X034831Y019413D01*
X034831Y019913D01*
X035831Y019913D02*
X036331Y019913D01*
X037331Y020913D01*
X037331Y021913D01*
X035831Y023413D01*
X030831Y023413D01*
X030331Y023913D01*
X030331Y026913D01*
X033081Y024913D02*
X039957Y024913D01*
X040831Y025537D01*
X037831Y026913D02*
X037581Y027163D01*
X036361Y027163D01*
X036361Y027663D02*
X037581Y027663D01*
X037831Y027913D01*
X036361Y028163D02*
X036361Y028883D01*
X036331Y028913D01*
X025780Y020913D02*
X022831Y020913D01*
X018081Y025663D01*
X015331Y024413D02*
X010331Y019413D01*
X010205Y019413D01*
X010205Y017846D01*
X009831Y016980D02*
X009831Y016913D01*
X012831Y015980D02*
X012831Y015413D01*
X013205Y016846D02*
X013331Y016846D01*
X013331Y019913D01*
X016831Y023413D01*
X017081Y022663D02*
X017581Y022663D01*
X017081Y022663D02*
X016331Y021913D01*
X016331Y020346D01*
X016205Y020346D01*
X015831Y019480D02*
X015831Y018413D01*
X014831Y017413D01*
X018831Y015980D02*
X018831Y015413D01*
X019205Y016846D02*
X019331Y016846D01*
X019331Y021413D01*
X019331Y021862D01*
X021831Y021163D02*
X021831Y020472D01*
X021705Y020346D01*
X021331Y019480D02*
X021331Y018913D01*
X021831Y018913D01*
X023831Y018413D02*
X023831Y013220D01*
X024831Y013913D02*
X025831Y012913D01*
X030638Y012913D01*
X031205Y012346D01*
X030831Y011480D02*
X030831Y010913D01*
X028831Y012413D02*
X028272Y012413D01*
X028205Y012346D01*
X027831Y011480D02*
X027831Y010913D01*
X024831Y010980D02*
X024831Y010413D01*
X026331Y013413D02*
X032331Y013413D01*
X033831Y013413D01*
X034331Y012913D01*
X034331Y012472D01*
X034205Y012346D01*
X033831Y011480D02*
X033831Y010913D01*
X036831Y011913D02*
X036831Y012480D01*
X037205Y013346D02*
X037264Y013346D01*
X037331Y013413D01*
X037331Y013913D01*
X036689Y014555D01*
X036132Y014555D01*
X036024Y015913D02*
X038331Y015913D01*
X040081Y014163D01*
X040081Y013470D01*
X040205Y013346D01*
X039831Y012480D02*
X039831Y011913D01*
X042831Y011913D02*
X042831Y012480D01*
X043205Y013346D02*
X039138Y017413D01*
X037831Y017413D01*
X024831Y018913D02*
X023831Y018413D01*
X024831Y015913D02*
X024831Y013913D01*
X013331Y025913D02*
X011331Y023913D01*
X008831Y023913D01*
X008901Y024913D02*
X008831Y024983D01*
X008901Y024913D02*
X010831Y024913D01*
X011831Y025913D01*
X022111Y029303D02*
X022221Y029413D01*
X023530Y029413D01*
D27*
X013485Y029259D02*
X013485Y028413D01*
X013485Y029259D02*
X013331Y029413D01*
D28*
X023831Y013220D02*
X025205Y011846D01*
M02*
