G75*
G70*
%OFA0B0*%
%FSLAX24Y24*%
%IPPOS*%
%LPD*%
%AMOC8*
5,1,8,0,0,1.08239X$1,22.5*
%
%ADD10C,0.0060*%
D10*
X012143Y018443D02*
X012570Y018443D01*
X012570Y019084D01*
X013215Y019084D02*
X013215Y018443D01*
X012788Y018443D01*
X013431Y018443D02*
X013645Y018443D01*
X013538Y018443D02*
X013538Y019084D01*
X013645Y019084D02*
X013431Y019084D01*
X013862Y019084D02*
X014289Y019084D01*
X014289Y018443D01*
X014289Y018763D02*
X014076Y018763D01*
X015151Y018550D02*
X015151Y018977D01*
X015258Y019084D01*
X015578Y019084D01*
X015578Y018443D01*
X015258Y018443D01*
X015151Y018550D01*
X015796Y018443D02*
X015796Y019084D01*
X016223Y019084D02*
X015796Y018443D01*
X016223Y018443D02*
X016223Y019084D01*
X016440Y019084D02*
X016440Y018550D01*
X016547Y018443D01*
X016761Y018443D01*
X016867Y018550D01*
X016867Y019084D01*
X017085Y018977D02*
X017192Y019084D01*
X017405Y019084D01*
X017512Y018977D01*
X017512Y018550D01*
X017405Y018443D01*
X017192Y018443D01*
X017085Y018550D01*
X017085Y018977D01*
X017729Y018977D02*
X017729Y018763D01*
X017836Y018657D01*
X018156Y018657D01*
X017943Y018657D02*
X017729Y018443D01*
X018156Y018443D02*
X018156Y019084D01*
X017836Y019084D01*
X017729Y018977D01*
X018374Y018977D02*
X018481Y019084D01*
X018694Y019084D01*
X018801Y018977D01*
X018801Y018550D01*
X018694Y018443D01*
X018481Y018443D01*
X018374Y018550D01*
X018374Y018763D01*
X018587Y018763D01*
X029911Y017975D02*
X029911Y017548D01*
X030338Y017975D01*
X030445Y017975D01*
X030552Y017869D01*
X030552Y017655D01*
X030445Y017548D01*
X030445Y017331D02*
X030552Y017224D01*
X030552Y017011D01*
X030445Y016904D01*
X030018Y016904D01*
X029911Y017011D01*
X029911Y017224D01*
X030018Y017331D01*
X033336Y022443D02*
X033229Y022550D01*
X033229Y022763D01*
X033336Y022870D01*
X033443Y022870D01*
X033656Y022763D01*
X033656Y023084D01*
X033229Y023084D01*
X033336Y022443D02*
X033550Y022443D01*
X033656Y022550D01*
X033874Y022550D02*
X033981Y022443D01*
X034194Y022443D01*
X034301Y022550D01*
X034301Y022977D01*
X034194Y023084D01*
X033981Y023084D01*
X033874Y022977D01*
X035771Y024853D02*
X035771Y025173D01*
X035991Y025173D01*
X036671Y025173D02*
X036891Y025173D01*
X036891Y024853D01*
X038336Y025943D02*
X038336Y026584D01*
X038656Y026263D01*
X038229Y026263D01*
X038874Y026050D02*
X038981Y025943D01*
X039194Y025943D01*
X039301Y026050D01*
X039301Y026477D01*
X039194Y026584D01*
X038981Y026584D01*
X038874Y026477D01*
X030552Y024619D02*
X030552Y024405D01*
X030445Y024298D01*
X030445Y024081D02*
X030552Y023974D01*
X030552Y023761D01*
X030445Y023654D01*
X030018Y023654D01*
X029911Y023761D01*
X029911Y023974D01*
X030018Y024081D01*
X030018Y024298D02*
X029911Y024405D01*
X029911Y024619D01*
X030018Y024725D01*
X030124Y024725D01*
X030231Y024619D01*
X030231Y024512D01*
X030231Y024619D02*
X030338Y024725D01*
X030445Y024725D01*
X030552Y024619D01*
M02*
