%
M48
M72
T01C0.0276
T02C0.0320
T03C0.0400
T04C0.0472
T05C0.0512
%
T01
X23831Y12163
X26280Y13464
X26581Y12413
X28831Y12413
X29581Y12413
X32581Y12413
X35581Y13413
X36132Y14555
X36024Y15913
X37831Y17413
X39831Y20413
X35331Y25913
X34081Y26163
X36331Y28913
X30331Y22913
X27831Y20663
X24831Y18913
X21831Y21163
X21081Y21163
X19331Y21862
X17581Y22663
X16831Y23413
X15331Y24413
X13331Y25913
X11831Y25913
X13331Y29413
X18081Y25663
X19081Y25663
X15581Y21163
X18331Y17663
X12331Y17663
X9331Y18663
X24831Y15913
X38581Y13413
X41581Y13413
T02
X31831Y14913
X31831Y15913
X31831Y16913
X31831Y17913
X31831Y18913
X31831Y19913
X31831Y20913
X31831Y21913
X31831Y22913
X31831Y23913
X31831Y24913
X31831Y25913
X31831Y26913
X31831Y27913
X28831Y27913
X28831Y26913
X28831Y25913
X28831Y24913
X28831Y23913
X28831Y22913
X28831Y21913
X28831Y20913
X28831Y19913
X28831Y18913
X28831Y17913
X28831Y16913
X28831Y15913
X28831Y14913
X37831Y26913
X37831Y27913
T03
X33081Y28913
X33081Y24913
X33831Y20913
X34831Y20913
X35831Y20913
X35831Y19913
X34831Y19913
X33831Y19913
X22111Y27523
X22111Y29303
X19551Y29303
X19551Y27523
X8831Y24983
X8831Y23913
X8831Y22843
T04
X9634Y7413
X11036Y7413
X14134Y7413
X15536Y7413
X19634Y7413
X21036Y7413
X24634Y7413
X26036Y7413
X28134Y7413
X29536Y7413
X31634Y7413
X33036Y7413
X35134Y7413
X36536Y7413
X38634Y7413
X40036Y7413
X42134Y7413
X43536Y7413
X22536Y12413
X21134Y12413
X18036Y12413
X16634Y12413
X13036Y12413
X11634Y12413
T05
X10544Y26523
X9441Y28413
X11725Y28413
X40831Y25537
X40831Y17663
M30
