G75*
G70*
%OFA0B0*%
%FSLAX24Y24*%
%IPPOS*%
%LPD*%
%AMOC8*
5,1,8,0,0,1.08239X$1,22.5*
%
%ADD10C,0.0120*%
%ADD11C,0.0560*%
%ADD12R,0.0640X0.0640*%
%ADD13OC8,0.0640*%
%ADD14C,0.0560*%
%ADD15R,0.0630X0.0709*%
%ADD16R,0.0394X0.0551*%
%ADD17C,0.0768*%
%ADD18R,0.0709X0.0630*%
%ADD19R,0.0712X0.0712*%
%ADD20C,0.0740*%
%ADD21C,0.0160*%
%ADD22R,0.0476X0.0476*%
%ADD23C,0.0240*%
%ADD24C,0.0320*%
D10*
X009236Y008973D02*
X010157Y008973D01*
X009697Y008973D02*
X009697Y010354D01*
X010157Y009894D01*
X011999Y009894D02*
X012459Y008973D01*
X012920Y009894D01*
X013380Y009664D02*
X013380Y009433D01*
X014301Y009433D01*
X014301Y009203D02*
X014301Y009664D01*
X014071Y009894D01*
X013610Y009894D01*
X013380Y009664D01*
X014071Y008973D02*
X014301Y009203D01*
X014071Y008973D02*
X013610Y008973D01*
X014761Y008973D02*
X015222Y009433D01*
X014991Y009433D02*
X014761Y009664D01*
X014761Y010124D01*
X014991Y010354D01*
X015682Y010354D01*
X015682Y008973D01*
X015682Y009433D02*
X014991Y009433D01*
X017523Y008973D02*
X018444Y009894D01*
X018905Y009664D02*
X018905Y008973D01*
X019595Y008973D01*
X019825Y009203D01*
X019595Y009433D01*
X018905Y009433D01*
X018905Y009664D02*
X019135Y009894D01*
X019595Y009894D01*
X020286Y009664D02*
X020286Y008973D01*
X020746Y008973D02*
X020746Y009664D01*
X020516Y009894D01*
X020286Y009664D01*
X020746Y009664D02*
X020976Y009894D01*
X021207Y009894D01*
X021207Y008973D01*
X021667Y008973D02*
X022358Y008973D01*
X022588Y009203D01*
X022358Y009433D01*
X021667Y009433D01*
X021667Y009664D02*
X021667Y008973D01*
X021667Y009664D02*
X021897Y009894D01*
X022358Y009894D01*
X023048Y009894D02*
X023509Y009894D01*
X023278Y010124D02*
X023278Y009203D01*
X023048Y008973D01*
X023969Y009433D02*
X024890Y009433D01*
X024890Y009203D02*
X024890Y009664D01*
X024660Y009894D01*
X024199Y009894D01*
X023969Y009664D01*
X023969Y009433D01*
X024199Y008973D02*
X024660Y008973D01*
X024890Y009203D01*
X025350Y009203D02*
X025350Y009433D01*
X025580Y009664D01*
X026271Y009664D01*
X025580Y009664D02*
X025350Y009894D01*
X025350Y010124D01*
X025580Y010354D01*
X026271Y010354D01*
X026271Y008973D01*
X025580Y008973D01*
X025350Y009203D01*
X018444Y008973D02*
X017523Y009894D01*
D11*
X028551Y014913D02*
X029111Y014913D01*
X029111Y015913D02*
X028551Y015913D01*
X028551Y016913D02*
X029111Y016913D01*
X029111Y017913D02*
X028551Y017913D01*
X028551Y018913D02*
X029111Y018913D01*
X029111Y019913D02*
X028551Y019913D01*
X028551Y020913D02*
X029111Y020913D01*
X029111Y021913D02*
X028551Y021913D01*
X028551Y022913D02*
X029111Y022913D01*
X029111Y023913D02*
X028551Y023913D01*
X028551Y024913D02*
X029111Y024913D01*
X029111Y025913D02*
X028551Y025913D01*
X028551Y026913D02*
X029111Y026913D01*
X029111Y027913D02*
X028551Y027913D01*
X031551Y027913D02*
X032111Y027913D01*
X032111Y026913D02*
X031551Y026913D01*
X031551Y025913D02*
X032111Y025913D01*
X032111Y024913D02*
X031551Y024913D01*
X031551Y023913D02*
X032111Y023913D01*
X032111Y022913D02*
X031551Y022913D01*
X031551Y021913D02*
X032111Y021913D01*
X032111Y020913D02*
X031551Y020913D01*
X031551Y019913D02*
X032111Y019913D01*
X032111Y018913D02*
X031551Y018913D01*
X031551Y017913D02*
X032111Y017913D01*
X032111Y016913D02*
X031551Y016913D01*
X031551Y015913D02*
X032111Y015913D01*
X032111Y014913D02*
X031551Y014913D01*
D12*
X033831Y019913D03*
D13*
X034831Y019913D03*
X035831Y019913D03*
X035831Y020913D03*
X034831Y020913D03*
X033831Y020913D03*
D14*
X037831Y026913D03*
X037831Y027913D03*
D15*
X037780Y025413D03*
X038882Y025413D03*
X036382Y022913D03*
X035280Y022913D03*
X035382Y017413D03*
X034280Y017413D03*
X034280Y015913D03*
X035382Y015913D03*
X035382Y014413D03*
X034280Y014413D03*
X027382Y014413D03*
X026280Y014413D03*
X025780Y015913D03*
X026882Y015913D03*
X026882Y017413D03*
X025780Y017413D03*
X025780Y018913D03*
X026882Y018913D03*
X026882Y020913D03*
X025780Y020913D03*
X025780Y022413D03*
X026882Y022413D03*
X026882Y023913D03*
X025780Y023913D03*
X025780Y025413D03*
X026882Y025413D03*
X026882Y026913D03*
X025780Y026913D03*
D16*
X035957Y024480D03*
X036705Y024480D03*
X036331Y025346D03*
D17*
X040831Y025537D03*
X040831Y017663D03*
X011725Y028413D03*
X009441Y028413D03*
X010544Y026523D03*
D18*
X030331Y022214D03*
X030331Y021112D03*
X030331Y019964D03*
X030331Y018862D03*
X038581Y020362D03*
X038581Y021464D03*
X038581Y022862D03*
X038581Y023964D03*
D19*
X022536Y012413D03*
X021134Y012413D03*
X018036Y012413D03*
X016634Y012413D03*
X013036Y012413D03*
X011634Y012413D03*
X011036Y007413D03*
X009634Y007413D03*
X014134Y007413D03*
X015536Y007413D03*
X019634Y007413D03*
X021036Y007413D03*
X024634Y007413D03*
X026036Y007413D03*
X028134Y007413D03*
X029536Y007413D03*
X031634Y007413D03*
X033036Y007413D03*
X035134Y007413D03*
X036536Y007413D03*
X038634Y007413D03*
X040036Y007413D03*
X042134Y007413D03*
X043536Y007413D03*
D20*
X033081Y024913D03*
X033081Y028913D03*
X022111Y029303D03*
X022111Y027523D03*
X019551Y027523D03*
X019551Y029303D03*
X008831Y024983D03*
X008831Y023913D03*
X008831Y022843D03*
D21*
X011831Y025913D02*
X012331Y026413D01*
X018331Y026413D01*
X019081Y025663D01*
X018081Y025663D02*
X017831Y025913D01*
X013331Y025913D01*
X024081Y016663D02*
X024831Y017413D01*
X024081Y016663D02*
X024081Y013663D01*
X025831Y011913D01*
X028831Y011913D01*
X028831Y012413D01*
X027382Y014413D02*
X027882Y014913D01*
X028831Y014913D01*
X028831Y015913D02*
X026882Y015913D01*
X027831Y016913D02*
X028831Y016913D01*
X027831Y016913D02*
X027331Y017413D01*
X026882Y017413D01*
X028331Y017913D02*
X028831Y017913D01*
X028331Y017913D02*
X027331Y018913D01*
X026882Y018913D01*
X026882Y020913D02*
X027831Y021862D01*
X027831Y022413D01*
X028331Y022913D01*
X028831Y022913D01*
X028831Y023913D02*
X028382Y023913D01*
X026882Y022413D01*
X026882Y023913D02*
X027331Y023913D01*
X028331Y024913D01*
X028831Y024913D01*
X028831Y025913D02*
X027831Y025913D01*
X027331Y025413D01*
X026882Y025413D01*
X026882Y026913D02*
X028831Y026913D01*
X033081Y026913D02*
X034081Y026163D01*
X033081Y026913D02*
X033081Y028913D01*
X035331Y025913D02*
X035331Y023913D01*
X036331Y025346D02*
X036398Y025413D01*
X037780Y025413D02*
X037780Y024964D01*
X038581Y024163D02*
X038581Y023964D01*
X038581Y021663D02*
X038581Y021464D01*
X038581Y020362D02*
X038780Y020362D01*
X035331Y020913D02*
X035331Y018913D01*
X034331Y017913D01*
X034331Y017464D01*
X034280Y017413D01*
X032831Y017413D01*
X032331Y016913D01*
X031831Y016913D01*
X031831Y017913D02*
X032831Y017913D01*
X033831Y018913D01*
X033831Y019913D01*
X034831Y020913D02*
X035331Y020913D01*
X031831Y019913D02*
X030780Y019913D01*
X030331Y019964D01*
X030331Y022214D02*
X030331Y022913D01*
X031831Y015913D02*
X034280Y015913D01*
X033780Y014913D02*
X034280Y014413D01*
X033780Y014913D02*
X031831Y014913D01*
D22*
X032581Y012413D03*
X029581Y012413D03*
X028831Y012413D03*
X026581Y012413D03*
X026280Y013464D03*
X023831Y012163D03*
X024831Y015913D03*
X024831Y018913D03*
X027831Y020663D03*
X030331Y022913D03*
X034081Y026163D03*
X035331Y025913D03*
X036331Y028913D03*
X039831Y020413D03*
X037831Y017413D03*
X036024Y015913D03*
X036132Y014555D03*
X035581Y013413D03*
X038581Y013413D03*
X041581Y013413D03*
X021831Y021163D03*
X021081Y021163D03*
X019331Y021862D03*
X017581Y022663D03*
X016831Y023413D03*
X015331Y024413D03*
X013331Y025913D03*
X011831Y025913D03*
X013331Y029413D03*
X018081Y025663D03*
X019081Y025663D03*
X015581Y021163D03*
X018331Y017663D03*
X012331Y017663D03*
X009331Y018663D03*
D23*
X008271Y022657D02*
X008271Y005853D01*
X044883Y005853D01*
X044883Y030343D01*
X008271Y030343D01*
X008271Y030292D01*
X013255Y030292D01*
X013426Y030221D01*
X013557Y030090D01*
X013628Y029919D01*
X013628Y029733D01*
X013557Y029562D01*
X013426Y029431D01*
X013255Y029360D01*
X008271Y029360D01*
X008271Y025569D01*
X008372Y025670D01*
X008670Y025793D01*
X008992Y025793D01*
X009290Y025670D01*
X009518Y025442D01*
X009641Y025144D01*
X009641Y024822D01*
X009518Y024524D01*
X009441Y024448D01*
X009518Y024372D01*
X009641Y024074D01*
X009641Y023752D01*
X009518Y023454D01*
X009290Y023226D01*
X009284Y023224D01*
X009336Y023152D01*
X009378Y023069D01*
X009406Y022981D01*
X009421Y022889D01*
X009421Y022843D01*
X008831Y022843D01*
X008831Y022843D01*
X009421Y022843D01*
X009421Y022797D01*
X009406Y022705D01*
X009378Y022617D01*
X009336Y022534D01*
X009281Y022459D01*
X009215Y022393D01*
X009140Y022338D01*
X009057Y022296D01*
X008969Y022268D01*
X008877Y022253D01*
X008831Y022253D01*
X008831Y022843D01*
X008831Y022843D01*
X008831Y022253D01*
X008785Y022253D01*
X008693Y022268D01*
X008604Y022296D01*
X008522Y022338D01*
X008447Y022393D01*
X008381Y022459D01*
X008326Y022534D01*
X008284Y022617D01*
X008271Y022657D01*
X008271Y022525D02*
X008333Y022525D01*
X008271Y022286D02*
X008636Y022286D01*
X008831Y022286D02*
X008831Y022286D01*
X009026Y022286D02*
X016925Y022286D01*
X016903Y022338D02*
X016970Y022176D01*
X017094Y022052D01*
X017256Y021985D01*
X017906Y021985D01*
X018068Y022052D01*
X018119Y022103D01*
X018653Y022103D01*
X018653Y021536D01*
X018720Y021375D01*
X018844Y021251D01*
X019006Y021184D01*
X019656Y021184D01*
X019818Y021251D01*
X019874Y021307D01*
X021153Y021319D01*
X021153Y020838D01*
X021220Y020676D01*
X021344Y020552D01*
X021506Y020485D01*
X021717Y020485D01*
X021764Y020438D01*
X021970Y020353D01*
X025074Y020353D01*
X025092Y020309D01*
X025216Y020186D01*
X025377Y020119D01*
X026182Y020119D01*
X026331Y020180D01*
X026480Y020119D01*
X027285Y020119D01*
X027446Y020186D01*
X027570Y020309D01*
X027637Y020471D01*
X027637Y020933D01*
X028075Y021371D01*
X028143Y021303D01*
X028207Y021276D01*
X028170Y021239D01*
X028123Y021175D01*
X028088Y021105D01*
X028063Y021030D01*
X028051Y020952D01*
X028051Y020913D01*
X028831Y020913D01*
X029611Y020913D01*
X029611Y020952D01*
X029599Y021030D01*
X029574Y021105D01*
X029539Y021175D01*
X029492Y021239D01*
X029455Y021276D01*
X029519Y021303D01*
X029721Y021505D01*
X029730Y021525D01*
X029771Y021508D01*
X029757Y021456D01*
X029757Y021149D01*
X030293Y021149D01*
X030293Y021074D01*
X029757Y021074D01*
X029757Y020768D01*
X029772Y020712D01*
X029791Y020678D01*
X029727Y020652D01*
X029604Y020528D01*
X029577Y020465D01*
X029519Y020523D01*
X029455Y020550D01*
X029492Y020587D01*
X029539Y020651D01*
X029574Y020721D01*
X029599Y020796D01*
X029611Y020874D01*
X029611Y020913D01*
X028831Y020913D01*
X028831Y020913D01*
X028831Y020913D01*
X028051Y020913D01*
X028051Y020874D01*
X028063Y020796D01*
X028088Y020721D01*
X028123Y020651D01*
X028170Y020587D01*
X028207Y020550D01*
X028143Y020523D01*
X027941Y020321D01*
X027831Y020056D01*
X027831Y019770D01*
X027941Y019505D01*
X028033Y019413D01*
X027941Y019321D01*
X027858Y019121D01*
X027772Y019208D01*
X027637Y019342D01*
X027637Y019355D01*
X027570Y019517D01*
X027446Y019640D01*
X027285Y019707D01*
X026480Y019707D01*
X026331Y019646D01*
X026182Y019707D01*
X025377Y019707D01*
X025216Y019640D01*
X025163Y019588D01*
X025156Y019591D01*
X024506Y019591D01*
X024344Y019524D01*
X024220Y019400D01*
X024153Y019238D01*
X024153Y018588D01*
X024220Y018426D01*
X024344Y018302D01*
X024506Y018235D01*
X025156Y018235D01*
X025163Y018238D01*
X025216Y018186D01*
X025270Y018163D01*
X025216Y018140D01*
X025092Y018017D01*
X025074Y017973D01*
X024720Y017973D01*
X024514Y017888D01*
X024356Y017730D01*
X024316Y017634D01*
X023786Y017104D01*
X023640Y016958D01*
X023561Y016766D01*
X023561Y013560D01*
X023640Y013368D01*
X023786Y013222D01*
X023786Y013222D01*
X025390Y011618D01*
X025536Y011472D01*
X025728Y011393D01*
X028934Y011393D01*
X029126Y011472D01*
X029272Y011618D01*
X029351Y011810D01*
X029351Y011835D01*
X029442Y011926D01*
X029509Y012088D01*
X029509Y012738D01*
X029442Y012900D01*
X029318Y013024D01*
X029156Y013091D01*
X028506Y013091D01*
X028344Y013024D01*
X028220Y012900D01*
X028153Y012738D01*
X028153Y012433D01*
X026046Y012433D01*
X024601Y013878D01*
X024601Y015235D01*
X025156Y015235D01*
X025163Y015238D01*
X025216Y015186D01*
X025377Y015119D01*
X025694Y015119D01*
X025592Y015017D01*
X025525Y014855D01*
X025525Y013971D01*
X025592Y013809D01*
X025605Y013796D01*
X025602Y013789D01*
X025602Y013139D01*
X025669Y012977D01*
X025793Y012853D01*
X025954Y012786D01*
X026605Y012786D01*
X026767Y012853D01*
X026891Y012977D01*
X026958Y013139D01*
X026958Y013628D01*
X026980Y013619D01*
X027785Y013619D01*
X027946Y013686D01*
X028070Y013809D01*
X028137Y013971D01*
X028137Y014309D01*
X028143Y014303D01*
X028408Y014193D01*
X029254Y014193D01*
X029519Y014303D01*
X029721Y014505D01*
X029831Y014770D01*
X029831Y015056D01*
X029721Y015321D01*
X029629Y015413D01*
X029721Y015505D01*
X029831Y015770D01*
X029831Y016056D01*
X029721Y016321D01*
X029629Y016413D01*
X029721Y016505D01*
X029831Y016770D01*
X029831Y017056D01*
X029721Y017321D01*
X029629Y017413D01*
X029721Y017505D01*
X029831Y017770D01*
X029831Y018056D01*
X029721Y018321D01*
X029629Y018413D01*
X029721Y018505D01*
X029757Y018590D01*
X029757Y018518D01*
X029772Y018462D01*
X029801Y018412D01*
X029842Y018371D01*
X029892Y018342D01*
X029948Y018327D01*
X030293Y018327D01*
X030293Y018824D01*
X030368Y018824D01*
X030368Y018327D01*
X030714Y018327D01*
X030770Y018342D01*
X030820Y018371D01*
X030861Y018412D01*
X030890Y018462D01*
X030905Y018518D01*
X030905Y018590D01*
X030941Y018505D01*
X031033Y018413D01*
X030941Y018321D01*
X030831Y018056D01*
X030831Y017770D01*
X030941Y017505D01*
X031033Y017413D01*
X030941Y017321D01*
X030831Y017056D01*
X030831Y016770D01*
X030941Y016505D01*
X031033Y016413D01*
X030941Y016321D01*
X030831Y016056D01*
X030831Y015770D01*
X030941Y015505D01*
X031033Y015413D01*
X030941Y015321D01*
X030831Y015056D01*
X030831Y014770D01*
X030941Y014505D01*
X031143Y014303D01*
X031408Y014193D01*
X032254Y014193D01*
X032519Y014303D01*
X032609Y014393D01*
X033525Y014393D01*
X033525Y013971D01*
X033592Y013809D01*
X033716Y013686D01*
X033877Y013619D01*
X034682Y013619D01*
X034831Y013680D01*
X034980Y013619D01*
X035785Y013619D01*
X035946Y013686D01*
X036070Y013809D01*
X036098Y013877D01*
X036457Y013877D01*
X036619Y013944D01*
X036743Y014068D01*
X036810Y014229D01*
X036810Y014880D01*
X036743Y015042D01*
X036619Y015166D01*
X036457Y015233D01*
X035993Y015233D01*
X035996Y015235D01*
X036349Y015235D01*
X036511Y015302D01*
X036635Y015426D01*
X036702Y015588D01*
X036702Y016238D01*
X036635Y016400D01*
X036511Y016524D01*
X036349Y016591D01*
X035996Y016591D01*
X035946Y016640D01*
X035892Y016663D01*
X035946Y016686D01*
X036070Y016809D01*
X036088Y016853D01*
X037293Y016853D01*
X037344Y016802D01*
X037506Y016735D01*
X038156Y016735D01*
X038318Y016802D01*
X038442Y016926D01*
X038509Y017088D01*
X038509Y017738D01*
X038442Y017900D01*
X038318Y018024D01*
X038156Y018091D01*
X037506Y018091D01*
X037344Y018024D01*
X037293Y017973D01*
X036088Y017973D01*
X036070Y018017D01*
X035946Y018140D01*
X035785Y018207D01*
X035361Y018207D01*
X035772Y018618D01*
X035851Y018810D01*
X035851Y019153D01*
X036146Y019153D01*
X036591Y019598D01*
X036591Y020228D01*
X036250Y020569D01*
X036371Y020689D01*
X036371Y020913D01*
X036371Y021137D01*
X036055Y021453D01*
X035831Y021453D01*
X035831Y021065D01*
X035831Y021453D01*
X035607Y021453D01*
X035543Y021388D01*
X035434Y021433D01*
X035386Y021433D01*
X035146Y021673D01*
X034516Y021673D01*
X034331Y021488D01*
X034146Y021673D01*
X033516Y021673D01*
X033071Y021228D01*
X033071Y020598D01*
X033162Y020507D01*
X033138Y020482D01*
X033071Y020321D01*
X033071Y019505D01*
X033138Y019344D01*
X033262Y019220D01*
X033311Y019200D01*
X033311Y019128D01*
X032745Y018563D01*
X032831Y018770D01*
X032831Y019056D01*
X032721Y019321D01*
X032629Y019413D01*
X032721Y019505D01*
X032831Y019770D01*
X032831Y020056D01*
X032721Y020321D01*
X032629Y020413D01*
X032721Y020505D01*
X032831Y020770D01*
X032831Y021056D01*
X032721Y021321D01*
X032519Y021523D01*
X032455Y021550D01*
X032492Y021587D01*
X032539Y021651D01*
X032574Y021721D01*
X032599Y021796D01*
X032611Y021874D01*
X032611Y021913D01*
X032611Y021952D01*
X032599Y022030D01*
X032574Y022105D01*
X032539Y022175D01*
X032492Y022239D01*
X032455Y022276D01*
X032519Y022303D01*
X032721Y022505D01*
X032831Y022770D01*
X032831Y023056D01*
X032721Y023321D01*
X032629Y023413D01*
X032721Y023505D01*
X032831Y023770D01*
X032831Y024056D01*
X032789Y024157D01*
X032920Y024103D01*
X033242Y024103D01*
X033540Y024226D01*
X033768Y024454D01*
X033891Y024752D01*
X033891Y025074D01*
X033768Y025372D01*
X033540Y025600D01*
X033242Y025723D01*
X032920Y025723D01*
X032789Y025669D01*
X032831Y025770D01*
X032831Y026056D01*
X032721Y026321D01*
X032629Y026413D01*
X032721Y026505D01*
X032730Y026526D01*
X032739Y026519D01*
X032786Y026472D01*
X032821Y026458D01*
X033403Y026021D01*
X033403Y025838D01*
X033470Y025676D01*
X033594Y025552D01*
X033756Y025485D01*
X034406Y025485D01*
X034568Y025552D01*
X034653Y025637D01*
X034653Y025588D01*
X034720Y025426D01*
X034811Y025335D01*
X034811Y024185D01*
X034805Y024179D01*
X034720Y023973D01*
X034720Y023642D01*
X034716Y023640D01*
X034592Y023517D01*
X034525Y023355D01*
X034525Y022471D01*
X034592Y022309D01*
X034716Y022186D01*
X034877Y022119D01*
X035682Y022119D01*
X035844Y022186D01*
X035968Y022309D01*
X035986Y022353D01*
X036038Y022339D01*
X036345Y022339D01*
X036345Y022876D01*
X036420Y022876D01*
X036420Y022950D01*
X036917Y022950D01*
X036917Y023296D01*
X036902Y023352D01*
X036873Y023402D01*
X036832Y023443D01*
X036782Y023472D01*
X036726Y023487D01*
X036420Y023487D01*
X036420Y022950D01*
X036345Y022950D01*
X036345Y023487D01*
X036197Y023487D01*
X036274Y023564D01*
X036432Y023722D01*
X036517Y023928D01*
X036517Y023945D01*
X036527Y023955D01*
X036539Y023984D01*
X036705Y023984D01*
X036931Y023984D01*
X036987Y023999D01*
X037037Y024028D01*
X037078Y024069D01*
X037107Y024119D01*
X037122Y024175D01*
X037122Y024480D01*
X037122Y024779D01*
X037216Y024686D01*
X037304Y024649D01*
X037305Y024647D01*
X037787Y024165D01*
X037787Y023562D01*
X037848Y023413D01*
X037787Y023264D01*
X037787Y022459D01*
X037854Y022298D01*
X037977Y022174D01*
X038004Y022163D01*
X037977Y022152D01*
X037854Y022028D01*
X037787Y021867D01*
X037787Y021062D01*
X037848Y020913D01*
X037787Y020764D01*
X037787Y019959D01*
X037854Y019798D01*
X037977Y019674D01*
X038139Y019607D01*
X039023Y019607D01*
X039185Y019674D01*
X039308Y019798D01*
X039320Y019826D01*
X039344Y019802D01*
X039506Y019735D01*
X040156Y019735D01*
X040318Y019802D01*
X040442Y019926D01*
X040509Y020088D01*
X040509Y020738D01*
X040442Y020900D01*
X040318Y021024D01*
X040156Y021091D01*
X039506Y021091D01*
X039363Y021032D01*
X039375Y021062D01*
X039375Y021867D01*
X039308Y022028D01*
X039185Y022152D01*
X039158Y022163D01*
X039185Y022174D01*
X039308Y022298D01*
X039375Y022459D01*
X039375Y023264D01*
X039314Y023413D01*
X039375Y023562D01*
X039375Y024367D01*
X039308Y024528D01*
X039185Y024652D01*
X039023Y024719D01*
X038817Y024719D01*
X038697Y024839D01*
X038845Y024839D01*
X038845Y025376D01*
X038920Y025376D01*
X038920Y025450D01*
X039417Y025450D01*
X039417Y025796D01*
X039402Y025852D01*
X039373Y025902D01*
X039332Y025943D01*
X039282Y025972D01*
X039226Y025987D01*
X038920Y025987D01*
X038920Y025450D01*
X038845Y025450D01*
X038845Y025987D01*
X038538Y025987D01*
X038486Y025973D01*
X038468Y026017D01*
X038344Y026140D01*
X038182Y026207D01*
X038009Y026207D01*
X038239Y026303D01*
X038441Y026505D01*
X038551Y026770D01*
X038551Y027056D01*
X044883Y027056D01*
X044883Y026818D02*
X038551Y026818D01*
X038551Y027056D02*
X038441Y027321D01*
X038349Y027413D01*
X038441Y027505D01*
X038551Y027770D01*
X038551Y028056D01*
X038441Y028321D01*
X038239Y028523D01*
X037974Y028633D01*
X037688Y028633D01*
X037423Y028523D01*
X037221Y028321D01*
X037111Y028056D01*
X037111Y027770D01*
X037221Y027505D01*
X037313Y027413D01*
X037221Y027321D01*
X037111Y027056D01*
X033757Y027056D01*
X033601Y027173D02*
X034044Y026841D01*
X034406Y026841D01*
X034568Y026774D01*
X034692Y026650D01*
X034759Y026488D01*
X034759Y026439D01*
X034844Y026524D01*
X035006Y026591D01*
X035656Y026591D01*
X035818Y026524D01*
X035942Y026400D01*
X036009Y026238D01*
X036009Y026046D01*
X036047Y026062D01*
X036615Y026062D01*
X036777Y025995D01*
X036799Y025973D01*
X037074Y025973D01*
X037092Y026017D01*
X037216Y026140D01*
X037377Y026207D01*
X037653Y026207D01*
X037423Y026303D01*
X037221Y026505D01*
X037111Y026770D01*
X037111Y027056D01*
X037111Y026818D02*
X034462Y026818D01*
X034721Y026579D02*
X034977Y026579D01*
X035685Y026579D02*
X037190Y026579D01*
X037385Y026341D02*
X035966Y026341D01*
X036009Y026102D02*
X037177Y026102D01*
X037780Y025413D02*
X036398Y025413D01*
X037122Y024671D02*
X037251Y024671D01*
X037122Y024480D02*
X036705Y024480D01*
X036705Y024480D01*
X037122Y024480D01*
X037122Y024433D02*
X037519Y024433D01*
X037758Y024194D02*
X037122Y024194D01*
X036705Y024194D02*
X036705Y024194D01*
X036705Y023984D02*
X036705Y024480D01*
X036705Y024480D01*
X036705Y023984D01*
X036527Y023956D02*
X037787Y023956D01*
X037787Y023717D02*
X036427Y023717D01*
X036274Y023564D02*
X036274Y023564D01*
X036345Y023479D02*
X036420Y023479D01*
X036420Y023240D02*
X036345Y023240D01*
X036345Y023002D02*
X036420Y023002D01*
X036420Y022876D02*
X036917Y022876D01*
X036917Y022530D01*
X036902Y022474D01*
X036873Y022424D01*
X036832Y022383D01*
X036782Y022354D01*
X036726Y022339D01*
X036420Y022339D01*
X036420Y022876D01*
X036420Y022763D02*
X036345Y022763D01*
X036345Y022525D02*
X036420Y022525D01*
X035944Y022286D02*
X037865Y022286D01*
X037873Y022048D02*
X032593Y022048D01*
X032611Y021913D02*
X031831Y021913D01*
X031831Y021913D01*
X032611Y021913D01*
X032601Y021809D02*
X037787Y021809D01*
X037787Y021571D02*
X035248Y021571D01*
X035831Y021332D02*
X035831Y021332D01*
X035831Y021094D02*
X035831Y021094D01*
X035831Y021065D02*
X035831Y021065D01*
X035851Y020913D02*
X036371Y020913D01*
X035851Y020913D01*
X035851Y020913D01*
X036371Y020855D02*
X037824Y020855D01*
X037787Y020617D02*
X036298Y020617D01*
X036441Y020378D02*
X037787Y020378D01*
X037787Y020140D02*
X036591Y020140D01*
X036591Y019901D02*
X037811Y019901D01*
X038005Y019663D02*
X036591Y019663D01*
X036417Y019424D02*
X044883Y019424D01*
X044883Y019186D02*
X036178Y019186D01*
X035851Y018947D02*
X044883Y018947D01*
X044883Y018709D02*
X035809Y018709D01*
X035623Y018470D02*
X044883Y018470D01*
X044883Y018232D02*
X041035Y018232D01*
X041063Y018223D02*
X040972Y018252D01*
X040878Y018267D01*
X040839Y018267D01*
X040839Y017671D01*
X041435Y017671D01*
X041435Y017711D01*
X041420Y017804D01*
X041391Y017895D01*
X041347Y017979D01*
X041292Y018056D01*
X041224Y018124D01*
X041147Y018179D01*
X041063Y018223D01*
X040839Y018232D02*
X040823Y018232D01*
X040823Y018267D02*
X040783Y018267D01*
X040690Y018252D01*
X040599Y018223D01*
X040514Y018179D01*
X040438Y018124D01*
X040370Y018056D01*
X040315Y017979D01*
X040271Y017895D01*
X040242Y017804D01*
X040227Y017711D01*
X040227Y017671D01*
X040823Y017671D01*
X040823Y018267D01*
X040627Y018232D02*
X035385Y018232D01*
X036080Y017993D02*
X037313Y017993D01*
X037831Y017413D02*
X035382Y017413D01*
X036061Y016801D02*
X037348Y016801D01*
X036666Y016324D02*
X044883Y016324D01*
X044883Y016562D02*
X036419Y016562D01*
X036702Y016085D02*
X044883Y016085D01*
X044883Y015847D02*
X036702Y015847D01*
X036702Y015608D02*
X044883Y015608D01*
X044883Y015370D02*
X036578Y015370D01*
X036654Y015131D02*
X044883Y015131D01*
X044883Y014893D02*
X036805Y014893D01*
X036810Y014654D02*
X044883Y014654D01*
X044883Y014416D02*
X036810Y014416D01*
X036788Y014177D02*
X044883Y014177D01*
X044883Y013939D02*
X036606Y013939D01*
X035961Y013700D02*
X044883Y013700D01*
X044883Y013462D02*
X026958Y013462D01*
X026958Y013223D02*
X044883Y013223D01*
X044883Y012985D02*
X029357Y012985D01*
X029506Y012746D02*
X044883Y012746D01*
X044883Y012508D02*
X029509Y012508D01*
X029509Y012269D02*
X044883Y012269D01*
X044883Y012031D02*
X029485Y012031D01*
X029344Y011792D02*
X044883Y011792D01*
X044883Y011554D02*
X029207Y011554D01*
X028153Y012508D02*
X025972Y012508D01*
X025733Y012746D02*
X028156Y012746D01*
X028305Y012985D02*
X026894Y012985D01*
X026280Y013464D02*
X026280Y014413D01*
X025525Y014416D02*
X024601Y014416D01*
X024601Y014654D02*
X025525Y014654D01*
X025540Y014893D02*
X024601Y014893D01*
X024601Y015131D02*
X025347Y015131D01*
X025780Y015913D02*
X024831Y015913D01*
X023561Y015847D02*
X008271Y015847D01*
X008271Y016085D02*
X023561Y016085D01*
X023561Y016324D02*
X008271Y016324D01*
X008271Y016562D02*
X023561Y016562D01*
X023575Y016801D02*
X008271Y016801D01*
X008271Y017039D02*
X023722Y017039D01*
X023960Y017278D02*
X008271Y017278D01*
X008271Y017516D02*
X024199Y017516D01*
X024381Y017755D02*
X008271Y017755D01*
X008271Y017993D02*
X025082Y017993D01*
X025170Y018232D02*
X008271Y018232D01*
X008271Y018470D02*
X024202Y018470D01*
X024153Y018709D02*
X008271Y018709D01*
X008271Y018947D02*
X024153Y018947D01*
X024153Y019186D02*
X008271Y019186D01*
X008271Y019424D02*
X024244Y019424D01*
X024831Y018913D02*
X025780Y018913D01*
X026290Y019663D02*
X026371Y019663D01*
X026429Y020140D02*
X026233Y020140D01*
X025327Y020140D02*
X008271Y020140D01*
X008271Y020378D02*
X021909Y020378D01*
X022081Y020913D02*
X025780Y020913D01*
X024831Y021913D02*
X025331Y022413D01*
X025780Y022413D01*
X024831Y021913D02*
X019331Y021862D01*
X018653Y021809D02*
X008271Y021809D01*
X008271Y021571D02*
X018653Y021571D01*
X018763Y021332D02*
X008271Y021332D01*
X008271Y021094D02*
X021153Y021094D01*
X021153Y020855D02*
X008271Y020855D01*
X008271Y020617D02*
X021280Y020617D01*
X021831Y021163D02*
X022081Y021163D01*
X022081Y020913D01*
X024081Y022663D02*
X025331Y023913D01*
X025780Y023913D01*
X024081Y022663D02*
X017581Y022663D01*
X016903Y022735D02*
X016903Y022338D01*
X016903Y022525D02*
X009329Y022525D01*
X009416Y022763D02*
X016438Y022763D01*
X016506Y022735D02*
X016903Y022735D01*
X016506Y022735D02*
X016344Y022802D01*
X016220Y022926D01*
X016153Y023088D01*
X016153Y023738D01*
X016201Y023853D01*
X015869Y023853D01*
X015818Y023802D01*
X015656Y023735D01*
X015006Y023735D01*
X014844Y023802D01*
X014720Y023926D01*
X014653Y024088D01*
X014653Y024738D01*
X014720Y024900D01*
X014844Y025024D01*
X015006Y025091D01*
X015656Y025091D01*
X015818Y025024D01*
X015869Y024973D01*
X022599Y024973D01*
X024856Y027230D01*
X025014Y027388D01*
X025044Y027400D01*
X025092Y027517D01*
X025216Y027640D01*
X025377Y027707D01*
X026182Y027707D01*
X026331Y027646D01*
X026480Y027707D01*
X027285Y027707D01*
X027446Y027640D01*
X027570Y027517D01*
X027605Y027433D01*
X028013Y027433D01*
X027941Y027505D01*
X027831Y027770D01*
X027831Y028056D01*
X027941Y028321D01*
X028143Y028523D01*
X028408Y028633D01*
X029254Y028633D01*
X029519Y028523D01*
X029721Y028321D01*
X029831Y028056D01*
X029831Y027770D01*
X029721Y027505D01*
X029629Y027413D01*
X029721Y027321D01*
X029831Y027056D01*
X030831Y027056D01*
X030831Y026770D01*
X030941Y026505D01*
X031033Y026413D01*
X030941Y026321D01*
X030831Y026056D01*
X030831Y025770D01*
X030941Y025505D01*
X031033Y025413D01*
X030941Y025321D01*
X030831Y025056D01*
X030831Y024770D01*
X030941Y024505D01*
X031033Y024413D01*
X030941Y024321D01*
X030831Y024056D01*
X030831Y023770D01*
X030941Y023505D01*
X031033Y023413D01*
X030965Y023345D01*
X030942Y023400D01*
X030818Y023524D01*
X030656Y023591D01*
X030006Y023591D01*
X029844Y023524D01*
X029720Y023400D01*
X029697Y023345D01*
X029629Y023413D01*
X029721Y023505D01*
X029831Y023770D01*
X029831Y024056D01*
X029721Y024321D01*
X029629Y024413D01*
X029721Y024505D01*
X029831Y024770D01*
X029831Y025056D01*
X029721Y025321D01*
X029629Y025413D01*
X029721Y025505D01*
X029831Y025770D01*
X029831Y026056D01*
X029721Y026321D01*
X029629Y026413D01*
X029721Y026505D01*
X029831Y026770D01*
X029831Y027056D01*
X029831Y026818D02*
X030831Y026818D01*
X030831Y027056D02*
X030941Y027321D01*
X031033Y027413D01*
X030941Y027505D01*
X030831Y027770D01*
X030831Y028056D01*
X030941Y028321D01*
X031143Y028523D01*
X031408Y028633D01*
X032254Y028633D01*
X032334Y028600D01*
X032271Y028752D01*
X032271Y029074D01*
X032394Y029372D01*
X032622Y029600D01*
X032920Y029723D01*
X033242Y029723D01*
X033540Y029600D01*
X033768Y029372D01*
X033891Y029074D01*
X033891Y028752D01*
X033768Y028454D01*
X033601Y028287D01*
X033601Y027173D01*
X033601Y027295D02*
X037210Y027295D01*
X037209Y027533D02*
X033601Y027533D01*
X033601Y027772D02*
X037111Y027772D01*
X037111Y028010D02*
X033601Y028010D01*
X033601Y028249D02*
X037191Y028249D01*
X037387Y028487D02*
X033781Y028487D01*
X033880Y028726D02*
X044883Y028726D01*
X044883Y028964D02*
X033891Y028964D01*
X033838Y029203D02*
X044883Y029203D01*
X044883Y029441D02*
X033698Y029441D01*
X033347Y029680D02*
X044883Y029680D01*
X044883Y029918D02*
X013628Y029918D01*
X013605Y029680D02*
X019095Y029680D01*
X019101Y029687D02*
X019046Y029612D01*
X019004Y029529D01*
X018975Y029441D01*
X013435Y029441D01*
X013490Y030157D02*
X044883Y030157D01*
X044883Y028487D02*
X038275Y028487D01*
X038471Y028249D02*
X044883Y028249D01*
X044883Y028010D02*
X038551Y028010D01*
X038551Y027772D02*
X044883Y027772D01*
X044883Y027533D02*
X038453Y027533D01*
X038452Y027295D02*
X044883Y027295D01*
X044883Y026579D02*
X038472Y026579D01*
X038277Y026341D02*
X040618Y026341D01*
X040667Y026361D02*
X040364Y026235D01*
X040133Y026004D01*
X040007Y025701D01*
X040007Y025373D01*
X040133Y025070D01*
X040364Y024839D01*
X040667Y024713D01*
X040995Y024713D01*
X041298Y024839D01*
X041529Y025070D01*
X041655Y025373D01*
X041655Y025701D01*
X041529Y026004D01*
X041298Y026235D01*
X040995Y026361D01*
X040667Y026361D01*
X041044Y026341D02*
X044883Y026341D01*
X044883Y026102D02*
X041431Y026102D01*
X041587Y025864D02*
X044883Y025864D01*
X044883Y025625D02*
X041655Y025625D01*
X041655Y025387D02*
X044883Y025387D01*
X044883Y025148D02*
X041562Y025148D01*
X041369Y024910D02*
X044883Y024910D01*
X044883Y024671D02*
X039139Y024671D01*
X039226Y024839D02*
X038920Y024839D01*
X038920Y025376D01*
X039417Y025376D01*
X039417Y025030D01*
X039402Y024974D01*
X039373Y024924D01*
X039332Y024883D01*
X039282Y024854D01*
X039226Y024839D01*
X039359Y024910D02*
X040293Y024910D01*
X040100Y025148D02*
X039417Y025148D01*
X038920Y025148D02*
X038845Y025148D01*
X038845Y024910D02*
X038920Y024910D01*
X038920Y025387D02*
X040007Y025387D01*
X040007Y025625D02*
X039417Y025625D01*
X039396Y025864D02*
X040074Y025864D01*
X040231Y026102D02*
X038382Y026102D01*
X038845Y025864D02*
X038920Y025864D01*
X038920Y025625D02*
X038845Y025625D01*
X037780Y024964D02*
X038581Y024163D01*
X039375Y024194D02*
X044883Y024194D01*
X044883Y023956D02*
X039375Y023956D01*
X039375Y023717D02*
X044883Y023717D01*
X044883Y023479D02*
X039341Y023479D01*
X039375Y023240D02*
X044883Y023240D01*
X044883Y023002D02*
X039375Y023002D01*
X039375Y022763D02*
X044883Y022763D01*
X044883Y022525D02*
X039375Y022525D01*
X039297Y022286D02*
X044883Y022286D01*
X044883Y022048D02*
X039289Y022048D01*
X039375Y021809D02*
X044883Y021809D01*
X044883Y021571D02*
X039375Y021571D01*
X039375Y021332D02*
X044883Y021332D01*
X044883Y021094D02*
X039375Y021094D01*
X039831Y020413D02*
X038780Y020362D01*
X039157Y019663D02*
X044883Y019663D01*
X044883Y019901D02*
X040417Y019901D01*
X040509Y020140D02*
X044883Y020140D01*
X044883Y020378D02*
X040509Y020378D01*
X040509Y020617D02*
X044883Y020617D01*
X044883Y020855D02*
X040460Y020855D01*
X038581Y021663D02*
X038581Y022862D01*
X037787Y022763D02*
X036917Y022763D01*
X036916Y022525D02*
X037787Y022525D01*
X037787Y023002D02*
X036917Y023002D01*
X036917Y023240D02*
X037787Y023240D01*
X037821Y023479D02*
X036759Y023479D01*
X035957Y024039D02*
X035831Y023913D01*
X035331Y023913D01*
X035280Y023862D01*
X035280Y022913D01*
X034525Y023002D02*
X032831Y023002D01*
X032828Y022763D02*
X034525Y022763D01*
X034525Y022525D02*
X032729Y022525D01*
X032479Y022286D02*
X034615Y022286D01*
X034414Y021571D02*
X034248Y021571D01*
X033414Y021571D02*
X032476Y021571D01*
X032710Y021332D02*
X033175Y021332D01*
X033071Y021094D02*
X032816Y021094D01*
X032831Y020855D02*
X033071Y020855D01*
X033071Y020617D02*
X032767Y020617D01*
X032664Y020378D02*
X033095Y020378D01*
X033071Y020140D02*
X032796Y020140D01*
X032831Y019901D02*
X033071Y019901D01*
X033071Y019663D02*
X032787Y019663D01*
X032640Y019424D02*
X033105Y019424D01*
X033311Y019186D02*
X032777Y019186D01*
X032831Y018947D02*
X033130Y018947D01*
X032891Y018709D02*
X032806Y018709D01*
X030976Y018470D02*
X030892Y018470D01*
X030904Y018232D02*
X029758Y018232D01*
X029769Y018470D02*
X029686Y018470D01*
X030293Y018470D02*
X030368Y018470D01*
X030368Y018709D02*
X030293Y018709D01*
X029831Y017993D02*
X030831Y017993D01*
X030837Y017755D02*
X029825Y017755D01*
X029726Y017516D02*
X030936Y017516D01*
X030923Y017278D02*
X029739Y017278D01*
X029831Y017039D02*
X030831Y017039D01*
X030831Y016801D02*
X029831Y016801D01*
X029745Y016562D02*
X030917Y016562D01*
X030943Y016324D02*
X029719Y016324D01*
X029819Y016085D02*
X030843Y016085D01*
X030831Y015847D02*
X029831Y015847D01*
X029764Y015608D02*
X030898Y015608D01*
X030989Y015370D02*
X029673Y015370D01*
X029800Y015131D02*
X030862Y015131D01*
X030831Y014893D02*
X029831Y014893D01*
X029783Y014654D02*
X030879Y014654D01*
X031030Y014416D02*
X029632Y014416D01*
X028137Y014177D02*
X033525Y014177D01*
X033538Y013939D02*
X028124Y013939D01*
X027961Y013700D02*
X033701Y013700D01*
X035382Y014413D02*
X036132Y014555D01*
X036024Y015913D02*
X035382Y015913D01*
X038314Y016801D02*
X044883Y016801D01*
X044883Y017039D02*
X038489Y017039D01*
X038509Y017278D02*
X040365Y017278D01*
X040370Y017270D02*
X040438Y017202D01*
X040514Y017147D01*
X040599Y017103D01*
X040690Y017074D01*
X040783Y017059D01*
X040823Y017059D01*
X040823Y017655D01*
X040839Y017655D01*
X040839Y017671D01*
X040823Y017671D01*
X040823Y017655D01*
X040227Y017655D01*
X040227Y017615D01*
X040242Y017522D01*
X040271Y017431D01*
X040315Y017347D01*
X040370Y017270D01*
X040244Y017516D02*
X038509Y017516D01*
X038502Y017755D02*
X040234Y017755D01*
X040324Y017993D02*
X038349Y017993D01*
X040823Y017993D02*
X040839Y017993D01*
X040823Y017755D02*
X040839Y017755D01*
X040839Y017655D02*
X041435Y017655D01*
X041435Y017615D01*
X041420Y017522D01*
X041391Y017431D01*
X041347Y017347D01*
X041292Y017270D01*
X041224Y017202D01*
X041147Y017147D01*
X041063Y017103D01*
X040972Y017074D01*
X040878Y017059D01*
X040839Y017059D01*
X040839Y017655D01*
X040823Y017516D02*
X040839Y017516D01*
X040823Y017278D02*
X040839Y017278D01*
X041297Y017278D02*
X044883Y017278D01*
X044883Y017516D02*
X041418Y017516D01*
X041428Y017755D02*
X044883Y017755D01*
X044883Y017993D02*
X041338Y017993D01*
X037787Y021094D02*
X036371Y021094D01*
X036176Y021332D02*
X037787Y021332D01*
X034525Y023240D02*
X032755Y023240D01*
X032695Y023479D02*
X034576Y023479D01*
X034720Y023717D02*
X032809Y023717D01*
X032831Y023956D02*
X034720Y023956D01*
X034811Y024194D02*
X033462Y024194D01*
X033746Y024433D02*
X034811Y024433D01*
X034811Y024671D02*
X033857Y024671D01*
X033891Y024910D02*
X034811Y024910D01*
X034811Y025148D02*
X033860Y025148D01*
X033753Y025387D02*
X034760Y025387D01*
X034653Y025625D02*
X034641Y025625D01*
X033521Y025625D02*
X033479Y025625D01*
X033403Y025864D02*
X032831Y025864D01*
X032812Y026102D02*
X033296Y026102D01*
X032978Y026341D02*
X032702Y026341D01*
X031006Y025387D02*
X029656Y025387D01*
X029771Y025625D02*
X030891Y025625D01*
X030831Y025864D02*
X029831Y025864D01*
X029812Y026102D02*
X030850Y026102D01*
X030960Y026341D02*
X029702Y026341D01*
X029752Y026579D02*
X030910Y026579D01*
X030930Y027295D02*
X029732Y027295D01*
X029733Y027533D02*
X030929Y027533D01*
X030831Y027772D02*
X029831Y027772D01*
X029831Y028010D02*
X030831Y028010D01*
X030911Y028249D02*
X029751Y028249D01*
X029555Y028487D02*
X031107Y028487D01*
X032282Y028726D02*
X022237Y028726D01*
X022249Y028728D02*
X022337Y028756D01*
X022420Y028798D01*
X022495Y028853D01*
X022561Y028919D01*
X022616Y028994D01*
X022658Y029077D01*
X022686Y029165D01*
X022701Y029257D01*
X022701Y029303D01*
X022701Y029349D01*
X022686Y029441D01*
X032463Y029441D01*
X032324Y029203D02*
X022692Y029203D01*
X022701Y029303D02*
X022111Y029303D01*
X022701Y029303D01*
X022686Y029441D02*
X022658Y029529D01*
X022616Y029612D01*
X022561Y029687D01*
X022495Y029753D01*
X022420Y029808D01*
X022337Y029850D01*
X022249Y029878D01*
X022157Y029893D01*
X022111Y029893D01*
X022111Y029303D01*
X022111Y029303D01*
X022111Y029303D01*
X022111Y028713D01*
X022157Y028713D01*
X022249Y028728D01*
X022111Y028726D02*
X022111Y028726D01*
X022111Y028713D02*
X022111Y029303D01*
X022111Y029303D01*
X022111Y029893D01*
X022065Y029893D01*
X021973Y029878D01*
X021884Y029850D01*
X021802Y029808D01*
X021727Y029753D01*
X021661Y029687D01*
X021606Y029612D01*
X021564Y029529D01*
X021535Y029441D01*
X020126Y029441D01*
X020098Y029529D01*
X020056Y029612D01*
X020001Y029687D01*
X019935Y029753D01*
X019860Y029808D01*
X019777Y029850D01*
X019689Y029878D01*
X019597Y029893D01*
X019551Y029893D01*
X019551Y029303D01*
X020141Y029303D01*
X020141Y029349D01*
X020126Y029441D01*
X020141Y029303D02*
X019551Y029303D01*
X019551Y029303D01*
X019551Y029303D01*
X019551Y028713D01*
X019597Y028713D01*
X019689Y028728D01*
X019777Y028756D01*
X019860Y028798D01*
X019935Y028853D01*
X020001Y028919D01*
X020056Y028994D01*
X020098Y029077D01*
X020126Y029165D01*
X020141Y029257D01*
X020141Y029303D01*
X020132Y029203D02*
X021530Y029203D01*
X021535Y029165D02*
X021564Y029077D01*
X021606Y028994D01*
X021661Y028919D01*
X021727Y028853D01*
X021802Y028798D01*
X021884Y028756D01*
X021973Y028728D01*
X022065Y028713D01*
X022111Y028713D01*
X021985Y028726D02*
X019677Y028726D01*
X019551Y028726D02*
X019551Y028726D01*
X019551Y028713D02*
X019551Y029303D01*
X019551Y029303D01*
X019551Y029893D01*
X019505Y029893D01*
X019413Y029878D01*
X019324Y029850D01*
X019242Y029808D01*
X019167Y029753D01*
X019101Y029687D01*
X018975Y029441D02*
X018961Y029349D01*
X018961Y029303D01*
X019551Y029303D01*
X019551Y029303D01*
X018961Y029303D01*
X018961Y029257D01*
X018975Y029165D01*
X019004Y029077D01*
X019046Y028994D01*
X019101Y028919D01*
X019167Y028853D01*
X019242Y028798D01*
X019324Y028756D01*
X019413Y028728D01*
X019505Y028713D01*
X019551Y028713D01*
X019425Y028726D02*
X012487Y028726D01*
X012549Y028577D02*
X012423Y028880D01*
X012191Y029111D01*
X011889Y029237D01*
X011561Y029237D01*
X011258Y029111D01*
X011026Y028880D01*
X010901Y028577D01*
X010901Y028249D01*
X011026Y027946D01*
X011258Y027715D01*
X011561Y027589D01*
X011889Y027589D01*
X012191Y027715D01*
X012423Y027946D01*
X012549Y028249D01*
X012549Y028577D01*
X012549Y028487D02*
X028107Y028487D01*
X027911Y028249D02*
X022476Y028249D01*
X022570Y028210D02*
X022272Y028333D01*
X021950Y028333D01*
X021652Y028210D01*
X021424Y027982D01*
X021301Y027684D01*
X021301Y027362D01*
X021424Y027064D01*
X021652Y026836D01*
X021950Y026713D01*
X022272Y026713D01*
X022570Y026836D01*
X022798Y027064D01*
X022921Y027362D01*
X022921Y027684D01*
X022798Y027982D01*
X022570Y028210D01*
X022769Y028010D02*
X027831Y028010D01*
X027831Y027772D02*
X022885Y027772D01*
X022921Y027533D02*
X025108Y027533D01*
X024921Y027295D02*
X022893Y027295D01*
X022790Y027056D02*
X024682Y027056D01*
X024444Y026818D02*
X022524Y026818D01*
X021697Y026818D02*
X019964Y026818D01*
X020010Y026836D02*
X020238Y027064D01*
X020361Y027362D01*
X020361Y027684D01*
X020238Y027982D01*
X020010Y028210D01*
X019712Y028333D01*
X019390Y028333D01*
X019092Y028210D01*
X018864Y027982D01*
X018741Y027684D01*
X018741Y027362D01*
X018864Y027064D01*
X019092Y026836D01*
X019390Y026713D01*
X019712Y026713D01*
X020010Y026836D01*
X020230Y027056D02*
X021432Y027056D01*
X021329Y027295D02*
X020333Y027295D01*
X020361Y027533D02*
X021301Y027533D01*
X021337Y027772D02*
X020325Y027772D01*
X020209Y028010D02*
X021452Y028010D01*
X021746Y028249D02*
X019916Y028249D01*
X019186Y028249D02*
X012548Y028249D01*
X012449Y028010D02*
X018892Y028010D01*
X018777Y027772D02*
X012248Y027772D01*
X011201Y027772D02*
X008271Y027772D01*
X008271Y028010D02*
X008990Y028010D01*
X008981Y028020D02*
X009048Y027952D01*
X009125Y027897D01*
X009209Y027853D01*
X009300Y027824D01*
X009394Y027809D01*
X009433Y027809D01*
X009433Y028405D01*
X008837Y028405D01*
X008837Y028365D01*
X008852Y028272D01*
X008882Y028181D01*
X008925Y028097D01*
X008981Y028020D01*
X008860Y028249D02*
X008271Y028249D01*
X008271Y028487D02*
X008842Y028487D01*
X008837Y028461D02*
X008837Y028421D01*
X009433Y028421D01*
X009433Y028405D01*
X009449Y028405D01*
X009449Y027809D01*
X009489Y027809D01*
X009583Y027824D01*
X009673Y027853D01*
X009758Y027897D01*
X009835Y027952D01*
X009902Y028020D01*
X009958Y028097D01*
X010001Y028181D01*
X010030Y028272D01*
X010045Y028365D01*
X010045Y028405D01*
X009449Y028405D01*
X009449Y028421D01*
X009433Y028421D01*
X009433Y029017D01*
X009394Y029017D01*
X009300Y029002D01*
X009209Y028973D01*
X009125Y028929D01*
X009048Y028874D01*
X008981Y028806D01*
X008925Y028729D01*
X008882Y028645D01*
X008852Y028554D01*
X008837Y028461D01*
X008923Y028726D02*
X008271Y028726D01*
X008271Y028964D02*
X009193Y028964D01*
X009433Y028964D02*
X009449Y028964D01*
X009449Y029017D02*
X009449Y028421D01*
X010045Y028421D01*
X010045Y028461D01*
X010030Y028554D01*
X010001Y028645D01*
X009958Y028729D01*
X009902Y028806D01*
X009835Y028874D01*
X009758Y028929D01*
X009673Y028973D01*
X009583Y029002D01*
X009489Y029017D01*
X009449Y029017D01*
X009690Y028964D02*
X011111Y028964D01*
X010962Y028726D02*
X009960Y028726D01*
X010041Y028487D02*
X010901Y028487D01*
X010901Y028249D02*
X010023Y028249D01*
X009892Y028010D02*
X011000Y028010D01*
X010685Y027112D02*
X010591Y027127D01*
X010552Y027127D01*
X010552Y026531D01*
X011147Y026531D01*
X011147Y026571D01*
X011133Y026665D01*
X011103Y026755D01*
X011060Y026840D01*
X011004Y026917D01*
X010937Y026984D01*
X010860Y027040D01*
X010775Y027083D01*
X010685Y027112D01*
X010552Y027056D02*
X010536Y027056D01*
X010536Y027127D02*
X010536Y026531D01*
X010552Y026531D01*
X010552Y026515D01*
X011147Y026515D01*
X011147Y026476D01*
X011133Y026382D01*
X011103Y026291D01*
X011060Y026207D01*
X011004Y026130D01*
X010937Y026063D01*
X010860Y026007D01*
X010775Y025964D01*
X010685Y025934D01*
X010591Y025919D01*
X010552Y025919D01*
X010552Y026515D01*
X010536Y026515D01*
X010536Y025919D01*
X010496Y025919D01*
X010402Y025934D01*
X010312Y025964D01*
X010227Y026007D01*
X010150Y026063D01*
X010083Y026130D01*
X010027Y026207D01*
X009984Y026291D01*
X009955Y026382D01*
X009940Y026476D01*
X009940Y026515D01*
X010536Y026515D01*
X010536Y026531D01*
X009940Y026531D01*
X009940Y026571D01*
X009955Y026665D01*
X009984Y026755D01*
X010027Y026840D01*
X010083Y026917D01*
X010150Y026984D01*
X010227Y027040D01*
X010312Y027083D01*
X010402Y027112D01*
X010496Y027127D01*
X010536Y027127D01*
X010259Y027056D02*
X008271Y027056D01*
X008271Y026818D02*
X010016Y026818D01*
X009941Y026579D02*
X008271Y026579D01*
X008271Y026341D02*
X009968Y026341D01*
X010111Y026102D02*
X008271Y026102D01*
X008271Y025864D02*
X011153Y025864D01*
X011153Y026102D02*
X010976Y026102D01*
X011153Y026238D02*
X011153Y025588D01*
X011220Y025426D01*
X011344Y025302D01*
X011506Y025235D01*
X012156Y025235D01*
X012318Y025302D01*
X012442Y025426D01*
X012509Y025588D01*
X012509Y025855D01*
X012546Y025893D01*
X012653Y025893D01*
X012653Y025588D01*
X012720Y025426D01*
X012844Y025302D01*
X013006Y025235D01*
X013656Y025235D01*
X013818Y025302D01*
X013909Y025393D01*
X017403Y025393D01*
X017403Y025338D01*
X017470Y025176D01*
X017594Y025052D01*
X017756Y024985D01*
X018406Y024985D01*
X018568Y025052D01*
X018581Y025065D01*
X018594Y025052D01*
X018756Y024985D01*
X019406Y024985D01*
X019568Y025052D01*
X019692Y025176D01*
X019759Y025338D01*
X019759Y025988D01*
X019692Y026150D01*
X019568Y026274D01*
X019406Y026341D01*
X019139Y026341D01*
X018626Y026854D01*
X018434Y026933D01*
X012228Y026933D01*
X012036Y026854D01*
X011890Y026708D01*
X011773Y026591D01*
X011506Y026591D01*
X011344Y026524D01*
X011220Y026400D01*
X011153Y026238D01*
X011119Y026341D02*
X011196Y026341D01*
X011146Y026579D02*
X011477Y026579D01*
X011071Y026818D02*
X012000Y026818D01*
X012517Y025864D02*
X012653Y025864D01*
X012653Y025625D02*
X012509Y025625D01*
X012402Y025387D02*
X012760Y025387D01*
X013902Y025387D02*
X017403Y025387D01*
X017498Y025148D02*
X009639Y025148D01*
X009641Y024910D02*
X014730Y024910D01*
X014653Y024671D02*
X009578Y024671D01*
X009457Y024433D02*
X014653Y024433D01*
X014653Y024194D02*
X009591Y024194D01*
X009641Y023956D02*
X014708Y023956D01*
X015331Y024413D02*
X022831Y024413D01*
X025331Y026913D01*
X025780Y026913D01*
X024205Y026579D02*
X018900Y026579D01*
X019137Y026818D02*
X018662Y026818D01*
X018872Y027056D02*
X010828Y027056D01*
X010552Y026818D02*
X010536Y026818D01*
X010536Y026579D02*
X010552Y026579D01*
X010536Y026341D02*
X010552Y026341D01*
X010536Y026102D02*
X010552Y026102D01*
X011153Y025625D02*
X009334Y025625D01*
X009541Y025387D02*
X011260Y025387D01*
X009627Y023717D02*
X016153Y023717D01*
X016153Y023479D02*
X009528Y023479D01*
X009304Y023240D02*
X016153Y023240D01*
X016189Y023002D02*
X009400Y023002D01*
X008831Y022763D02*
X008831Y022763D01*
X008831Y022525D02*
X008831Y022525D01*
X008271Y022048D02*
X017105Y022048D01*
X018057Y022048D02*
X018653Y022048D01*
X016831Y023413D02*
X023331Y023413D01*
X025331Y025413D01*
X025780Y025413D01*
X023967Y026341D02*
X019407Y026341D01*
X019712Y026102D02*
X023728Y026102D01*
X023490Y025864D02*
X019759Y025864D01*
X019759Y025625D02*
X023251Y025625D01*
X023013Y025387D02*
X019759Y025387D01*
X019664Y025148D02*
X022774Y025148D01*
X018769Y027295D02*
X008271Y027295D01*
X008271Y027533D02*
X018741Y027533D01*
X019068Y028964D02*
X012339Y028964D01*
X011971Y029203D02*
X018970Y029203D01*
X019551Y029203D02*
X019551Y029203D01*
X019551Y029441D02*
X019551Y029441D01*
X019551Y029680D02*
X019551Y029680D01*
X020007Y029680D02*
X021655Y029680D01*
X021535Y029441D02*
X021521Y029349D01*
X021521Y029303D01*
X022111Y029303D01*
X022111Y029303D01*
X021521Y029303D01*
X021521Y029257D01*
X021535Y029165D01*
X021628Y028964D02*
X020034Y028964D01*
X019551Y028964D02*
X019551Y028964D01*
X022111Y028964D02*
X022111Y028964D01*
X022111Y029203D02*
X022111Y029203D01*
X022111Y029441D02*
X022111Y029441D01*
X022111Y029680D02*
X022111Y029680D01*
X022567Y029680D02*
X032815Y029680D01*
X032271Y028964D02*
X022594Y028964D01*
X027554Y027533D02*
X027929Y027533D01*
X029793Y025148D02*
X030869Y025148D01*
X030831Y024910D02*
X029831Y024910D01*
X029790Y024671D02*
X030872Y024671D01*
X031013Y024433D02*
X029649Y024433D01*
X029774Y024194D02*
X030888Y024194D01*
X030831Y023956D02*
X029831Y023956D01*
X029809Y023717D02*
X030853Y023717D01*
X030863Y023479D02*
X030967Y023479D01*
X029799Y023479D02*
X029695Y023479D01*
X029757Y021332D02*
X029548Y021332D01*
X029578Y021094D02*
X030293Y021094D01*
X029757Y020855D02*
X029608Y020855D01*
X029692Y020617D02*
X029514Y020617D01*
X028148Y020617D02*
X027637Y020617D01*
X027637Y020855D02*
X028054Y020855D01*
X028084Y021094D02*
X027798Y021094D01*
X028037Y021332D02*
X028114Y021332D01*
X027998Y020378D02*
X027599Y020378D01*
X027335Y020140D02*
X027865Y020140D01*
X027831Y019901D02*
X008271Y019901D01*
X008271Y019663D02*
X025269Y019663D01*
X027393Y019663D02*
X027875Y019663D01*
X028022Y019424D02*
X027608Y019424D01*
X027794Y019186D02*
X027885Y019186D01*
X025780Y017413D02*
X024831Y017413D01*
X023561Y015608D02*
X008271Y015608D01*
X008271Y015370D02*
X023561Y015370D01*
X023561Y015131D02*
X008271Y015131D01*
X008271Y014893D02*
X023561Y014893D01*
X023561Y014654D02*
X008271Y014654D01*
X008271Y014416D02*
X023561Y014416D01*
X023561Y014177D02*
X008271Y014177D01*
X008271Y013939D02*
X023561Y013939D01*
X023561Y013700D02*
X008271Y013700D01*
X008271Y013462D02*
X023602Y013462D01*
X023786Y013223D02*
X008271Y013223D01*
X008271Y012985D02*
X010891Y012985D01*
X010905Y013018D02*
X010838Y012857D01*
X010838Y011969D01*
X010905Y011808D01*
X011029Y011684D01*
X011190Y011617D01*
X012078Y011617D01*
X012240Y011684D01*
X012335Y011779D01*
X012430Y011684D01*
X012592Y011617D01*
X013479Y011617D01*
X013641Y011684D01*
X013765Y011808D01*
X013832Y011969D01*
X013832Y012857D01*
X013765Y013018D01*
X013641Y013142D01*
X013479Y013209D01*
X012592Y013209D01*
X012430Y013142D01*
X012335Y013047D01*
X012240Y013142D01*
X012078Y013209D01*
X011190Y013209D01*
X011029Y013142D01*
X010905Y013018D01*
X010838Y012746D02*
X008271Y012746D01*
X008271Y012508D02*
X010838Y012508D01*
X010838Y012269D02*
X008271Y012269D01*
X008271Y012031D02*
X010838Y012031D01*
X010920Y011792D02*
X008271Y011792D01*
X008271Y011554D02*
X025455Y011554D01*
X025390Y011618D02*
X025390Y011618D01*
X025217Y011792D02*
X023249Y011792D01*
X023265Y011808D02*
X023332Y011969D01*
X023332Y012857D01*
X023265Y013018D01*
X023141Y013142D01*
X022979Y013209D01*
X022092Y013209D01*
X021930Y013142D01*
X021835Y013047D01*
X021740Y013142D01*
X021578Y013209D01*
X020690Y013209D01*
X020529Y013142D01*
X020405Y013018D01*
X020338Y012857D01*
X020338Y011969D01*
X020405Y011808D01*
X020529Y011684D01*
X020690Y011617D01*
X021578Y011617D01*
X021740Y011684D01*
X021835Y011779D01*
X021930Y011684D01*
X022092Y011617D01*
X022979Y011617D01*
X023141Y011684D01*
X023265Y011808D01*
X023332Y012031D02*
X024978Y012031D01*
X024740Y012269D02*
X023332Y012269D01*
X023332Y012508D02*
X024501Y012508D01*
X024263Y012746D02*
X023332Y012746D01*
X023279Y012985D02*
X024024Y012985D01*
X025018Y013462D02*
X025602Y013462D01*
X025602Y013700D02*
X024779Y013700D01*
X024601Y013939D02*
X025538Y013939D01*
X025525Y014177D02*
X024601Y014177D01*
X025256Y013223D02*
X025602Y013223D01*
X025666Y012985D02*
X025495Y012985D01*
X025481Y010854D02*
X025297Y010778D01*
X025067Y010548D01*
X024926Y010407D01*
X024897Y010337D01*
X024759Y010394D01*
X024100Y010394D01*
X023916Y010318D01*
X023854Y010256D01*
X023792Y010318D01*
X023729Y010344D01*
X023702Y010407D01*
X023562Y010548D01*
X023378Y010624D01*
X023179Y010624D01*
X022995Y010548D01*
X022855Y010407D01*
X022828Y010344D01*
X022765Y010318D01*
X022703Y010256D01*
X022641Y010318D01*
X022457Y010394D01*
X021798Y010394D01*
X021614Y010318D01*
X021552Y010256D01*
X021490Y010318D01*
X021306Y010394D01*
X020877Y010394D01*
X020746Y010340D01*
X020616Y010394D01*
X020417Y010394D01*
X020233Y010318D01*
X020092Y010177D01*
X020041Y010125D01*
X020019Y010177D01*
X019878Y010318D01*
X019695Y010394D01*
X019035Y010394D01*
X018852Y010318D01*
X018790Y010256D01*
X018728Y010318D01*
X018544Y010394D01*
X018345Y010394D01*
X018161Y010318D01*
X017984Y010140D01*
X017807Y010318D01*
X017623Y010394D01*
X017424Y010394D01*
X017240Y010318D01*
X017100Y010177D01*
X017023Y009993D01*
X017023Y009794D01*
X017100Y009611D01*
X017277Y009433D01*
X017100Y009256D01*
X017023Y009072D01*
X017023Y008874D01*
X017100Y008690D01*
X017240Y008549D01*
X017424Y008473D01*
X017623Y008473D01*
X017807Y008549D01*
X017984Y008726D01*
X018161Y008549D01*
X018345Y008473D01*
X018544Y008473D01*
X018674Y008527D01*
X018805Y008473D01*
X019695Y008473D01*
X019878Y008549D01*
X019941Y008611D01*
X020003Y008549D01*
X020186Y008473D01*
X020385Y008473D01*
X020516Y008527D01*
X020647Y008473D01*
X020846Y008473D01*
X020976Y008527D01*
X021107Y008473D01*
X021306Y008473D01*
X021437Y008527D01*
X021568Y008473D01*
X022457Y008473D01*
X022641Y008549D01*
X022703Y008611D01*
X022765Y008549D01*
X022949Y008473D01*
X023148Y008473D01*
X023331Y008549D01*
X023562Y008779D01*
X023697Y008914D01*
X023699Y008917D01*
X023699Y008874D01*
X023775Y008690D01*
X023916Y008549D01*
X024100Y008473D01*
X024759Y008473D01*
X024943Y008549D01*
X025120Y008726D01*
X025291Y008555D01*
X025297Y008549D01*
X025403Y008505D01*
X025481Y008473D01*
X026370Y008473D01*
X026554Y008549D01*
X026695Y008690D01*
X026771Y008874D01*
X026771Y009763D01*
X026771Y010255D01*
X026771Y010454D01*
X026695Y010637D01*
X026554Y010778D01*
X026370Y010854D01*
X025481Y010854D01*
X025442Y010838D02*
X015820Y010838D01*
X015781Y010854D02*
X014892Y010854D01*
X014708Y010778D01*
X014478Y010548D01*
X014337Y010407D01*
X014308Y010337D01*
X014170Y010394D01*
X013511Y010394D01*
X013327Y010318D01*
X013266Y010257D01*
X013232Y010297D01*
X013054Y010385D01*
X012856Y010400D01*
X012667Y010337D01*
X012517Y010206D01*
X012459Y010091D01*
X012402Y010206D01*
X012251Y010337D01*
X012063Y010400D01*
X011864Y010385D01*
X011686Y010297D01*
X011556Y010146D01*
X011493Y009958D01*
X011507Y009759D01*
X011996Y008781D01*
X012016Y008721D01*
X012040Y008693D01*
X012056Y008660D01*
X012105Y008619D01*
X012147Y008570D01*
X012179Y008554D01*
X012207Y008530D01*
X012267Y008510D01*
X012325Y008481D01*
X012361Y008479D01*
X012395Y008467D01*
X012459Y008472D01*
X012523Y008467D01*
X012557Y008479D01*
X012594Y008481D01*
X012651Y008510D01*
X012712Y008530D01*
X012739Y008554D01*
X012772Y008570D01*
X012814Y008619D01*
X012862Y008660D01*
X012878Y008693D01*
X012902Y008721D01*
X012922Y008781D01*
X013057Y009050D01*
X013097Y009010D01*
X013110Y009004D01*
X013110Y008874D01*
X013186Y008690D01*
X013327Y008549D01*
X013511Y008473D01*
X014170Y008473D01*
X014354Y008549D01*
X014416Y008611D01*
X014478Y008549D01*
X014662Y008473D01*
X014861Y008473D01*
X015044Y008549D01*
X015237Y008741D01*
X015258Y008690D01*
X015399Y008549D01*
X015582Y008473D01*
X015781Y008473D01*
X015965Y008549D01*
X016106Y008690D01*
X016182Y008874D01*
X016182Y010454D01*
X016106Y010637D01*
X015965Y010778D01*
X015781Y010854D01*
X016122Y010600D02*
X023120Y010600D01*
X023437Y010600D02*
X025119Y010600D01*
X024907Y010361D02*
X024838Y010361D01*
X024021Y010361D02*
X023721Y010361D01*
X022835Y010361D02*
X022536Y010361D01*
X021719Y010361D02*
X021385Y010361D01*
X020798Y010361D02*
X020695Y010361D01*
X020337Y010361D02*
X019774Y010361D01*
X020092Y010177D02*
X020092Y010177D01*
X018956Y010361D02*
X018623Y010361D01*
X018266Y010361D02*
X017702Y010361D01*
X017345Y010361D02*
X016182Y010361D01*
X016182Y010123D02*
X017077Y010123D01*
X017023Y009884D02*
X016182Y009884D01*
X016182Y009646D02*
X017085Y009646D01*
X017250Y009407D02*
X016182Y009407D01*
X016182Y009169D02*
X017063Y009169D01*
X017023Y008930D02*
X016182Y008930D01*
X016107Y008692D02*
X017099Y008692D01*
X017949Y008692D02*
X018019Y008692D01*
X018905Y008018D02*
X018838Y007857D01*
X018838Y006969D01*
X018905Y006808D01*
X019029Y006684D01*
X019190Y006617D01*
X020078Y006617D01*
X020240Y006684D01*
X020335Y006779D01*
X020430Y006684D01*
X020592Y006617D01*
X021479Y006617D01*
X021641Y006684D01*
X021765Y006808D01*
X021832Y006969D01*
X021832Y007857D01*
X021765Y008018D01*
X021641Y008142D01*
X021479Y008209D01*
X020592Y008209D01*
X020430Y008142D01*
X020335Y008047D01*
X020240Y008142D01*
X020078Y008209D01*
X019190Y008209D01*
X019029Y008142D01*
X018905Y008018D01*
X018887Y007976D02*
X016283Y007976D01*
X016265Y008018D02*
X016141Y008142D01*
X015979Y008209D01*
X015092Y008209D01*
X014930Y008142D01*
X014835Y008047D01*
X014740Y008142D01*
X014578Y008209D01*
X013690Y008209D01*
X013529Y008142D01*
X013405Y008018D01*
X013338Y007857D01*
X013338Y006969D01*
X013405Y006808D01*
X013529Y006684D01*
X013690Y006617D01*
X014578Y006617D01*
X014740Y006684D01*
X014835Y006779D01*
X014930Y006684D01*
X015092Y006617D01*
X015979Y006617D01*
X016141Y006684D01*
X016265Y006808D01*
X016332Y006969D01*
X016332Y007857D01*
X016265Y008018D01*
X016332Y007738D02*
X018838Y007738D01*
X018838Y007499D02*
X016332Y007499D01*
X016332Y007261D02*
X018838Y007261D01*
X018838Y007022D02*
X016332Y007022D01*
X016241Y006784D02*
X018929Y006784D01*
X021741Y006784D02*
X023929Y006784D01*
X023905Y006808D02*
X024029Y006684D01*
X024190Y006617D01*
X025078Y006617D01*
X025240Y006684D01*
X025335Y006779D01*
X025430Y006684D01*
X025592Y006617D01*
X026479Y006617D01*
X026641Y006684D01*
X026765Y006808D01*
X026832Y006969D01*
X026832Y007857D01*
X026765Y008018D01*
X026641Y008142D01*
X026479Y008209D01*
X025592Y008209D01*
X025430Y008142D01*
X025335Y008047D01*
X025240Y008142D01*
X025078Y008209D01*
X024190Y008209D01*
X024029Y008142D01*
X023905Y008018D01*
X023838Y007857D01*
X023838Y006969D01*
X023905Y006808D01*
X023838Y007022D02*
X021832Y007022D01*
X021832Y007261D02*
X023838Y007261D01*
X023838Y007499D02*
X021832Y007499D01*
X021832Y007738D02*
X023838Y007738D01*
X023887Y007976D02*
X021783Y007976D01*
X023474Y008692D02*
X023775Y008692D01*
X023562Y008779D02*
X023562Y008779D01*
X025085Y008692D02*
X025155Y008692D01*
X025297Y008549D02*
X025297Y008549D01*
X026696Y008692D02*
X044883Y008692D01*
X044883Y008930D02*
X026771Y008930D01*
X026771Y009169D02*
X044883Y009169D01*
X044883Y009407D02*
X026771Y009407D01*
X026771Y009646D02*
X044883Y009646D01*
X044883Y009884D02*
X026771Y009884D01*
X026771Y010123D02*
X044883Y010123D01*
X044883Y010361D02*
X026771Y010361D01*
X026711Y010600D02*
X044883Y010600D01*
X044883Y010838D02*
X026409Y010838D01*
X027529Y008142D02*
X027405Y008018D01*
X027338Y007857D01*
X027338Y006969D01*
X027405Y006808D01*
X027529Y006684D01*
X027690Y006617D01*
X028578Y006617D01*
X028740Y006684D01*
X028835Y006779D01*
X028930Y006684D01*
X029092Y006617D01*
X029979Y006617D01*
X030141Y006684D01*
X030265Y006808D01*
X030332Y006969D01*
X030332Y007857D01*
X030265Y008018D01*
X030141Y008142D01*
X029979Y008209D01*
X029092Y008209D01*
X028930Y008142D01*
X028835Y008047D01*
X028740Y008142D01*
X028578Y008209D01*
X027690Y008209D01*
X027529Y008142D01*
X027387Y007976D02*
X026783Y007976D01*
X026832Y007738D02*
X027338Y007738D01*
X027338Y007499D02*
X026832Y007499D01*
X026832Y007261D02*
X027338Y007261D01*
X027338Y007022D02*
X026832Y007022D01*
X026741Y006784D02*
X027429Y006784D01*
X030241Y006784D02*
X030929Y006784D01*
X030905Y006808D02*
X031029Y006684D01*
X031190Y006617D01*
X032078Y006617D01*
X032240Y006684D01*
X032335Y006779D01*
X032430Y006684D01*
X032592Y006617D01*
X033479Y006617D01*
X033641Y006684D01*
X033765Y006808D01*
X033832Y006969D01*
X033832Y007857D01*
X033765Y008018D01*
X033641Y008142D01*
X033479Y008209D01*
X032592Y008209D01*
X032430Y008142D01*
X032335Y008047D01*
X032240Y008142D01*
X032078Y008209D01*
X031190Y008209D01*
X031029Y008142D01*
X030905Y008018D01*
X030838Y007857D01*
X030838Y006969D01*
X030905Y006808D01*
X030838Y007022D02*
X030332Y007022D01*
X030332Y007261D02*
X030838Y007261D01*
X030838Y007499D02*
X030332Y007499D01*
X030332Y007738D02*
X030838Y007738D01*
X030887Y007976D02*
X030283Y007976D01*
X033783Y007976D02*
X034387Y007976D01*
X034405Y008018D02*
X034338Y007857D01*
X034338Y006969D01*
X034405Y006808D01*
X034529Y006684D01*
X034690Y006617D01*
X035578Y006617D01*
X035740Y006684D01*
X035835Y006779D01*
X035930Y006684D01*
X036092Y006617D01*
X036979Y006617D01*
X037141Y006684D01*
X037265Y006808D01*
X037332Y006969D01*
X037332Y007857D01*
X037265Y008018D01*
X037141Y008142D01*
X036979Y008209D01*
X036092Y008209D01*
X035930Y008142D01*
X035835Y008047D01*
X035740Y008142D01*
X035578Y008209D01*
X034690Y008209D01*
X034529Y008142D01*
X034405Y008018D01*
X034338Y007738D02*
X033832Y007738D01*
X033832Y007499D02*
X034338Y007499D01*
X034338Y007261D02*
X033832Y007261D01*
X033832Y007022D02*
X034338Y007022D01*
X034429Y006784D02*
X033741Y006784D01*
X037241Y006784D02*
X037929Y006784D01*
X037905Y006808D02*
X038029Y006684D01*
X038190Y006617D01*
X039078Y006617D01*
X039240Y006684D01*
X039335Y006779D01*
X039430Y006684D01*
X039592Y006617D01*
X040479Y006617D01*
X040641Y006684D01*
X040765Y006808D01*
X040832Y006969D01*
X040832Y007857D01*
X040765Y008018D01*
X040641Y008142D01*
X040479Y008209D01*
X039592Y008209D01*
X039430Y008142D01*
X039335Y008047D01*
X039240Y008142D01*
X039078Y008209D01*
X038190Y008209D01*
X038029Y008142D01*
X037905Y008018D01*
X037838Y007857D01*
X037838Y006969D01*
X037905Y006808D01*
X037838Y007022D02*
X037332Y007022D01*
X037332Y007261D02*
X037838Y007261D01*
X037838Y007499D02*
X037332Y007499D01*
X037332Y007738D02*
X037838Y007738D01*
X037887Y007976D02*
X037283Y007976D01*
X040783Y007976D02*
X041387Y007976D01*
X041405Y008018D02*
X041338Y007857D01*
X041338Y006969D01*
X041405Y006808D01*
X041529Y006684D01*
X041690Y006617D01*
X042578Y006617D01*
X042740Y006684D01*
X042835Y006779D01*
X042930Y006684D01*
X043092Y006617D01*
X043979Y006617D01*
X044141Y006684D01*
X044265Y006808D01*
X044332Y006969D01*
X044332Y007857D01*
X044265Y008018D01*
X044141Y008142D01*
X043979Y008209D01*
X043092Y008209D01*
X042930Y008142D01*
X042835Y008047D01*
X042740Y008142D01*
X042578Y008209D01*
X041690Y008209D01*
X041529Y008142D01*
X041405Y008018D01*
X041338Y007738D02*
X040832Y007738D01*
X040832Y007499D02*
X041338Y007499D01*
X041338Y007261D02*
X040832Y007261D01*
X040832Y007022D02*
X041338Y007022D01*
X041429Y006784D02*
X040741Y006784D01*
X044241Y006784D02*
X044883Y006784D01*
X044883Y007022D02*
X044332Y007022D01*
X044332Y007261D02*
X044883Y007261D01*
X044883Y007499D02*
X044332Y007499D01*
X044332Y007738D02*
X044883Y007738D01*
X044883Y007976D02*
X044283Y007976D01*
X044883Y008215D02*
X008271Y008215D01*
X008271Y008453D02*
X044883Y008453D01*
X044883Y006545D02*
X008271Y006545D01*
X008271Y006784D02*
X008929Y006784D01*
X008905Y006808D02*
X009029Y006684D01*
X009190Y006617D01*
X010078Y006617D01*
X010240Y006684D01*
X010335Y006779D01*
X010430Y006684D01*
X010592Y006617D01*
X011479Y006617D01*
X011641Y006684D01*
X011765Y006808D01*
X011832Y006969D01*
X011832Y007857D01*
X011765Y008018D01*
X011641Y008142D01*
X011479Y008209D01*
X010592Y008209D01*
X010430Y008142D01*
X010335Y008047D01*
X010240Y008142D01*
X010078Y008209D01*
X009190Y008209D01*
X009029Y008142D01*
X008905Y008018D01*
X008838Y007857D01*
X008838Y006969D01*
X008905Y006808D01*
X008838Y007022D02*
X008271Y007022D01*
X008271Y007261D02*
X008838Y007261D01*
X008838Y007499D02*
X008271Y007499D01*
X008271Y007738D02*
X008838Y007738D01*
X008887Y007976D02*
X008271Y007976D01*
X008271Y008692D02*
X008812Y008692D01*
X008813Y008690D02*
X008953Y008549D01*
X009137Y008473D01*
X010257Y008473D01*
X010440Y008549D01*
X010581Y008690D01*
X010657Y008874D01*
X010657Y009072D01*
X010581Y009256D01*
X010440Y009397D01*
X010352Y009433D01*
X010440Y009470D01*
X010581Y009611D01*
X010657Y009794D01*
X010657Y009993D01*
X010581Y010177D01*
X010121Y010637D01*
X009980Y010778D01*
X009796Y010854D01*
X009597Y010854D01*
X009519Y010822D01*
X009414Y010778D01*
X009414Y010778D01*
X009273Y010637D01*
X009197Y010454D01*
X009197Y009473D01*
X009137Y009473D01*
X008953Y009397D01*
X008813Y009256D01*
X008736Y009072D01*
X008736Y008874D01*
X008813Y008690D01*
X008736Y008930D02*
X008271Y008930D01*
X008271Y009169D02*
X008776Y009169D01*
X008978Y009407D02*
X008271Y009407D01*
X008271Y009646D02*
X009197Y009646D01*
X009197Y009884D02*
X008271Y009884D01*
X008271Y010123D02*
X009197Y010123D01*
X009197Y010361D02*
X008271Y010361D01*
X008271Y010600D02*
X009257Y010600D01*
X009558Y010838D02*
X008271Y010838D01*
X008271Y011077D02*
X044883Y011077D01*
X044883Y011315D02*
X008271Y011315D01*
X009835Y010838D02*
X014853Y010838D01*
X014530Y010600D02*
X010159Y010600D01*
X010121Y010637D02*
X010121Y010637D01*
X010397Y010361D02*
X011815Y010361D01*
X011548Y010123D02*
X010604Y010123D01*
X010657Y009884D02*
X011498Y009884D01*
X011564Y009646D02*
X010596Y009646D01*
X010416Y009407D02*
X011683Y009407D01*
X011802Y009169D02*
X010617Y009169D01*
X010657Y008930D02*
X011922Y008930D01*
X012041Y008692D02*
X010582Y008692D01*
X011783Y007976D02*
X013387Y007976D01*
X013338Y007738D02*
X011832Y007738D01*
X011832Y007499D02*
X013338Y007499D01*
X013338Y007261D02*
X011832Y007261D01*
X011832Y007022D02*
X013338Y007022D01*
X013429Y006784D02*
X011741Y006784D01*
X012877Y008692D02*
X013186Y008692D01*
X013110Y008930D02*
X012997Y008930D01*
X012475Y010123D02*
X012443Y010123D01*
X012178Y010361D02*
X012740Y010361D01*
X013103Y010361D02*
X013432Y010361D01*
X014249Y010361D02*
X014318Y010361D01*
X013749Y011792D02*
X015920Y011792D01*
X015905Y011808D02*
X016029Y011684D01*
X016190Y011617D01*
X017078Y011617D01*
X017240Y011684D01*
X017335Y011779D01*
X017430Y011684D01*
X017592Y011617D01*
X018479Y011617D01*
X018641Y011684D01*
X018765Y011808D01*
X018832Y011969D01*
X018832Y012857D01*
X018765Y013018D01*
X018641Y013142D01*
X018479Y013209D01*
X017592Y013209D01*
X017430Y013142D01*
X017335Y013047D01*
X017240Y013142D01*
X017078Y013209D01*
X016190Y013209D01*
X016029Y013142D01*
X015905Y013018D01*
X015838Y012857D01*
X015838Y011969D01*
X015905Y011808D01*
X015838Y012031D02*
X013832Y012031D01*
X013832Y012269D02*
X015838Y012269D01*
X015838Y012508D02*
X013832Y012508D01*
X013832Y012746D02*
X015838Y012746D01*
X015891Y012985D02*
X013779Y012985D01*
X018779Y012985D02*
X020391Y012985D01*
X020338Y012746D02*
X018832Y012746D01*
X018832Y012508D02*
X020338Y012508D01*
X020338Y012269D02*
X018832Y012269D01*
X018832Y012031D02*
X020338Y012031D01*
X020420Y011792D02*
X018749Y011792D01*
X015257Y008692D02*
X015187Y008692D01*
X008271Y006306D02*
X044883Y006306D01*
X044883Y006068D02*
X008271Y006068D01*
X035957Y024039D02*
X035957Y024480D01*
X036705Y024433D02*
X036705Y024433D01*
X039348Y024433D02*
X044883Y024433D01*
X011478Y029203D02*
X008271Y029203D01*
X009433Y028726D02*
X009449Y028726D01*
X009433Y028487D02*
X009449Y028487D01*
X009433Y028249D02*
X009449Y028249D01*
X009433Y028010D02*
X009449Y028010D01*
X008327Y025625D02*
X008271Y025625D01*
D24*
X035331Y015913D02*
X035382Y015913D01*
M02*
